<?xml version="1.0" encoding="utf-8"?>
<!-- Generator: Adobe Illustrator 24.2.1, SVG Export Plug-In . SVG Version: 6.00 Build 0)  -->
<svg version="1.1" id="Capa_1" xmlns="http://www.w3.org/2000/svg" xmlns:xlink="http://www.w3.org/1999/xlink" x="0px" y="0px"
	 viewBox="0 0 14 14" style="enable-background:new 0 0 14 14;" xml:space="preserve">
<style type="text/css">
	.st0{fill:#5299C2;}
	.st1{fill:#FFFFFF;}
</style>
<path class="st0" d="M0.9,8.2C0.9,8.1,1,8.1,1.2,8.1c0.3,0,0.4-0.2,0.6-0.4C1.6,7.7,1.5,7.6,1.4,7.6C1.1,7.5,1,7.3,1,7.1
	c0-0.2,0.2-0.4,0.5-0.5C1.7,6.6,2,6.7,2.1,7c0.1,0.2,0.1,0.3,0.2,0.5c0,0,0-0.1,0-0.1c0.1-0.7,0.4-1.4,1-1.9C3.5,5.3,3.7,5.1,4,4.9
	c0.1-0.1,0.2,0,0.3,0.1s0,0.2-0.1,0.3C3.8,5.4,3.6,5.7,3.3,5.9C2.9,6.4,2.7,6.9,2.6,7.4C2.5,8.1,2.6,8.7,2.8,9.3
	C3,10,3.5,10.5,4.1,10.9c0.2,0.1,0.3,0.3,0.4,0.5c0.1,0.3,0.1,0.7,0.2,1c0,0.1,0.1,0.1,0.2,0.1c0.2,0,0.5,0,0.7,0
	c0.1,0,0.1,0,0.1-0.1c0-0.2,0.1-0.4,0.1-0.6c0-0.2,0.2-0.3,0.4-0.3c0.3,0,0.7,0,1.1,0c0.2,0,0.5,0,0.7-0.1c0.3,0,0.4,0,0.4,0.3
	c0,0.2,0.1,0.4,0.1,0.6c0,0.1,0.1,0.1,0.2,0.1c0.2,0,0.4,0,0.7,0c0.1,0,0.2,0,0.2-0.1c0.1-0.4,0.1-0.8,0.2-1.2
	c0-0.2,0.1-0.3,0.3-0.4c0.6-0.3,1.1-0.7,1.4-1.3c0.1-0.1,0.2-0.2,0.4-0.3c0.2-0.1,0.5-0.1,0.7-0.2c0.2-0.1,0.3-0.2,0.3-0.4
	c0-0.2,0-0.5,0-0.7c0-0.2-0.1-0.3-0.3-0.4c-0.1,0-0.3-0.1-0.4-0.1c-0.2-0.1-0.4-0.2-0.4-0.4c-0.1-0.3-0.3-0.7-0.6-1
	c0,0,0,0.1-0.1,0.1c-0.2,0.4-0.5,0.6-0.9,0.6C9.6,6.8,9.3,6.7,9,6.3C8.8,6.1,8.7,5.8,8.7,5.5c0-0.2,0-0.4,0-0.6c0-0.1,0-0.1-0.1-0.1
	c-0.2-0.1-0.3,0-0.4,0.1C8.1,5.1,8,5.2,7.8,5.3c0,0-0.1,0.1-0.1,0.1c0.1,0,0.2,0.1,0.3,0.1c0.1,0,0.2,0.1,0.2,0.2
	c0,0.1-0.1,0.2-0.3,0.1C7.4,5.7,7,5.7,6.6,5.6C6,5.6,5.5,5.7,5,5.8c0,0-0.1,0-0.1,0c-0.1,0-0.2,0-0.2-0.1s0-0.2,0.1-0.2
	c0.1,0,0.2-0.1,0.3-0.1C4.9,5.3,4.7,5.2,4.6,5C3.7,4.1,3.8,2.6,4.7,1.7c1.2-1.1,3.1-0.9,3.8,0.6c0,0.1,0,0.1,0,0.2
	c0,0-0.1,0.1-0.1,0.1c-0.1,0-0.1,0-0.2-0.1C8.1,2.3,8.1,2.2,8,2.1C7.4,1.4,6.7,1.2,5.8,1.4C5,1.6,4.5,2.2,4.3,3
	C4.2,4,4.7,4.9,5.6,5.3c0.1,0.1,0.3,0,0.4,0c0.3,0,0.7,0,1,0c0.1,0,0.2,0,0.3-0.1C8,4.9,8.4,4.3,8.4,3.5c0-0.2,0.1-0.2,0.2-0.2
	c0.1,0,0.1,0.1,0.1,0.2c0,0.3-0.1,0.6-0.2,0.9c0.1,0,0.3,0.1,0.4,0C9.5,4.2,10,4,10.5,3.9c0.1,0,0.1,0,0.2,0c0.3,0,0.5,0.1,0.5,0.4
	c0.1,0.3,0.1,0.6,0,1c0,0.1,0,0.2,0,0.3c-0.1,0.2,0,0.3,0.1,0.4c0.3,0.3,0.5,0.7,0.6,1c0,0.1,0.1,0.2,0.3,0.2c0.1,0,0.3,0.1,0.4,0.1
	c0.3,0.1,0.5,0.3,0.5,0.7c0,0.3,0,0.5,0,0.8c0,0.3-0.2,0.6-0.5,0.7c-0.2,0.1-0.5,0.1-0.7,0.2c-0.1,0-0.2,0.1-0.2,0.1
	c-0.4,0.6-0.9,1-1.5,1.4c-0.1,0-0.1,0.1-0.1,0.2c-0.1,0.4-0.1,0.8-0.2,1.2c-0.1,0.2-0.2,0.4-0.4,0.4c-0.3,0-0.5,0-0.8,0
	c-0.2,0-0.4-0.1-0.4-0.4c0-0.2-0.1-0.4-0.1-0.6c0-0.1-0.1-0.1-0.1-0.1c-0.2,0-0.4,0-0.6,0.1c-0.2,0-0.4,0-0.6,0s-0.4,0-0.6,0
	c0,0.2-0.1,0.3-0.1,0.5c0,0.1,0,0.1,0,0.2c-0.1,0.2-0.2,0.3-0.4,0.3c-0.3,0-0.5,0-0.8,0c-0.2,0-0.4-0.1-0.5-0.4
	c-0.1-0.4-0.2-0.7-0.2-1.1c-0.1-0.1-0.1-0.2-0.2-0.2c-0.7-0.4-1.2-0.9-1.5-1.6C2.3,9.1,2.2,8.5,2.2,7.9c0,0,0-0.1,0-0.2
	c0,0-0.1,0.1-0.1,0.1C1.9,8.2,1.7,8.4,1.3,8.5C1.2,8.5,1,8.5,0.9,8.4C0.9,8.3,0.9,8.3,0.9,8.2z M10.9,4.8c0-0.1,0-0.3,0-0.4
	c0-0.2-0.1-0.2-0.2-0.2c-0.1,0-0.1,0-0.2,0c-0.4,0.1-0.7,0.3-1.1,0.4C9.1,4.7,9.1,4.9,9,5.2C9,5.8,9.3,6.3,9.9,6.4
	c0.5,0.1,0.7,0,0.9-0.5C10.9,5.6,10.9,5.2,10.9,4.8z M1.9,7.4C1.8,7.2,1.7,7,1.6,7c-0.1,0-0.2,0-0.2,0.1c0,0.1,0,0.1,0.1,0.2
	C1.6,7.3,1.7,7.3,1.9,7.4z"/>
<path class="st0" d="M11.1,7.5c0,0.3-0.3,0.6-0.6,0.6S10,7.8,10,7.5c0-0.1,0.1-0.2,0.1-0.2c0.1,0,0.2,0,0.2,0.2
	c0,0.1,0.1,0.2,0.2,0.2c0.1,0,0.2-0.1,0.3-0.2c0-0.1,0.1-0.2,0.2-0.2C11.1,7.3,11.1,7.4,11.1,7.5z"/>
<path class="st1" d="M1.9,7.4C1.7,7.3,1.6,7.3,1.5,7.2c-0.1,0-0.1-0.1-0.1-0.2C1.5,7,1.5,6.9,1.6,7C1.7,7,1.8,7.2,1.9,7.4z"/>
<path class="st1" d="M6.5,3.5c0.2,0.1,0.3,0.2,0.3,0.4c0,0.2-0.1,0.2-0.3,0.3C6.5,4,6.5,3.8,6.5,3.5z"/>
<path class="st1" d="M6.4,3.1C6.2,3,6.1,2.9,6.1,2.8c0-0.1,0.1-0.2,0.3-0.2C6.4,2.7,6.4,2.9,6.4,3.1z"/>
<path class="st0" d="M5.7,3.8c0-0.1,0.1-0.2,0.2-0.2S6,3.6,6,3.7C6.1,3.9,6.2,4,6.3,4c0.1,0,0.3-0.1,0.3-0.2c0.1-0.1,0-0.3-0.1-0.4
	c-0.1,0-0.1-0.1-0.2-0.1C6,3.4,5.8,3.2,5.7,2.8C5.7,2.5,5.8,2.2,6.1,2.1c0.1,0,0.1-0.1,0.1-0.1c0,0,0-0.1,0-0.1
	c0-0.1,0.1-0.1,0.2-0.1c0.1,0,0.2,0.1,0.2,0.1c0,0.2,0.1,0.2,0.2,0.3C6.9,2.3,7,2.5,7,2.7C7,2.8,7,2.9,6.9,2.9
	c-0.1,0-0.2-0.1-0.2-0.2c0-0.2-0.2-0.3-0.3-0.3c-0.2,0-0.3,0.2-0.3,0.3C6.1,2.9,6.2,3,6.4,3C6.7,3.1,7,3.3,7,3.6
	c0.1,0.3-0.1,0.6-0.4,0.7c-0.1,0-0.1,0-0.1,0.1c0,0,0,0.1,0,0.1c0,0.1-0.1,0.2-0.2,0.1c-0.1,0-0.2-0.1-0.2-0.2c0-0.1,0-0.2-0.2-0.3
	C5.8,4.2,5.7,4,5.7,3.8z"/>
</svg>
