<?xml version="1.0" encoding="utf-8"?>
<!-- Generator: Adobe Illustrator 24.1.3, SVG Export Plug-In . SVG Version: 6.00 Build 0)  -->
<svg version="1.1" id="Capa_1" xmlns="http://www.w3.org/2000/svg" xmlns:xlink="http://www.w3.org/1999/xlink" x="0px" y="0px"
	 viewBox="0 0 14 14" style="enable-background:new 0 0 14 14;" xml:space="preserve">
<style type="text/css">
	.st0{fill:#FFFFFF;}
</style>
<path d="M0.88,8.24C0.94,8.13,1.05,8.11,1.16,8.1c0.25-0.03,0.44-0.16,0.59-0.37C1.61,7.68,1.48,7.64,1.36,7.59
	C1.12,7.48,1,7.31,1.03,7.09c0.02-0.22,0.22-0.44,0.45-0.48c0.21-0.04,0.48,0.1,0.6,0.34c0.08,0.15,0.12,0.31,0.18,0.47
	C2.26,7.4,2.28,7.36,2.29,7.33c0.13-0.73,0.44-1.37,0.99-1.88c0.21-0.2,0.46-0.35,0.69-0.52c0.09-0.07,0.21-0.04,0.26,0.05
	c0.05,0.09,0.02,0.19-0.08,0.25c-0.31,0.19-0.6,0.42-0.84,0.7c-0.37,0.43-0.58,0.94-0.67,1.5c-0.1,0.62-0.07,1.23,0.14,1.83
	c0.25,0.72,0.71,1.26,1.36,1.63c0.22,0.13,0.33,0.28,0.37,0.53c0.05,0.34,0.13,0.67,0.19,1c0.02,0.09,0.06,0.13,0.15,0.13
	c0.24,0,0.48,0,0.71,0c0.09,0,0.13-0.03,0.14-0.12c0.03-0.2,0.08-0.4,0.11-0.59c0.04-0.22,0.15-0.3,0.37-0.29
	c0.35,0.01,0.7,0.03,1.06,0.03c0.24,0,0.47-0.03,0.71-0.06c0.27-0.03,0.38,0.04,0.44,0.3c0.04,0.2,0.08,0.4,0.11,0.59
	c0.02,0.1,0.06,0.14,0.17,0.14c0.23,0,0.45-0.01,0.68,0c0.11,0,0.16-0.04,0.18-0.14c0.07-0.39,0.15-0.78,0.22-1.17
	c0.03-0.17,0.1-0.29,0.26-0.37c0.57-0.31,1.05-0.72,1.39-1.28c0.08-0.14,0.21-0.23,0.36-0.27c0.23-0.07,0.46-0.15,0.69-0.22
	c0.22-0.07,0.29-0.17,0.29-0.39c0-0.23,0-0.47,0-0.7c0-0.2-0.07-0.3-0.26-0.36c-0.13-0.04-0.26-0.09-0.39-0.13
	c-0.22-0.06-0.37-0.2-0.44-0.42c-0.12-0.35-0.29-0.67-0.55-0.97c-0.02,0.04-0.04,0.07-0.05,0.1c-0.16,0.42-0.48,0.62-0.92,0.61
	C9.65,6.82,9.25,6.67,8.96,6.31C8.77,6.07,8.68,5.8,8.67,5.51C8.67,5.3,8.69,5.1,8.71,4.89C8.72,4.82,8.7,4.79,8.63,4.76
	C8.47,4.71,8.37,4.73,8.26,4.88C8.14,5.05,7.96,5.19,7.8,5.33c-0.03,0.03-0.07,0.06-0.13,0.1c0.1,0.03,0.18,0.05,0.27,0.08
	C8.07,5.55,8.13,5.64,8.1,5.74C8.07,5.85,7.98,5.9,7.84,5.86C7.42,5.73,7,5.65,6.56,5.63C6.02,5.61,5.49,5.68,4.97,5.84
	C4.94,5.85,4.91,5.86,4.87,5.86c-0.11,0.02-0.2-0.02-0.23-0.12c-0.03-0.1,0.02-0.18,0.13-0.22c0.09-0.03,0.19-0.06,0.28-0.09
	C4.89,5.29,4.72,5.15,4.58,4.99C3.71,4.05,3.75,2.57,4.67,1.66c1.15-1.14,3.08-0.85,3.84,0.58c0.03,0.06,0.04,0.14,0.03,0.2
	c-0.01,0.05-0.09,0.1-0.14,0.1c-0.06,0-0.13-0.04-0.17-0.09C8.13,2.33,8.07,2.19,7.97,2.07C7.39,1.41,6.67,1.17,5.83,1.4
	C5,1.62,4.49,2.2,4.34,3.05C4.17,3.99,4.69,4.9,5.57,5.27c0.11,0.05,0.26,0.01,0.39,0.02C6.3,5.29,6.64,5.31,6.98,5.3
	c0.1,0,0.22-0.03,0.31-0.08c0.68-0.36,1.06-0.93,1.13-1.7c0.01-0.16,0.1-0.24,0.22-0.21c0.11,0.02,0.15,0.1,0.14,0.2
	C8.74,3.8,8.68,4.09,8.62,4.39C8.75,4.41,8.88,4.5,9.07,4.41c0.46-0.22,0.94-0.42,1.44-0.53c0.07-0.01,0.13-0.02,0.2-0.03
	c0.28-0.03,0.46,0.1,0.52,0.37c0.08,0.32,0.06,0.64,0.04,0.96c-0.01,0.1-0.01,0.2-0.04,0.29c-0.07,0.19,0.01,0.3,0.13,0.44
	c0.27,0.3,0.46,0.65,0.59,1.04c0.04,0.13,0.12,0.21,0.25,0.24c0.14,0.04,0.28,0.09,0.42,0.14c0.3,0.11,0.46,0.34,0.46,0.65
	c0,0.26,0,0.52,0,0.79c0,0.33-0.17,0.56-0.48,0.67c-0.24,0.08-0.48,0.15-0.71,0.23c-0.08,0.03-0.16,0.08-0.2,0.15
	c-0.37,0.59-0.87,1.04-1.47,1.37c-0.07,0.04-0.1,0.08-0.12,0.16c-0.07,0.4-0.15,0.81-0.23,1.21c-0.05,0.23-0.21,0.36-0.45,0.36
	c-0.27,0-0.54,0-0.81,0c-0.22,0-0.38-0.13-0.43-0.35c-0.04-0.19-0.08-0.39-0.11-0.58c-0.01-0.09-0.05-0.1-0.12-0.09
	c-0.2,0.02-0.39,0.04-0.59,0.05c-0.19,0.01-0.39,0.01-0.58,0.01c-0.19,0-0.38-0.02-0.59-0.03c-0.03,0.16-0.06,0.32-0.09,0.48
	c-0.01,0.07-0.02,0.13-0.04,0.2c-0.06,0.2-0.21,0.32-0.42,0.32c-0.27,0-0.54,0-0.81,0c-0.24,0-0.41-0.14-0.46-0.38
	c-0.07-0.37-0.15-0.74-0.21-1.12C4.11,11.32,4.07,11.27,4,11.23c-0.65-0.38-1.16-0.9-1.47-1.59C2.29,9.1,2.2,8.53,2.22,7.93
	c0-0.04,0-0.09-0.03-0.16C2.16,7.8,2.12,7.82,2.1,7.86c-0.19,0.29-0.43,0.51-0.77,0.6C1.17,8.5,1.01,8.54,0.88,8.38
	C0.88,8.33,0.88,8.29,0.88,8.24z M10.94,4.76c-0.01-0.13-0.02-0.26-0.04-0.39c-0.03-0.17-0.07-0.21-0.21-0.16
	c-0.07,0.02-0.14,0.02-0.21,0.04c-0.35,0.12-0.69,0.27-1.05,0.38C9.15,4.72,9.05,4.89,9.02,5.17C8.96,5.84,9.26,6.3,9.85,6.44
	c0.46,0.11,0.74-0.04,0.88-0.47C10.86,5.58,10.93,5.18,10.94,4.76z M1.85,7.39c-0.03-0.21-0.11-0.35-0.22-0.4
	C1.54,6.94,1.47,6.97,1.41,7.07c-0.05,0.09,0,0.14,0.07,0.17C1.59,7.29,1.71,7.33,1.85,7.39z"/>
<path d="M11.12,7.49c-0.01,0.29-0.28,0.55-0.58,0.55c-0.3,0-0.58-0.26-0.58-0.56c0-0.11,0.06-0.18,0.15-0.2
	c0.1-0.02,0.18,0.04,0.2,0.15c0.02,0.12,0.06,0.22,0.21,0.24c0.13,0.01,0.21-0.06,0.25-0.22c0.03-0.13,0.1-0.19,0.21-0.17
	C11.07,7.3,11.12,7.37,11.12,7.49z"/>
<path class="st0" d="M10.94,4.76c-0.01,0.42-0.07,0.82-0.21,1.21c-0.15,0.43-0.43,0.57-0.88,0.47C9.26,6.3,8.96,5.84,9.02,5.17
	c0.03-0.28,0.12-0.46,0.41-0.54c0.35-0.11,0.7-0.25,1.05-0.38c0.07-0.02,0.14-0.02,0.21-0.04c0.15-0.05,0.19-0.01,0.21,0.16
	C10.92,4.5,10.93,4.63,10.94,4.76z"/>
<path class="st0" d="M1.85,7.39C1.71,7.33,1.59,7.29,1.47,7.24C1.41,7.21,1.35,7.16,1.41,7.07c0.06-0.1,0.13-0.13,0.22-0.09
	C1.74,7.04,1.82,7.18,1.85,7.39z"/>
<path class="st0" d="M6.53,3.54C6.72,3.61,6.81,3.73,6.79,3.9C6.78,4.06,6.7,4.14,6.53,4.16C6.53,3.96,6.53,3.75,6.53,3.54z"/>
<path class="st0" d="M6.38,3.1c-0.21-0.06-0.3-0.16-0.29-0.31c0.01-0.13,0.1-0.2,0.29-0.22C6.38,2.74,6.38,2.91,6.38,3.1z"/>
<path d="M5.72,3.75c0-0.14,0.06-0.21,0.16-0.21c0.1,0,0.16,0.06,0.17,0.18c0.02,0.17,0.13,0.29,0.29,0.31
	c0.14,0.02,0.28-0.07,0.34-0.2c0.06-0.14,0.02-0.31-0.11-0.39c-0.06-0.04-0.13-0.06-0.2-0.06C6.04,3.36,5.79,3.15,5.73,2.82
	C5.68,2.54,5.85,2.23,6.14,2.12C6.2,2.1,6.22,2.06,6.21,2.01c0-0.04,0-0.07,0-0.11c0.01-0.09,0.08-0.15,0.16-0.15
	c0.09,0,0.17,0.06,0.16,0.14C6.51,2.06,6.6,2.11,6.73,2.18c0.19,0.11,0.29,0.29,0.3,0.51c0.01,0.11-0.06,0.19-0.15,0.19
	C6.78,2.89,6.72,2.83,6.7,2.71C6.68,2.52,6.54,2.39,6.36,2.4C6.19,2.41,6.05,2.56,6.05,2.73c0,0.18,0.15,0.31,0.34,0.32
	c0.33,0.01,0.58,0.23,0.63,0.56c0.05,0.29-0.12,0.59-0.41,0.7C6.56,4.33,6.53,4.35,6.54,4.42c0,0.04,0,0.07,0,0.11
	C6.53,4.62,6.46,4.69,6.37,4.68c-0.09,0-0.16-0.07-0.15-0.16c0.02-0.14-0.04-0.2-0.16-0.26C5.84,4.16,5.74,3.96,5.72,3.75z"/>
</svg>
