<?xml version="1.0" encoding="utf-8"?>
<!-- Generator: Adobe Illustrator 24.2.1, SVG Export Plug-In . SVG Version: 6.00 Build 0)  -->
<svg version="1.1" id="Capa_1" xmlns="http://www.w3.org/2000/svg" xmlns:xlink="http://www.w3.org/1999/xlink" x="0px" y="0px"
	 viewBox="0 0 14 14" style="enable-background:new 0 0 14 14;" xml:space="preserve">
<style type="text/css">
	.st0{fill:#EAAC02;}
</style>
<path class="st0" d="M8.4,9.2c0-0.2,0.1-0.3,0.3-0.4C8.9,8.8,9,8.9,9,9.1c0,0.3,0.2,0.5,0.5,0.5c0.2,0,0.5-0.1,0.6-0.3
	c0.1-0.2,0-0.5-0.2-0.6C9.7,8.6,9.6,8.6,9.5,8.6c-0.5,0-0.9-0.4-1-0.9c-0.1-0.5,0.2-1,0.7-1.2c0.1,0,0.1-0.1,0.1-0.2
	c0-0.1,0-0.1,0-0.2c0-0.2,0.1-0.3,0.3-0.3c0.1,0,0.3,0.1,0.3,0.2c0,0.3,0.1,0.4,0.3,0.5c0.3,0.2,0.5,0.5,0.5,0.8
	c0,0.2-0.1,0.3-0.3,0.3c-0.2,0-0.3-0.1-0.3-0.3C10,7.2,9.8,7,9.5,7C9.2,7,9,7.2,9,7.5C9,7.8,9.2,8,9.5,8.1c0.5,0,0.9,0.4,1,0.9
	c0.1,0.5-0.2,1-0.7,1.1c-0.1,0-0.1,0.1-0.1,0.2c0,0.1,0,0.1,0,0.2c0,0.1-0.1,0.3-0.3,0.3c-0.1,0-0.3-0.1-0.3-0.3
	c0-0.2-0.1-0.3-0.3-0.4C8.6,9.9,8.5,9.5,8.4,9.2z"/>
<path class="st0" d="M4.1,12.6c-0.8,0-1.5,0-2.2,0c-0.8,0-1.2-0.6-0.7-1.3c0.2-0.3,0.3-0.5,0-0.8C0.9,10.2,0.9,9.9,1,9.6
	c0.1-0.5,0.1-0.9,0-1.3C0.9,8,0.9,7.7,0.6,7.6c-0.4-0.2-0.3-1.1,0-1.3S0.9,6,0.9,5.6C0.8,5.1,0.4,4.4,1.4,4.3c0.2,0,0.2-0.4,0-0.5
	C0.9,3.6,1,3.2,1,2.8c0-1.7-0.2-1.5,1.5-1.5c1.3,0,2.6,0,3.9,0c0.6,0,0.8,0.2,0.8,0.7c0,0.5-0.2,1.1,0.5,1.4c0.2,0.1,0.1,0.4,0,0.6
	C7.4,4.2,7.3,4,7.3,3.8C7.1,3.7,6.9,3.7,6.8,3.7c-1.4,0-2.8,0-4.2,0C2.3,3.7,2,3.6,2,4c0,0.4,0.4,0.3,0.6,0.3c1.1,0,2.3,0,3.4,0
	c0.2,0,0.4,0,0.5,0c0.1,0,0.3,0,0.3,0.2c0,0.2-0.2,0.2-0.3,0.2c-0.2,0-0.4,0-0.6,0c-1.4,0-2.8,0-4.2,0c-0.3,0-0.6-0.1-0.6,0.3
	c0,0.4,0.4,0.2,0.6,0.3c1.2,0,2.4,0,3.6,0c0.2,0,0.4-0.1,0.4,0.2c0,0.2-0.3,0.2-0.4,0.2c-1,0-2,0-3,0c-0.2,0-0.3,0-0.5,0
	C1.7,5.8,1.4,5.7,1.4,6c0,0.3,0.3,0.2,0.5,0.2c0.8,0,1.5,0,2.2,0c0.3,0,0.5,0,0.8,0c0.2,0,0.6-0.1,0.5,0.2c0,0.3-0.3,0.2-0.5,0.2
	c-1.2,0-2.4,0-3.5,0C1.2,6.7,0.8,6.6,0.8,7c0,0.3,0.3,0.2,0.5,0.2c1.1,0,2.1,0,3.2,0C4.7,7.2,5,7.2,5,7.5c0,0.3-0.3,0.2-0.5,0.2
	c-0.9,0-1.8,0-2.7,0c-0.2,0-0.5-0.1-0.5,0.3c0,0.4,0.3,0.3,0.6,0.3c0.8,0,1.7,0,2.5,0c0.2,0,0.5-0.1,0.5,0.2c0,0.2-0.3,0.2-0.4,0.2
	c-0.8,0-1.6,0-2.5,0c-0.2,0-0.5,0-0.5,0.3c0,0.3,0.3,0.3,0.5,0.3c0.8,0,1.7,0,2.5,0c0.2,0,0.4,0,0.4,0.2c0,0.2-0.2,0.2-0.4,0.2
	c-0.8,0-1.6,0-2.5,0c-0.3,0-0.7-0.1-0.7,0.3c0,0.4,0.4,0.3,0.7,0.3c0.9,0,1.9,0,2.8,0c0.7,0,0.8-0.1,0.6-0.8
	c-0.8-2.9,1.7-5.6,4.7-5.2c1.6,0.3,3,1.5,3.4,3c0.4,1.8-0.2,3.5-1.6,4.5c-1.4,1-3.2,1.1-4.6,0.2c-0.5-0.4-1-0.5-1.7-0.4
	c-1.2,0.1-2.3,0-3.5,0c-0.2,0-0.3,0-0.5,0c-0.2,0-0.3,0.1-0.3,0.3c0,0.2,0.2,0.3,0.3,0.3c0.3,0,0.7,0,1,0c1.3,0,2.5,0,3.8,0
	c0.2,0,0.5-0.1,0.5,0.2c0,0.3-0.3,0.2-0.5,0.2C5.7,12.6,4.9,12.6,4.1,12.6z M13.3,8.4c0-2.1-1.7-3.8-3.8-3.8c-2.1,0-3.8,1.7-3.8,3.8
	c0,2.1,1.7,3.8,3.8,3.8C11.6,12.2,13.3,10.5,13.3,8.4z M4.1,1.8c-0.8,0-1.5,0-2.2,0c-0.2,0-0.5,0-0.4,0.3c0,0.2,0.2,0.3,0.4,0.3
	c1.5,0,3,0,4.6,0c0.2,0,0.4-0.1,0.4-0.3c0-0.3-0.2-0.3-0.4-0.3C5.6,1.8,4.8,1.8,4.1,1.8z M4.1,3.3c0.7,0,1.4,0,2.2,0
	c0.2,0,0.4,0,0.5-0.3c0-0.3-0.3-0.3-0.5-0.3c-1.4,0-2.9,0-4.3,0c-0.2,0-0.5,0-0.5,0.3c0,0.3,0.3,0.3,0.5,0.3
	C2.6,3.3,3.3,3.3,4.1,3.3z M4,11.2c0.6,0,1.2,0,1.8,0c0.3,0,0.4-0.1,0.2-0.4c-0.2-0.4-0.5-0.2-0.8-0.2c-1,0-2,0-3,0
	c-0.2,0-0.4,0-0.4,0.3c0,0.3,0.2,0.3,0.4,0.3C2.8,11.2,3.4,11.2,4,11.2z"/>
<path class="st0" d="M9.5,11.7c-1.8,0-3.3-1.4-3.3-3.2c0-1.8,1.5-3.3,3.3-3.3c1.8,0,3.3,1.4,3.3,3.2C12.8,10.2,11.3,11.7,9.5,11.7z
	 M12.4,8.5c0-1.6-1.3-2.9-2.9-2.9c-1.6,0-2.8,1.3-2.8,2.8s1.2,2.8,2.8,2.9C11.1,11.3,12.3,10.1,12.4,8.5z"/>
<image style="overflow:visible;" width="483" height="634" xlink:href="7C7F50DD.jpg"  transform="matrix(3.346121e-02 0 0 3.346121e-02 19.9118 -4.6972)">
</image>
</svg>
