<?xml version="1.0" encoding="utf-8"?>
<!-- Generator: Adobe Illustrator 24.1.3, SVG Export Plug-In . SVG Version: 6.00 Build 0)  -->
<svg version="1.1" id="Capa_1" xmlns="http://www.w3.org/2000/svg" xmlns:xlink="http://www.w3.org/1999/xlink" x="0px" y="0px"
	 viewBox="0 0 14 14" style="enable-background:new 0 0 14 14;" xml:space="preserve">
<path d="M8.43,9.2c0-0.22,0.1-0.34,0.26-0.35c0.16,0,0.26,0.1,0.27,0.29c0.03,0.27,0.22,0.47,0.47,0.51
	c0.22,0.03,0.46-0.11,0.55-0.32c0.1-0.23,0.03-0.5-0.18-0.63c-0.09-0.06-0.21-0.1-0.33-0.1C8.94,8.56,8.54,8.21,8.44,7.68
	c-0.09-0.47,0.2-0.97,0.67-1.16c0.1-0.04,0.12-0.09,0.12-0.18c0-0.06,0-0.12,0-0.18C9.25,6.01,9.36,5.91,9.5,5.91
	c0.15,0.01,0.27,0.1,0.25,0.23c-0.04,0.28,0.11,0.37,0.32,0.48c0.32,0.18,0.47,0.48,0.49,0.84c0.01,0.18-0.09,0.3-0.25,0.31
	c-0.16,0.01-0.26-0.1-0.28-0.28C9.99,7.18,9.76,6.97,9.47,6.98C9.18,7,8.96,7.24,8.96,7.53C8.97,7.82,9.2,8.04,9.52,8.05
	c0.53,0.02,0.94,0.38,1.03,0.91c0.08,0.47-0.2,0.96-0.67,1.14c-0.09,0.04-0.13,0.08-0.12,0.18c0.01,0.06,0.01,0.12,0,0.18
	c-0.01,0.15-0.13,0.26-0.28,0.25c-0.14-0.01-0.27-0.11-0.25-0.26c0.03-0.23-0.06-0.33-0.26-0.43C8.62,9.86,8.46,9.54,8.43,9.2z"/>
<path d="M4.07,12.57c-0.75,0-1.49,0-2.24,0c-0.81,0-1.18-0.59-0.73-1.27c0.22-0.33,0.26-0.51,0-0.81C0.88,10.23,0.92,9.86,1,9.58
	C1.13,9.12,1.1,8.71,1,8.26c-0.07-0.3-0.07-0.52-0.42-0.67c-0.37-0.16-0.34-1.1,0.04-1.27c0.38-0.17,0.31-0.36,0.26-0.69
	C0.8,5.13,0.36,4.44,1.37,4.28C1.59,4.24,1.6,3.85,1.41,3.79C0.88,3.62,0.98,3.22,0.98,2.85C1,1.19,0.75,1.38,2.46,1.37
	C3.77,1.36,5.09,1.39,6.4,1.36C6.96,1.35,7.17,1.54,7.15,2.1c-0.02,0.5-0.2,1.08,0.47,1.4C7.77,3.58,7.76,3.92,7.6,4.06
	c-0.19,0.16-0.25-0.1-0.34-0.21c-0.14-0.17-0.33-0.13-0.5-0.13c-1.4,0-2.81,0-4.21,0C2.32,3.72,1.98,3.64,2,4.03
	C2.03,4.4,2.36,4.3,2.59,4.31c1.13,0.01,2.27,0,3.4,0.01c0.18,0,0.36,0,0.54,0.01c0.13,0.01,0.31,0.01,0.29,0.19
	C6.81,4.69,6.64,4.69,6.51,4.7C6.32,4.71,6.14,4.71,5.96,4.71c-1.38,0-2.76,0-4.15,0.01c-0.25,0-0.63-0.09-0.61,0.33
	c0.02,0.36,0.38,0.24,0.6,0.25c1.2,0.01,2.4,0,3.6,0.01c0.16,0,0.43-0.07,0.43,0.19c0,0.23-0.25,0.23-0.42,0.23c-1,0-1.99,0-2.99,0
	c-0.16,0-0.32-0.01-0.48,0c-0.23,0.02-0.58-0.07-0.57,0.3c0.01,0.32,0.33,0.24,0.54,0.24c0.75,0.01,1.49,0,2.24,0
	c0.25,0,0.5-0.02,0.75,0.01c0.2,0.02,0.55-0.12,0.54,0.21C5.45,6.79,5.11,6.69,4.9,6.69c-1.18,0.01-2.36,0-3.53,0.01
	c-0.22,0-0.57-0.1-0.55,0.29c0.02,0.32,0.33,0.24,0.54,0.24c1.06,0.01,2.13,0,3.19,0.01c0.19,0,0.48-0.07,0.49,0.21
	c0.01,0.3-0.29,0.21-0.47,0.21c-0.88,0.01-1.77,0-2.65,0.01c-0.21,0-0.53-0.07-0.53,0.25C1.38,8.28,1.71,8.23,1.95,8.23
	c0.84,0.01,1.68,0,2.51,0.01c0.18,0,0.48-0.06,0.47,0.23C4.92,8.71,4.65,8.63,4.48,8.63c-0.82,0.01-1.63,0-2.45,0.01
	c-0.2,0-0.45-0.02-0.46,0.27C1.56,9.24,1.83,9.23,2.05,9.23c0.84,0.01,1.68,0,2.51,0.01c0.15,0,0.37-0.02,0.36,0.19
	c0,0.21-0.22,0.18-0.37,0.18c-0.82,0.01-1.63,0-2.45,0.01c-0.27,0-0.71-0.12-0.72,0.28c-0.02,0.44,0.42,0.3,0.69,0.3
	c0.93,0.01,1.86-0.04,2.79,0.02c0.66,0.04,0.75-0.15,0.59-0.76C4.69,6.54,7.14,3.85,10.13,4.3c1.64,0.25,3.02,1.47,3.4,3.02
	c0.44,1.76-0.17,3.48-1.59,4.51c-1.35,0.98-3.21,1.09-4.6,0.17c-0.53-0.35-1-0.5-1.65-0.44c-1.17,0.1-2.35,0.03-3.53,0.03
	c-0.16,0-0.32,0-0.48,0.01c-0.17,0.01-0.32,0.07-0.32,0.28c0,0.2,0.16,0.25,0.33,0.26c0.34,0.01,0.68,0.01,1.02,0.01
	c1.27,0,2.54,0,3.81,0c0.19,0,0.49-0.07,0.48,0.22C7,12.66,6.7,12.57,6.51,12.57C5.7,12.58,4.88,12.57,4.07,12.57z M13.28,8.41
	c-0.01-2.1-1.71-3.79-3.81-3.77c-2.11,0.01-3.76,1.7-3.76,3.82c0.01,2.12,1.68,3.78,3.8,3.77C11.62,12.21,13.29,10.52,13.28,8.41z
	 M4.06,1.78c-0.75,0-1.49,0-2.24,0c-0.2,0-0.45-0.02-0.44,0.28c0.01,0.23,0.21,0.28,0.4,0.28c1.52,0,3.03,0,4.55,0
	c0.19,0,0.37-0.06,0.37-0.3c0-0.27-0.21-0.25-0.39-0.25C5.55,1.78,4.81,1.78,4.06,1.78z M4.05,3.33c0.72,0,1.45,0,2.17,0
	c0.2,0,0.45,0.01,0.47-0.27c0.02-0.35-0.27-0.3-0.48-0.3c-1.45-0.01-2.9,0-4.34,0c-0.2,0-0.45-0.02-0.47,0.26
	C1.37,3.34,1.65,3.32,1.87,3.32C2.6,3.33,3.32,3.33,4.05,3.33z M3.98,11.18c0.61,0,1.22,0,1.83,0c0.35,0,0.36-0.13,0.22-0.41
	c-0.2-0.39-0.49-0.17-0.76-0.17c-1.01,0.01-2.03,0-3.04,0.01c-0.2,0-0.44,0-0.44,0.29c0,0.3,0.24,0.27,0.44,0.27
	C2.81,11.18,3.39,11.18,3.98,11.18z"/>
<path d="M9.5,11.69c-1.77,0.01-3.26-1.45-3.28-3.22c-0.02-1.81,1.46-3.3,3.26-3.3c1.78,0,3.25,1.44,3.27,3.22
	C12.79,10.2,11.31,11.68,9.5,11.69z M12.35,8.48c0.01-1.62-1.25-2.9-2.86-2.9c-1.58,0-2.83,1.26-2.84,2.85
	c-0.01,1.59,1.24,2.85,2.83,2.87C11.05,11.31,12.33,10.05,12.35,8.48z"/>
</svg>
