<?xml version="1.0" encoding="utf-8"?>
<!-- Generator: Adobe Illustrator 24.2.1, SVG Export Plug-In . SVG Version: 6.00 Build 0)  -->
<svg version="1.1" id="Capa_1" xmlns="http://www.w3.org/2000/svg" xmlns:xlink="http://www.w3.org/1999/xlink" x="0px" y="0px"
	 viewBox="0 0 14 14" style="enable-background:new 0 0 14 14;" xml:space="preserve">
<style type="text/css">
	.st0{fill:#FFFFFF;}
</style>
<path d="M1.1,1.3c0.6,0,1.3,0,1.9,0c0,0.1,0,0.2,0,0.4c0.2,0,0.3,0,0.5-0.1c0.7-0.4,0.6-0.3,1.4-0.3c0.6,0,1.2,0,1.8,0
	c0.5,0,0.9,0.2,1.3,0.5c0.3,0.3,0.6,0.6,0.9,0.9C9,2.8,9,2.8,9.1,2.8c1.1,0,2.2,0,3.3,0h0.1c0,1.7,0,3.3,0,5c-2.7,0-5.3,0-8,0
	c0-0.8,0-1.6,0-2.4C4.3,5.3,4,5.3,3.8,5.2c-0.1,0-0.2-0.1-0.2-0.1C3.3,4.9,3.3,4.9,3,5c0,0.2,0,0.4,0,0.6c-0.6,0-1.3,0-1.9,0
	C1.1,4.1,1.1,2.7,1.1,1.3z M8.5,2.8C8.2,2.6,8,2.4,7.8,2.1C7.5,1.8,7.1,1.7,6.7,1.7c-0.7,0-1.5,0-2.2,0c-0.2,0-0.4,0-0.6,0.1
	C3.8,1.9,3.6,2,3.3,2.1c-0.1,0-0.2,0-0.3,0c0,0.8,0,1.7,0,2.5h0.1c0.2,0,0.5,0,0.7,0.2c0,0,0.1,0.1,0.2,0.1C4.1,4.9,4.3,5,4.6,5
	c0-0.3,0-0.6,0-0.8c0-0.1,0-0.1-0.1-0.1C4.3,4,4.2,3.9,4,3.8c0.1-0.1,0.2-0.2,0.2-0.3c0.6,0.4,0.9,0.4,1.6-0.1c0,0,0,0.1,0.1,0.1
	c0.3,0.3,0.7,0.7,1,1C7,4.6,7.1,4.7,7.3,4.6c0.3,0,0.4-0.4,0.2-0.6C7.1,3.6,6.7,3.2,6.2,2.7c0,0-0.1,0-0.1-0.1
	c0.1-0.1,0.2-0.2,0.3-0.3c0.1,0.1,0.3,0.3,0.4,0.4c0,0,0.1,0.1,0.2,0.1c0.3,0,0.6,0,0.9,0C8.1,2.8,8.3,2.8,8.5,2.8z M12.2,3.2
	c-1.6,0-3.3,0-5,0c0.1,0.1,0.2,0.2,0.3,0.3c0.1,0.1,0.1,0.1,0.2,0.1c1,0,2,0,3,0h0.1c0,0.3,0,0.5,0.2,0.7s0.5,0.2,0.7,0.2
	c0,0.5,0,1,0,1.5c-0.3,0-0.5,0-0.7,0.2s-0.2,0.5-0.2,0.7C9.3,7,7.8,7,6.3,7c0-0.3,0-0.5-0.2-0.7C5.9,6.1,5.6,6.1,5.3,6.1
	c0-0.5,0-1,0-1.5c0.3,0,0.6,0,0.8-0.3C6,4.1,5.9,4.1,5.8,4H5.7C5.5,4.1,5.2,4.2,5,4.2c0,1.1,0,2.2,0,3.3c2.4,0,4.8,0,7.3,0
	C12.2,6,12.2,4.6,12.2,3.2z M7.9,4.6c0.6-0.3,1-0.3,1.4,0.1c0.3,0.3,0.3,0.9,0,1.2C9.1,6.3,8.6,6.4,8.2,6.2C7.7,6,7.5,5.5,7.7,4.9
	l0,0C7.3,5.1,7,5.1,6.7,4.8C6.6,4.7,6.5,4.6,6.4,4.5C6.2,4.7,6,4.9,5.7,4.9c0,0.3,0,0.5,0,0.8c0.5,0.1,0.8,0.4,0.9,0.9
	c1.3,0,2.6,0,3.9,0c0.1-0.5,0.4-0.8,0.9-0.9c0-0.3,0-0.5,0-0.8c-0.5-0.1-0.8-0.4-0.9-0.9C9.7,4,8.8,4,8,4C8,4.2,8,4.4,7.9,4.6z
	 M1.5,1.7c0,1.2,0,2.3,0,3.4c0.4,0,0.8,0,1.1,0c0-1.2,0-2.3,0-3.4C2.3,1.7,1.9,1.7,1.5,1.7z M9.2,5.3C9.2,5,9,4.7,8.6,4.7
	C8.3,4.8,8,5,8,5.3s0.3,0.6,0.6,0.6C8.9,5.9,9.2,5.7,9.2,5.3z"/>
<path d="M6.9,12.8c-0.5-0.1-0.8-0.4-1.2-0.7c-0.9-0.5-1.7-1-2.6-1.6C2.6,10.3,2.6,9.7,3,9.3c0.2-0.2,0.6-0.2,0.9-0.1
	c0.6,0.3,1.2,0.7,1.9,1c0,0,0,0,0.1,0v-0.1c0-0.1,0.2-0.2,0.4-0.3C7,9.6,7.8,9.4,8.5,9.2c0.1,0,0.3,0,0.4-0.1c0.2,0,0.4,0,0.7,0
	c0.2,0,0.4,0.1,0.6,0.2c0.1,0.1,0.3,0.2,0.4,0.3c0-0.2,0-0.4,0-0.6c0.6,0,1.3,0,1.9,0c0,1.3,0,2.6,0,3.8c-0.6,0-1.3,0-1.9,0
	c0-0.1,0-0.2,0-0.3c-0.3,0.1-0.5,0.2-0.8,0.3C8.9,12.8,7.9,12.8,6.9,12.8z M8.8,10.7L8.8,10.7c-0.7,0.2-1.4,0.4-2.1,0.6
	c-0.4,0.1-0.8-0.1-0.9-0.5c0,0,0-0.1-0.1-0.1c-0.7-0.4-1.4-0.8-2-1.1c-0.1,0-0.2-0.1-0.2,0c-0.2,0-0.3,0.1-0.3,0.3s0,0.3,0.2,0.4
	c1.2,0.7,2.3,1.4,3.5,2.1c0.1,0.1,0.2,0.1,0.3,0.1c0.9,0,1.8,0,2.6,0c0.1,0,0.2,0,0.2,0c0.2-0.1,0.4-0.2,0.7-0.3l0.1-0.1
	c0-0.6,0-1.3,0-1.9c0,0,0-0.1-0.1-0.1C10.5,10,10.3,9.8,10,9.7c-0.1,0-0.1-0.1-0.2-0.1c-0.3,0-0.7,0-1,0C8.4,9.6,8,9.8,7.6,9.9
	c-0.4,0.1-0.7,0.2-1.1,0.3c-0.2,0.1-0.3,0.2-0.3,0.4s0.1,0.3,0.3,0.3c0.1,0,0.2,0,0.2,0c0.6-0.1,1.1-0.3,1.7-0.4
	c0.1,0,0.2-0.1,0.4-0.1C8.8,10.5,8.8,10.6,8.8,10.7z M11.1,9.4c0,1,0,2,0,3.1c0.4,0,0.8,0,1.1,0c0-1,0-2,0-3.1
	C11.8,9.4,11.5,9.4,11.1,9.4z"/>
<path class="st0" d="M9.9,12.8c0.3-0.1,0.5-0.2,0.8-0.3c0,0.1,0,0.2,0,0.3C10.4,12.8,10.2,12.8,9.9,12.8z"/>
</svg>
