<?xml version="1.0" encoding="utf-8"?>
<!-- Generator: Adobe Illustrator 24.1.3, SVG Export Plug-In . SVG Version: 6.00 Build 0)  -->
<svg version="1.1" id="Capa_1" xmlns="http://www.w3.org/2000/svg" xmlns:xlink="http://www.w3.org/1999/xlink" x="0px" y="0px"
	 viewBox="0 0 14 14" style="enable-background:new 0 0 14 14;" xml:space="preserve">
<style type="text/css">
	.st0{fill:#5F9595;}
	.st1{fill:#FCFCFC;}
	.st2{fill:#F9F9F9;}
</style>
<rect class="st0" width="14" height="14"/>
<path class="st1" d="M0.88,8.24C0.94,8.13,1.05,8.11,1.16,8.1C1.41,8.07,1.6,7.94,1.75,7.73C1.61,7.68,1.48,7.64,1.36,7.59
	C1.12,7.48,1,7.31,1.03,7.09c0.02-0.22,0.22-0.44,0.45-0.48c0.21-0.04,0.48,0.1,0.6,0.34C2.16,7.1,2.2,7.26,2.26,7.42
	c0-0.02,0.02-0.06,0.03-0.09C2.42,6.6,2.73,5.96,3.28,5.45c0.21-0.2,0.46-0.35,0.69-0.52c0.09-0.07,0.21-0.04,0.26,0.05
	s0.02,0.19-0.08,0.25c-0.31,0.19-0.6,0.42-0.84,0.7c-0.37,0.43-0.58,0.94-0.67,1.5c-0.1,0.62-0.07,1.23,0.14,1.83
	c0.25,0.72,0.71,1.26,1.36,1.63c0.22,0.13,0.33,0.28,0.37,0.53c0.05,0.34,0.13,0.67,0.19,1c0.02,0.09,0.06,0.13,0.15,0.13
	c0.24,0,0.48,0,0.71,0c0.09,0,0.13-0.03,0.14-0.12c0.03-0.2,0.08-0.4,0.11-0.59c0.04-0.22,0.15-0.3,0.37-0.29
	c0.35,0.01,0.7,0.03,1.06,0.03c0.24,0,0.47-0.03,0.71-0.06c0.27-0.03,0.38,0.04,0.44,0.3c0.04,0.2,0.08,0.4,0.11,0.59
	c0.02,0.1,0.06,0.14,0.17,0.14c0.23,0,0.45-0.01,0.68,0c0.11,0,0.16-0.04,0.18-0.14c0.07-0.39,0.15-0.78,0.22-1.17
	c0.03-0.17,0.1-0.29,0.26-0.37c0.57-0.31,1.05-0.72,1.39-1.28c0.08-0.14,0.21-0.23,0.36-0.27c0.23-0.07,0.46-0.15,0.69-0.22
	c0.22-0.07,0.29-0.17,0.29-0.39c0-0.23,0-0.47,0-0.7c0-0.2-0.07-0.3-0.26-0.36c-0.13-0.04-0.26-0.09-0.39-0.13
	c-0.22-0.06-0.37-0.2-0.44-0.42c-0.12-0.35-0.29-0.67-0.55-0.97c-0.02,0.04-0.04,0.07-0.05,0.1c-0.16,0.42-0.48,0.62-0.92,0.61
	C9.65,6.82,9.25,6.67,8.96,6.31C8.77,6.07,8.68,5.8,8.67,5.51c0-0.21,0.02-0.41,0.04-0.62c0.01-0.07-0.01-0.1-0.08-0.13
	C8.47,4.71,8.37,4.73,8.26,4.88C8.14,5.05,7.96,5.19,7.8,5.33c-0.03,0.03-0.07,0.06-0.13,0.1c0.1,0.03,0.18,0.05,0.27,0.08
	C8.07,5.55,8.13,5.64,8.1,5.74C8.07,5.85,7.98,5.9,7.84,5.86C7.42,5.73,7,5.65,6.56,5.63C6.02,5.61,5.49,5.68,4.97,5.84
	c-0.03,0.01-0.06,0.02-0.1,0.02c-0.11,0.02-0.2-0.02-0.23-0.12s0.02-0.18,0.13-0.22c0.09-0.03,0.19-0.06,0.28-0.09
	C4.89,5.29,4.72,5.15,4.58,4.99C3.71,4.05,3.75,2.57,4.67,1.66c1.15-1.14,3.08-0.85,3.84,0.58c0.03,0.06,0.04,0.14,0.03,0.2
	c-0.01,0.05-0.09,0.1-0.14,0.1c-0.06,0-0.13-0.04-0.17-0.09c-0.1-0.12-0.16-0.26-0.26-0.38c-0.58-0.66-1.3-0.9-2.14-0.67
	C5,1.62,4.49,2.2,4.34,3.05C4.17,3.99,4.69,4.9,5.57,5.27c0.11,0.05,0.26,0.01,0.39,0.02c0.34,0,0.68,0.02,1.02,0.01
	c0.1,0,0.22-0.03,0.31-0.08c0.68-0.36,1.06-0.93,1.13-1.7c0.01-0.16,0.1-0.24,0.22-0.21c0.11,0.02,0.15,0.1,0.14,0.2
	C8.74,3.8,8.68,4.09,8.62,4.39C8.75,4.41,8.88,4.5,9.07,4.41c0.46-0.22,0.94-0.42,1.44-0.53c0.07-0.01,0.13-0.02,0.2-0.03
	c0.28-0.03,0.46,0.1,0.52,0.37c0.08,0.32,0.06,0.64,0.04,0.96c-0.01,0.1-0.01,0.2-0.04,0.29c-0.07,0.19,0.01,0.3,0.13,0.44
	c0.27,0.3,0.46,0.65,0.59,1.04c0.04,0.13,0.12,0.21,0.25,0.24c0.14,0.04,0.28,0.09,0.42,0.14c0.3,0.11,0.46,0.34,0.46,0.65
	c0,0.26,0,0.52,0,0.79c0,0.33-0.17,0.56-0.48,0.67c-0.24,0.08-0.48,0.15-0.71,0.23c-0.08,0.03-0.16,0.08-0.2,0.15
	c-0.37,0.59-0.87,1.04-1.47,1.37c-0.07,0.04-0.1,0.08-0.12,0.16c-0.07,0.4-0.15,0.81-0.23,1.21c-0.05,0.23-0.21,0.36-0.45,0.36
	c-0.27,0-0.54,0-0.81,0c-0.22,0-0.38-0.13-0.43-0.35c-0.04-0.19-0.08-0.39-0.11-0.58c-0.01-0.09-0.05-0.1-0.12-0.09
	c-0.2,0.02-0.39,0.04-0.59,0.05c-0.19,0.01-0.39,0.01-0.58,0.01s-0.38-0.02-0.59-0.03c-0.03,0.16-0.06,0.32-0.09,0.48
	c-0.01,0.07-0.02,0.13-0.04,0.2c-0.06,0.2-0.21,0.32-0.42,0.32c-0.27,0-0.54,0-0.81,0c-0.24,0-0.41-0.14-0.46-0.38
	c-0.07-0.37-0.15-0.74-0.21-1.12c-0.05-0.11-0.09-0.16-0.16-0.2c-0.65-0.38-1.16-0.9-1.47-1.59C2.29,9.1,2.2,8.53,2.22,7.93
	c0-0.04,0-0.09-0.03-0.16C2.16,7.8,2.12,7.82,2.1,7.86c-0.19,0.29-0.43,0.51-0.77,0.6C1.17,8.5,1.01,8.54,0.88,8.38
	C0.88,8.33,0.88,8.29,0.88,8.24z M10.94,4.76c-0.01-0.13-0.02-0.26-0.04-0.39c-0.03-0.17-0.07-0.21-0.21-0.16
	c-0.07,0.02-0.14,0.02-0.21,0.04c-0.35,0.12-0.69,0.27-1.05,0.38C9.15,4.72,9.05,4.89,9.02,5.17C8.96,5.84,9.26,6.3,9.85,6.44
	c0.46,0.11,0.74-0.04,0.88-0.47C10.86,5.58,10.93,5.18,10.94,4.76z M1.85,7.39c-0.03-0.21-0.11-0.35-0.22-0.4
	C1.54,6.94,1.47,6.97,1.41,7.07c-0.05,0.09,0,0.14,0.07,0.17C1.59,7.29,1.71,7.33,1.85,7.39z"/>
<path class="st2" d="M9.96,7.83c0.01-0.29,0.28-0.55,0.58-0.55s0.58,0.26,0.58,0.56c0,0.11-0.06,0.18-0.15,0.2
	c-0.1,0.02-0.18-0.04-0.2-0.15c-0.02-0.12-0.06-0.22-0.21-0.24c-0.13-0.01-0.21,0.06-0.25,0.22C10.28,8,10.21,8.06,10.1,8.04
	C10.01,8.02,9.96,7.95,9.96,7.83z"/>
<path class="st2" d="M5.72,3.75c0-0.14,0.06-0.21,0.16-0.21S6.04,3.6,6.05,3.72c0.02,0.17,0.13,0.29,0.29,0.31
	c0.14,0.02,0.28-0.07,0.34-0.2C6.74,3.69,6.7,3.52,6.57,3.44C6.51,3.4,6.44,3.38,6.37,3.38C6.04,3.36,5.79,3.15,5.73,2.82
	c-0.05-0.28,0.12-0.59,0.41-0.7C6.2,2.1,6.22,2.06,6.21,2.01c0-0.04,0-0.07,0-0.11c0.01-0.09,0.08-0.15,0.16-0.15
	c0.09,0,0.17,0.06,0.16,0.14C6.51,2.06,6.6,2.11,6.73,2.18c0.19,0.11,0.29,0.29,0.3,0.51C7.04,2.8,6.97,2.88,6.88,2.88
	C6.78,2.89,6.72,2.83,6.7,2.71C6.68,2.52,6.54,2.39,6.36,2.4C6.19,2.41,6.05,2.56,6.05,2.73c0,0.18,0.15,0.31,0.34,0.32
	c0.33,0.01,0.58,0.23,0.63,0.56C7.07,3.9,6.9,4.2,6.61,4.31C6.56,4.33,6.53,4.35,6.54,4.42c0,0.04,0,0.07,0,0.11
	C6.53,4.62,6.46,4.69,6.37,4.68c-0.09,0-0.16-0.07-0.15-0.16c0.02-0.14-0.04-0.2-0.16-0.26C5.84,4.16,5.74,3.96,5.72,3.75z"/>
</svg>
