<?xml version="1.0" encoding="utf-8"?>
<!-- Generator: Adobe Illustrator 24.2.1, SVG Export Plug-In . SVG Version: 6.00 Build 0)  -->
<svg version="1.1" id="Capa_1" xmlns="http://www.w3.org/2000/svg" xmlns:xlink="http://www.w3.org/1999/xlink" x="0px" y="0px"
	 viewBox="0 0 14 14" style="enable-background:new 0 0 14 14;" xml:space="preserve">
<style type="text/css">
	.st0{fill:#128876;}
	.st1{fill:#FFFFFF;}
</style>
<path class="st0" d="M7,12.1c-2,0-4,0-5.9,0c-0.2,0-0.3-0.1-0.3-0.3c0-3.2,0-6.5,0-9.7c0-0.2,0.1-0.3,0.3-0.3c4,0,7.9,0,11.9,0
	c0.2,0,0.3,0.1,0.3,0.3c0,3.2,0,6.5,0,9.7c0,0.2-0.1,0.3-0.3,0.3C11,12.1,9,12.1,7,12.1z M1.2,2.3c0,2,0,4,0,6c3.9,0,7.7,0,11.6,0
	c0-2,0-4,0-6C8.9,2.3,5.1,2.3,1.2,2.3z M1.2,9.1c3.9,0,7.7,0,11.6,0c0-0.1,0-0.3,0-0.4c-3.9,0-7.7,0-11.6,0C1.2,8.9,1.2,9,1.2,9.1z
	 M1.2,10c3.9,0,7.7,0,11.6,0c0-0.1,0-0.3,0-0.4c-3.9,0-7.7,0-11.6,0C1.2,9.7,1.2,9.9,1.2,10z M12.8,10.4c-3.9,0-7.7,0-11.6,0
	c0,0.1,0,0.1,0,0.2s0,0.1,0,0.2c3.9,0,7.7,0,11.6,0C12.8,10.7,12.8,10.6,12.8,10.4z M1.2,11.7c3.9,0,7.7,0,11.6,0c0-0.1,0-0.3,0-0.4
	c-3.9,0-7.7,0-11.6,0C1.2,11.4,1.2,11.6,1.2,11.7z"/>
<path class="st1" d="M1.2,9.1c0-0.1,0-0.3,0-0.4c3.9,0,7.7,0,11.6,0c0,0.1,0,0.3,0,0.4C8.9,9.1,5.1,9.1,1.2,9.1z"/>
<path class="st1" d="M1.2,10c0-0.1,0-0.3,0-0.4c3.9,0,7.7,0,11.6,0c0,0.1,0,0.3,0,0.4C8.9,10,5.1,10,1.2,10z"/>
<path class="st1" d="M12.8,10.4c0,0.1,0,0.3,0,0.4c-3.9,0-7.7,0-11.6,0c0-0.1,0-0.1,0-0.2s0-0.1,0-0.2C5.1,10.4,8.9,10.4,12.8,10.4z
	"/>
<path class="st1" d="M1.2,11.7c0-0.1,0-0.3,0-0.4c3.9,0,7.7,0,11.6,0c0,0.1,0,0.3,0,0.4C8.9,11.7,5.1,11.7,1.2,11.7z"/>
<path class="st0" d="M7,2.7c1.4,0,2.8,0,4.2,0c0.2,0,0.3,0,0.3,0.3c0,0.3,0.3,0.6,0.6,0.6c0.2,0,0.3,0.1,0.3,0.3c0,1,0,1.9,0,2.9
	c0,0.2-0.1,0.3-0.3,0.3c-0.3,0-0.6,0.3-0.6,0.6c0,0.2-0.1,0.3-0.3,0.3c-2,0-3.9,0-5.9,0c-0.8,0-1.7,0-2.5,0c-0.2,0-0.3-0.1-0.3-0.3
	C2.5,7.3,2.2,7,1.9,7C1.7,7,1.6,6.9,1.6,6.7c0-1,0-1.9,0-2.9c0-0.2,0.1-0.3,0.3-0.3c0.3,0,0.6-0.3,0.6-0.6c0-0.2,0.1-0.3,0.3-0.3
	C4.2,2.7,5.6,2.7,7,2.7L7,2.7z M7,3.1c-1.2,0-2.2,1-2.2,2.1c0,1.2,1,2.2,2.2,2.2c1.2,0,2.1-1,2.1-2.2C9.1,4.1,8.2,3.1,7,3.1z
	 M11.9,6.6c0-0.9,0-1.7,0-2.6c-0.4-0.1-0.7-0.4-0.8-0.8c-0.9,0-1.8,0-2.6,0c0.7,0.5,1.1,1.2,1.1,2.1c0,0.9-0.4,1.6-1.1,2.1
	c0.9,0,1.8,0,2.6,0C11.2,7,11.5,6.7,11.9,6.6z M5.6,7.4C4.8,6.9,4.4,6.2,4.4,5.3s0.4-1.6,1.1-2.1c-0.9,0-1.8,0-2.7,0
	C2.8,3.6,2.5,3.9,2.1,4c0,0.9,0,1.7,0,2.6c0.5,0.2,0.7,0.3,0.8,0.8C3.8,7.4,4.7,7.4,5.6,7.4z"/>
<path class="st0" d="M6.1,6c0-0.2,0.1-0.3,0.2-0.3s0.2,0.1,0.2,0.2c0,0.2,0.2,0.4,0.4,0.4c0.2,0,0.4-0.1,0.4-0.3
	c0.1-0.2,0-0.4-0.1-0.5C7.2,5.5,7.1,5.5,7,5.5c-0.4,0-0.8-0.3-0.8-0.7C6.1,4.4,6.3,4,6.7,3.8c0.1,0,0.1-0.1,0.1-0.2c0,0,0-0.1,0-0.2
	c0-0.1,0.1-0.2,0.2-0.2c0.1,0,0.2,0.1,0.2,0.2c0,0.2,0.1,0.3,0.3,0.4c0.3,0.1,0.4,0.4,0.4,0.7c0,0.2-0.1,0.2-0.2,0.3
	c-0.1,0-0.2-0.1-0.2-0.2c0-0.3-0.2-0.4-0.4-0.4S6.6,4.4,6.6,4.7c0,0.2,0.2,0.4,0.4,0.4c0.4,0,0.8,0.3,0.8,0.7
	c0.1,0.4-0.2,0.8-0.5,0.9c-0.1,0-0.1,0.1-0.1,0.1c0,0.1,0,0.1,0,0.2c0,0.1-0.1,0.2-0.2,0.2C6.9,7.2,6.8,7.1,6.8,7
	c0-0.2-0.1-0.3-0.2-0.3C6.3,6.5,6.2,6.3,6.1,6z"/>
<image style="overflow:visible;" width="483" height="634" xlink:href="33340BD.jpg"  transform="matrix(3.346121e-02 0 0 3.346121e-02 23.875 -4.9454)">
</image>
</svg>
