<?xml version="1.0" encoding="utf-8"?>
<!-- Generator: Adobe Illustrator 24.1.3, SVG Export Plug-In . SVG Version: 6.00 Build 0)  -->
<svg version="1.1" id="Capa_1" xmlns="http://www.w3.org/2000/svg" xmlns:xlink="http://www.w3.org/1999/xlink" x="0px" y="0px"
	 viewBox="0 0 14 14" style="enable-background:new 0 0 14 14;" xml:space="preserve">
<style type="text/css">
	.st0{fill:#FFFFFF;}
</style>
<path d="M7,12.15c-1.98,0-3.96,0-5.94,0c-0.22,0-0.29-0.07-0.29-0.29c0-3.24,0-6.48,0-9.72c0-0.22,0.07-0.29,0.29-0.29
	c3.96,0,7.92,0,11.89,0c0.21,0,0.28,0.07,0.28,0.28c0,3.25,0,6.49,0,9.74c0,0.21-0.07,0.28-0.29,0.28
	C10.96,12.15,8.98,12.15,7,12.15z M1.21,2.28c0,2.01,0,4,0,5.99c3.87,0,7.72,0,11.57,0c0-2,0-4,0-5.99
	C8.93,2.28,5.08,2.28,1.21,2.28z M1.21,9.14c3.87,0,7.72,0,11.58,0c0-0.14,0-0.27,0-0.41c-3.86,0-7.72,0-11.58,0
	C1.21,8.86,1.21,9,1.21,9.14z M1.21,10c3.87,0,7.72,0,11.57,0c0-0.14,0-0.28,0-0.41c-3.86,0-7.72,0-11.57,0
	C1.21,9.72,1.21,9.85,1.21,10z M12.79,10.44c-3.87,0-7.72,0-11.59,0c0,0.08,0,0.14,0,0.21c0,0.07,0,0.14,0,0.2
	c3.88,0,7.73,0,11.59,0C12.79,10.71,12.79,10.58,12.79,10.44z M1.21,11.71c3.87,0,7.72,0,11.58,0c0-0.14,0-0.27,0-0.41
	c-3.86,0-7.72,0-11.58,0C1.21,11.44,1.21,11.57,1.21,11.71z"/>
<path class="st0" d="M1.21,2.28c3.86,0,7.71,0,11.57,0c0,2,0,3.99,0,5.99c-3.85,0-7.71,0-11.57,0C1.21,6.29,1.21,4.29,1.21,2.28z
	 M7,2.71C7,2.71,7,2.71,7,2.71c-1.41,0-2.82,0-4.22,0c-0.2,0-0.26,0.06-0.28,0.25c-0.03,0.32-0.27,0.57-0.6,0.6
	c-0.2,0.02-0.26,0.08-0.26,0.28c0,0.96,0,1.92,0,2.88c0,0.2,0.06,0.26,0.26,0.28c0.32,0.03,0.57,0.27,0.6,0.59
	c0.02,0.22,0.08,0.27,0.3,0.27c0.84,0,1.68,0,2.52,0c1.97,0,3.94,0,5.91,0c0.21,0,0.27-0.06,0.29-0.26c0.03-0.32,0.28-0.57,0.61-0.6
	c0.19-0.02,0.25-0.08,0.25-0.27c0-0.97,0-1.93,0-2.9c0-0.19-0.06-0.25-0.25-0.27c-0.32-0.03-0.57-0.27-0.6-0.58
	c-0.02-0.23-0.07-0.27-0.3-0.27C9.8,2.71,8.4,2.71,7,2.71z"/>
<path class="st0" d="M1.21,9.14c0-0.14,0-0.27,0-0.41c3.86,0,7.72,0,11.58,0c0,0.14,0,0.27,0,0.41C8.93,9.14,5.08,9.14,1.21,9.14z"
	/>
<path class="st0" d="M1.21,10c0-0.14,0-0.27,0-0.41c3.86,0,7.71,0,11.57,0c0,0.13,0,0.27,0,0.41C8.93,10,5.08,10,1.21,10z"/>
<path class="st0" d="M12.79,10.44c0,0.14,0,0.27,0,0.41c-3.86,0-7.71,0-11.59,0c0-0.06,0-0.13,0-0.2c0-0.07,0-0.13,0-0.21
	C5.07,10.44,8.92,10.44,12.79,10.44z"/>
<path class="st0" d="M1.21,11.71c0-0.14,0-0.27,0-0.41c3.86,0,7.72,0,11.58,0c0,0.14,0,0.27,0,0.41
	C8.93,11.71,5.08,11.71,1.21,11.71z"/>
<path d="M7,2.71c1.4,0,2.81,0,4.21,0c0.23,0,0.28,0.05,0.3,0.27c0.03,0.31,0.28,0.56,0.6,0.58c0.19,0.02,0.25,0.08,0.25,0.27
	c0,0.97,0,1.93,0,2.9c0,0.19-0.06,0.25-0.25,0.27c-0.33,0.03-0.57,0.27-0.61,0.6c-0.02,0.21-0.08,0.26-0.29,0.26
	c-1.97,0-3.94,0-5.91,0c-0.84,0-1.68,0-2.52,0c-0.22,0-0.27-0.05-0.3-0.27C2.46,7.27,2.21,7.03,1.89,7
	c-0.2-0.02-0.26-0.08-0.26-0.28c0-0.96,0-1.92,0-2.88c0-0.2,0.06-0.26,0.26-0.28c0.32-0.03,0.57-0.28,0.6-0.6
	c0.02-0.2,0.08-0.25,0.28-0.25C4.18,2.71,5.59,2.71,7,2.71C7,2.71,7,2.71,7,2.71z M7.01,3.14c-1.19,0-2.16,0.96-2.16,2.14
	c0,1.19,0.96,2.15,2.16,2.15c1.18,0,2.14-0.97,2.14-2.16C9.14,4.1,8.17,3.14,7.01,3.14z M11.93,6.59c0-0.87,0-1.74,0-2.61
	c-0.44-0.12-0.72-0.39-0.84-0.83c-0.88,0-1.75,0-2.65,0c0.73,0.54,1.12,1.24,1.13,2.13c0,0.9-0.4,1.6-1.13,2.14c0.9,0,1.78,0,2.65,0
	C11.21,6.98,11.49,6.7,11.93,6.59z M5.56,7.42C4.82,6.88,4.43,6.18,4.43,5.28c0-0.9,0.4-1.6,1.13-2.14c-0.9,0-1.78,0-2.65,0
	c-0.12,0.44-0.4,0.72-0.84,0.84c0,0.87,0,1.74,0,2.6c0.52,0.2,0.66,0.34,0.84,0.84C3.78,7.42,4.65,7.42,5.56,7.42z"/>
<path class="st0" d="M7.01,3.14c1.16,0,2.13,0.97,2.14,2.13c0,1.19-0.96,2.16-2.14,2.16c-1.19,0-2.16-0.96-2.16-2.15
	C4.85,4.1,5.82,3.14,7.01,3.14z M6.14,5.99C6.16,6.27,6.3,6.53,6.58,6.66c0.17,0.08,0.23,0.16,0.21,0.34
	c-0.01,0.12,0.09,0.2,0.2,0.21c0.12,0.01,0.21-0.08,0.22-0.2c0-0.05,0.01-0.1,0-0.15c-0.01-0.08,0.02-0.11,0.1-0.14
	c0.38-0.15,0.6-0.54,0.54-0.92c-0.07-0.42-0.4-0.72-0.83-0.73C6.76,5.06,6.58,4.88,6.57,4.65c0-0.23,0.18-0.42,0.4-0.44
	C7.21,4.2,7.4,4.37,7.43,4.63c0.02,0.15,0.1,0.23,0.23,0.23c0.13-0.01,0.21-0.11,0.2-0.25C7.84,4.31,7.72,4.07,7.46,3.93
	C7.3,3.83,7.17,3.76,7.21,3.54C7.22,3.43,7.12,3.36,7,3.35c-0.11,0-0.2,0.08-0.21,0.2c0,0.05,0,0.1,0,0.15
	c0.01,0.07-0.01,0.12-0.09,0.15C6.31,3.99,6.08,4.39,6.15,4.77c0.08,0.43,0.4,0.7,0.84,0.73c0.09,0,0.19,0.04,0.26,0.08
	c0.17,0.11,0.22,0.33,0.14,0.51C7.32,6.27,7.13,6.38,6.95,6.35C6.75,6.33,6.59,6.16,6.57,5.95C6.56,5.79,6.48,5.71,6.35,5.71
	C6.22,5.72,6.14,5.81,6.14,5.99z"/>
<path class="st0" d="M11.93,6.59c-0.44,0.12-0.72,0.39-0.84,0.84c-0.88,0-1.75,0-2.65,0c0.73-0.54,1.13-1.25,1.13-2.14
	c0-0.89-0.4-1.59-1.13-2.13c0.9,0,1.77,0,2.65,0c0.12,0.44,0.4,0.72,0.84,0.83C11.93,4.85,11.93,5.72,11.93,6.59z"/>
<path d="M6.14,5.99c0-0.18,0.08-0.28,0.21-0.28c0.13,0,0.21,0.08,0.22,0.23c0.02,0.22,0.17,0.38,0.38,0.41
	c0.18,0.02,0.37-0.09,0.44-0.26c0.08-0.18,0.02-0.4-0.14-0.51C7.17,5.54,7.08,5.51,6.99,5.5C6.55,5.48,6.23,5.2,6.15,4.77
	C6.08,4.39,6.31,3.99,6.69,3.84c0.08-0.03,0.1-0.07,0.09-0.15c0-0.05,0-0.1,0-0.15C6.8,3.43,6.89,3.35,7,3.35
	c0.12,0,0.22,0.08,0.2,0.18C7.17,3.76,7.3,3.83,7.46,3.93C7.72,4.07,7.84,4.31,7.86,4.6c0.01,0.15-0.07,0.24-0.2,0.25
	C7.53,4.86,7.44,4.77,7.43,4.63C7.4,4.37,7.21,4.2,6.98,4.21c-0.23,0.01-0.41,0.21-0.4,0.44c0,0.24,0.19,0.41,0.45,0.42
	C7.45,5.09,7.78,5.38,7.85,5.8c0.06,0.38-0.16,0.77-0.54,0.92c-0.08,0.03-0.11,0.06-0.1,0.14c0.01,0.05,0,0.1,0,0.15
	C7.2,7.13,7.11,7.22,6.99,7.21c-0.11,0-0.21-0.09-0.2-0.21c0.02-0.18-0.05-0.26-0.21-0.34C6.3,6.53,6.16,6.27,6.14,5.99z"/>
</svg>
