<svg width="512" height="512" viewBox="0 0 512 512" fill="none" xmlns="http://www.w3.org/2000/svg">
<path d="M128.067 328.365V344.686L119.906 340.001L120.057 323.681L128.067 328.365Z" fill="#212135"/>
<path d="M120.059 323.681L119.908 340.001L86.3594 359.496V343.175L120.059 323.681Z" fill="#30304C"/>
<path d="M121.268 327.005V343.477C121.268 343.477 121.117 343.476 121.117 343.325V326.854C121.117 326.854 121.268 326.853 121.268 327.005Z" fill="#202033"/>
<path d="M121.116 326.854V343.325H120.965V326.854C120.965 326.854 120.965 326.854 121.116 326.854Z" fill="#212135"/>
<path d="M120.966 326.854V343.325H120.814L120.966 326.854C120.814 326.854 120.814 326.854 120.966 326.854Z" fill="#232337"/>
<path d="M120.815 326.703V343.175H120.664L120.815 326.703C120.664 326.703 120.664 326.703 120.815 326.703Z" fill="#242439"/>
<path d="M120.663 326.703V343.175H120.512L120.663 326.703C120.512 326.703 120.512 326.703 120.663 326.703Z" fill="#25253B"/>
<path d="M120.512 326.703V343.175H120.361L120.512 326.703C120.512 326.703 120.361 326.703 120.512 326.703Z" fill="#26263D"/>
<path d="M120.36 326.703V343.175H120.209L120.36 326.703C120.36 326.703 120.209 326.703 120.36 326.703Z" fill="#28283F"/>
<path d="M120.21 326.703V343.175H120.059V326.703H120.21Z" fill="#292941"/>
<path d="M120.059 326.703V343.175H119.908V326.703H120.059Z" fill="#2A2A43"/>
<path d="M119.908 326.703V343.175C119.757 343.175 119.757 343.175 119.605 343.175V326.703C119.757 326.854 119.757 326.854 119.908 326.703Z" fill="#2B2B45"/>
<path d="M119.605 326.854V343.325C119.454 343.325 119.454 343.477 119.303 343.477V327.005C119.454 326.853 119.454 326.854 119.605 326.854Z" fill="#2D2D47"/>
<path d="M125.65 329.424V345.896L121.268 343.327V327.006L125.65 329.424Z" fill="#212135"/>
<path d="M133.208 336.978V353.45C133.208 351.334 130.79 348.916 125.652 346.045V329.573C130.639 332.444 133.208 334.711 133.208 336.978Z" fill="#202033"/>
<path d="M124.744 330.027L120.361 327.458V343.93L124.744 346.499C127.766 348.161 129.731 349.672 130.788 351.032C131.393 351.788 131.846 352.544 131.846 353.299V336.827C131.846 335.014 129.428 332.747 124.744 330.027Z" fill="#6DC2C4"/>
<path d="M119.305 327.006V343.327L88.7793 361.007V344.687L119.305 327.006Z" fill="#30304C"/>
<path d="M120.362 327.458V343.93L89.8359 361.611V345.139L120.362 327.458Z" fill="#E9DF67"/>
<path d="M88.7773 344.685V361.006L86.3594 359.495V343.174L88.7773 344.685Z" fill="#212135"/>
<path d="M89.3824 345.289C89.2313 345.289 89.0802 345.289 88.778 345.289C88.6268 345.289 88.4757 345.289 88.3246 345.289C88.1735 345.289 88.0224 345.138 87.8712 345.138L85.4534 343.778C85.1511 343.627 85 343.476 85 343.174V359.646C85 359.797 85.1511 360.099 85.4534 360.25L87.8712 361.61C87.8712 361.61 88.0224 361.61 88.0224 361.761H88.1735C88.1735 361.761 88.1735 361.761 88.3246 361.761H88.4757H88.6268H88.778C88.778 361.761 88.778 361.761 88.9291 361.761H89.0802H89.2313H89.3824C89.5335 361.761 89.5335 361.61 89.6847 361.61V345.138C89.6847 345.289 89.5335 345.289 89.3824 345.289Z" fill="#6DC2C4"/>
<path d="M108.573 338.943V355.415L104.795 370.225V353.753L108.573 338.943Z" fill="#27273E"/>
<path d="M110.84 343.929L110.689 360.401L107.969 372.037V355.565L110.84 343.929Z" fill="#27273E"/>
<path d="M107.968 355.565V372.037L104.795 370.224V353.752L107.968 355.565Z" fill="#212135"/>
<path d="M137.89 337.28V353.752V353.903C137.89 354.206 137.89 354.357 137.739 354.659C137.739 354.81 137.588 355.112 137.588 355.263C137.588 355.414 137.437 355.415 137.437 355.566C137.437 355.717 137.286 355.868 137.286 355.868C137.286 355.868 137.286 355.868 137.286 356.019C137.135 356.17 137.135 356.321 136.983 356.472C136.983 356.623 136.832 356.623 136.832 356.775C136.832 356.775 136.832 356.775 136.832 356.926L136.681 357.077C136.53 357.228 136.379 357.53 136.077 357.681L135.926 357.832C135.775 357.984 135.472 358.286 135.17 358.437L135.019 358.588C134.717 358.739 134.566 359.041 134.263 359.192C134.263 359.192 134.112 359.192 134.112 359.344C133.81 359.495 133.508 359.646 133.206 359.948C133.054 359.948 133.054 360.099 132.903 360.099C132.299 360.401 131.694 360.704 131.09 361.006C130.939 361.006 130.939 361.157 130.788 361.157C130.183 361.459 129.579 361.61 128.974 361.913H128.823C128.672 361.913 128.672 361.913 128.521 362.064C128.219 362.064 128.067 362.215 127.765 362.215C127.614 362.215 127.312 362.366 127.161 362.366C126.859 362.366 126.707 362.517 126.405 362.517C126.254 362.517 126.254 362.517 126.103 362.517H125.952C125.498 362.517 125.196 362.668 124.743 362.668C124.592 362.668 124.592 362.668 124.441 362.668C124.441 362.668 124.441 362.668 124.29 362.668C123.987 362.668 123.534 362.668 123.232 362.668C123.081 362.668 123.081 362.668 122.929 362.668C122.627 362.668 122.476 362.668 122.174 362.668C122.023 362.668 121.721 362.668 121.569 362.668C121.418 362.668 121.116 362.668 120.965 362.668C120.663 362.668 120.512 362.668 120.209 362.668C119.756 362.668 119.303 362.517 118.849 362.517C118.396 362.517 117.943 362.366 117.489 362.215C117.489 362.215 117.489 362.215 117.338 362.215C117.187 362.215 117.187 362.215 117.036 362.215C116.583 362.064 116.129 362.064 115.676 361.913C115.525 361.913 115.525 361.913 115.374 361.913C115.222 361.913 115.222 361.913 115.071 361.761C114.92 361.761 114.618 361.61 114.467 361.61C114.165 361.61 114.014 361.459 113.711 361.308C113.56 361.308 113.258 361.157 113.107 361.006C112.956 361.006 112.956 361.006 112.805 360.855C112.502 360.704 112.351 360.704 112.049 360.552H111.898L109.178 372.189V355.717L111.293 346.801V343.93H112.049C112.351 344.081 112.805 344.232 113.107 344.383C113.258 344.534 113.56 344.534 113.711 344.685C114.014 344.836 114.165 344.836 114.467 344.987C114.618 344.987 114.92 345.138 115.071 345.138C115.222 345.138 115.525 345.29 115.676 345.29C116.129 345.441 116.583 345.592 117.036 345.592C117.187 345.592 117.338 345.592 117.338 345.743C117.791 345.894 118.245 345.894 118.698 346.045C119.152 346.045 119.605 346.196 120.058 346.196C120.36 346.196 120.512 346.196 120.814 346.196C120.965 346.196 121.267 346.196 121.418 346.196C121.569 346.196 121.872 346.196 122.023 346.196C122.325 346.196 122.476 346.196 122.778 346.196C122.929 346.196 122.929 346.196 123.081 346.196C123.383 346.196 123.836 346.196 124.138 346.045C124.29 346.045 124.29 346.045 124.441 346.045C124.894 346.045 125.196 345.894 125.65 345.894C125.801 345.894 125.952 345.894 126.254 345.743C126.556 345.743 126.707 345.592 127.01 345.592C127.161 345.592 127.463 345.441 127.614 345.441C127.916 345.441 128.067 345.29 128.37 345.29C128.521 345.29 128.672 345.138 128.823 345.138C129.428 344.987 130.032 344.685 130.637 344.383C130.788 344.383 130.788 344.232 130.939 344.232C131.543 343.93 132.148 343.627 132.752 343.325C133.206 343.023 133.508 342.872 133.961 342.569C133.961 342.569 134.112 342.569 134.112 342.418C134.414 342.267 134.717 341.965 134.868 341.814L135.019 341.663C135.321 341.512 135.623 341.209 135.775 341.058L135.926 340.907C136.077 340.756 136.228 340.454 136.53 340.303L136.681 340.152C136.832 340 136.832 339.849 136.983 339.849C137.135 339.698 137.135 339.547 137.286 339.396C137.437 339.245 137.437 339.094 137.588 338.943C137.588 338.792 137.739 338.791 137.739 338.64C137.89 338.338 137.89 338.187 137.89 337.885C137.89 337.734 137.89 337.583 137.89 337.28Z" fill="#E9DF67"/>
<path d="M132.904 343.477C126.86 346.952 119.455 347.254 112.201 344.081H111.446H112.05L109.179 355.717C109.179 356.019 108.726 356.322 108.272 356.322C107.819 356.473 107.214 356.322 106.912 356.17L103.89 354.357C103.588 354.206 103.436 353.904 103.436 353.753L107.063 338.943C107.214 338.641 107.517 338.338 107.97 338.338C108.423 338.187 109.028 338.338 109.33 338.49C118.246 343.476 122.78 344.081 128.371 340.908C133.66 337.885 132.602 334.863 124.593 330.178L120.211 327.609L89.8358 345.139C89.2313 345.441 88.4757 345.441 87.8712 345.139L85.4534 343.779C84.8489 343.476 84.8489 343.023 85.4534 342.721L119.002 323.227C119.606 322.924 120.362 322.924 120.966 323.227L129.126 327.911C139.554 333.805 140.763 338.792 132.904 343.477Z" fill="#3E3E63"/>
<path d="M109.18 355.868L109.029 356.019H108.878C108.878 356.019 108.727 356.019 108.727 356.17C108.576 356.17 108.576 356.17 108.425 356.321C108.274 356.321 108.123 356.321 108.123 356.321C107.972 356.321 107.82 356.321 107.82 356.321C107.669 356.321 107.669 356.321 107.518 356.321C107.367 356.321 107.367 356.321 107.216 356.17L104.194 354.356C103.891 354.205 103.74 354.054 103.74 353.752V370.224C103.74 370.375 103.891 370.677 104.194 370.828L107.216 372.642C107.216 372.642 107.367 372.642 107.367 372.793C107.367 372.793 107.367 372.793 107.518 372.793H107.669H107.82H107.972H108.123C108.123 372.793 108.123 372.793 108.274 372.793H108.425H108.576C108.727 372.793 108.727 372.793 108.878 372.793C108.878 372.793 109.029 372.793 109.029 372.642C109.029 372.642 109.029 372.642 109.18 372.642C109.18 372.642 109.18 372.642 109.332 372.491C109.332 372.491 109.332 372.491 109.332 372.339V355.868C109.332 355.716 109.18 355.868 109.18 355.868Z" fill="#6DC2C4"/>
<path d="M229.561 92.6323L283.038 66.983L256.02 147.095L229.561 92.6323Z" stroke="#E9DF67" stroke-width="3.82647"/>
<rect x="385.32" y="344.502" width="7.81159" height="40.2152" transform="rotate(-25.9351 385.32 344.502)" fill="#6DC2C4"/>
<rect x="414.002" y="348.569" width="7.81159" height="40.2152" transform="rotate(64.0649 414.002 348.569)" fill="#6DC2C4"/>
</svg>
