<svg width="1024" height="1024" viewBox="0 0 1024 1024" fill="none" xmlns="http://www.w3.org/2000/svg">
<path d="M73.5741 655.104L88.2588 672.328L80.6844 693.657L66 676.433L73.5741 655.104Z" fill="#E43C5A"/>
<path d="M110.518 668.223L88.2598 672.328L80.6856 693.657L102.944 689.552L110.518 668.223Z" fill="#E9DF67"/>
<path d="M95.8326 651L110.518 668.223L88.2586 672.329L73.5742 655.105L95.8326 651Z" fill="#6DC2C4"/>
<path d="M815.216 767.182L805.557 761.53C806.687 760.914 807.715 760.092 808.742 759.064L818.402 764.716C817.374 765.743 816.346 766.566 815.216 767.182Z" fill="#32324F"/>
<path d="M818.402 764.716L808.742 759.064C809.05 758.756 809.462 758.345 809.77 758.037L819.429 763.689C819.018 764.1 818.71 764.408 818.402 764.716Z" fill="#30304D"/>
<path d="M819.429 763.689L809.77 758.037C809.975 757.729 810.283 757.524 810.489 757.215L820.148 762.867C819.84 763.176 819.635 763.381 819.429 763.689Z" fill="#2F2F4B"/>
<path d="M820.046 762.867L810.387 757.215C810.592 757.01 810.798 756.701 811.003 756.393L820.663 762.045C820.457 762.353 820.252 762.559 820.046 762.867Z" fill="#2E2E49"/>
<path d="M820.661 762.044L811.002 756.392C811.207 756.186 811.31 755.878 811.516 755.672L821.175 761.324C820.97 761.633 820.764 761.838 820.661 762.044Z" fill="#2D2D47"/>
<path d="M821.175 761.326L811.516 755.674C811.618 755.468 811.824 755.16 811.927 754.955L821.586 760.606C821.483 760.915 821.278 761.12 821.175 761.326Z" fill="#2B2B45"/>
<path d="M821.587 760.605L811.928 754.953C812.03 754.748 812.236 754.439 812.339 754.234L821.998 759.886C821.793 760.194 821.69 760.4 821.587 760.605Z" fill="#2A2A43"/>
<path d="M821.997 759.885L812.338 754.234C812.441 754.028 812.543 753.72 812.749 753.514L822.408 759.166C822.203 759.474 822.1 759.68 821.997 759.885Z" fill="#292941"/>
<path d="M822.308 759.167L812.648 753.515C812.751 753.309 812.854 753.001 812.957 752.795L822.616 758.447C822.513 758.756 822.411 758.961 822.308 759.167Z" fill="#28283F"/>
<path d="M822.718 758.449L813.059 752.797C813.161 752.592 813.264 752.283 813.367 752.078L823.026 757.73C822.924 757.935 822.821 758.243 822.718 758.449Z" fill="#26263D"/>
<path d="M823.025 757.728L813.365 752.077C813.468 751.768 813.571 751.563 813.674 751.254L823.333 756.906C823.23 757.112 823.127 757.42 823.025 757.728Z" fill="#25253B"/>
<path d="M823.232 756.906L813.572 751.255C813.675 750.946 813.778 750.638 813.881 750.33L823.54 755.981C823.437 756.29 823.334 756.598 823.232 756.906Z" fill="#242439"/>
<path d="M823.54 755.981L813.881 750.329C813.984 750.021 814.086 749.61 814.086 749.301L823.746 754.953C823.746 755.364 823.643 755.672 823.54 755.981Z" fill="#232337"/>
<path d="M823.745 754.953L814.086 749.301C814.189 748.89 814.291 748.479 814.291 748.068L823.951 753.72C823.951 754.131 823.848 754.542 823.745 754.953Z" fill="#212135"/>
<path d="M824.053 753.721L814.394 748.07C814.497 747.453 814.497 746.836 814.497 746.22C814.497 743.445 813.572 741.493 811.928 740.568L821.587 746.22C823.129 747.145 824.156 749.097 824.156 751.872C824.156 752.488 824.053 753.105 824.053 753.721Z" fill="#202033"/>
<path d="M814.187 765.95L804.527 760.298C804.836 760.195 805.144 759.99 805.555 759.784C806.48 759.27 807.302 758.654 808.021 757.832L817.681 763.483C816.859 764.306 816.036 764.922 815.214 765.436C814.803 765.641 814.495 765.744 814.187 765.95Z" fill="#32324F"/>
<path d="M817.681 763.482L808.021 757.83C808.33 757.522 808.535 757.317 808.741 757.008L818.4 762.66C818.195 762.968 817.886 763.277 817.681 763.482Z" fill="#30304D"/>
<path d="M818.4 762.662L808.74 757.01C808.946 756.804 809.151 756.599 809.254 756.291L818.914 761.942C818.811 762.251 818.605 762.456 818.4 762.662Z" fill="#2F2F4B"/>
<path d="M819.017 762.043L809.357 756.392C809.563 756.186 809.666 755.98 809.768 755.775L819.428 761.427C819.325 761.632 819.12 761.838 819.017 762.043Z" fill="#2E2E49"/>
<path d="M819.427 761.428L809.768 755.776C809.87 755.571 810.076 755.365 810.179 755.16L819.838 760.812C819.735 761.017 819.633 761.223 819.427 761.428Z" fill="#2D2D47"/>
<path d="M819.839 760.811L810.18 755.159C810.282 754.954 810.385 754.748 810.488 754.543L820.147 760.194C820.147 760.4 819.942 760.605 819.839 760.811Z" fill="#2B2B45"/>
<path d="M820.249 760.194L810.59 754.542C810.693 754.439 810.693 754.337 810.795 754.234L820.455 759.886C820.352 759.989 820.249 760.091 820.249 760.194Z" fill="#2A2A43"/>
<path d="M820.355 759.888L810.695 754.237C810.695 754.134 810.798 754.031 810.798 753.928L820.458 759.58C820.458 759.683 820.458 759.786 820.355 759.888Z" fill="#2A2A43"/>
<path d="M820.562 759.579L810.902 753.928C811.005 753.722 811.108 753.517 811.211 753.311L820.87 758.963C820.767 759.168 820.665 759.374 820.562 759.579Z" fill="#292941"/>
<path d="M820.868 758.963L811.209 753.311C811.312 753.106 811.415 752.9 811.517 752.695L821.177 758.347C821.074 758.552 820.971 758.758 820.868 758.963Z" fill="#28283F"/>
<path d="M821.179 758.346L811.52 752.694C811.622 752.489 811.725 752.283 811.828 752.078L821.487 757.73C821.282 757.935 821.179 758.141 821.179 758.346Z" fill="#26263D"/>
<path d="M821.384 757.73L811.725 752.078C811.827 751.873 811.93 751.667 811.93 751.359L821.59 757.011C821.59 757.319 821.487 757.525 821.384 757.73Z" fill="#25253B"/>
<path d="M821.589 757.113L811.93 751.461C812.032 751.256 812.135 750.947 812.135 750.742L821.795 756.394C821.795 756.599 821.692 756.805 821.589 757.113Z" fill="#242439"/>
<path d="M821.896 756.29L812.236 750.638C812.339 750.33 812.339 750.022 812.442 749.816L822.101 755.468C821.999 755.776 821.896 756.084 821.896 756.29Z" fill="#232337"/>
<path d="M822.103 755.47L812.443 749.818C812.546 749.407 812.546 749.099 812.649 748.688L822.308 754.34C822.206 754.751 822.103 755.059 822.103 755.47Z" fill="#212135"/>
<path d="M822.308 754.338L812.649 748.687C812.752 747.967 812.752 747.248 812.752 746.529C812.649 744.679 811.827 743.24 810.594 742.521L820.253 748.173C821.486 748.892 822.308 750.331 822.411 752.181C822.411 752.9 822.308 753.619 822.308 754.338Z" fill="#202033"/>
<path d="M809.564 767.903L799.904 762.252C800.007 762.354 800.11 762.354 800.315 762.457L809.975 768.109C809.769 768.006 809.667 768.006 809.564 767.903Z" fill="#28283F"/>
<path d="M809.874 768.108L800.215 762.457C800.318 762.559 800.42 762.559 800.626 762.559L810.285 768.211C810.183 768.211 809.977 768.108 809.874 768.108Z" fill="#292941"/>
<path d="M810.284 768.211L800.625 762.559C800.728 762.559 800.933 762.662 801.036 762.662L810.696 768.314C810.49 768.314 810.387 768.314 810.284 768.211Z" fill="#2A2A43"/>
<path d="M810.695 768.314L801.035 762.662C801.138 762.662 801.343 762.662 801.446 762.764L811.106 768.416C811.003 768.416 810.797 768.314 810.695 768.314Z" fill="#2B2B45"/>
<path d="M811.107 768.418L801.447 762.766C801.653 762.766 801.756 762.766 801.961 762.766L811.621 768.418C811.415 768.418 811.312 768.418 811.107 768.418Z" fill="#2D2D47"/>
<path d="M811.62 768.416L801.961 762.764C802.166 762.764 802.372 762.764 802.577 762.662L812.237 768.314C812.031 768.314 811.826 768.416 811.62 768.416Z" fill="#2E2E49"/>
<path d="M812.238 768.314L802.578 762.662C802.784 762.662 803.092 762.559 803.297 762.559L812.957 768.211C812.649 768.211 812.443 768.314 812.238 768.314Z" fill="#2F2F4B"/>
<path d="M812.956 768.212L803.297 762.56C803.605 762.457 803.913 762.354 804.324 762.252L813.984 767.903C813.573 768.006 813.265 768.109 812.956 768.212Z" fill="#30304D"/>
<path d="M813.984 767.801L804.324 762.149C804.735 761.944 805.146 761.738 805.66 761.533L815.32 767.185C814.806 767.39 814.395 767.698 813.984 767.801Z" fill="#32324F"/>
<path d="M809.462 767.903L799.802 762.251C799.7 762.148 799.597 762.148 799.494 762.045L809.154 767.697C809.359 767.8 809.359 767.8 809.462 767.903Z" fill="#202033"/>
<path d="M809.052 768.622L799.392 762.97C799.29 762.867 799.187 762.867 799.084 762.764L808.743 768.416C808.846 768.519 808.949 768.622 809.052 768.622Z" fill="#202033"/>
<path d="M809.462 767.903L799.802 762.251C799.7 762.148 799.597 762.148 799.494 762.045L809.154 767.697C809.359 767.8 809.359 767.8 809.462 767.903Z" fill="#202033"/>
<path d="M822.308 754.338L812.649 748.687C812.752 747.967 812.752 747.248 812.752 746.529C812.649 744.679 811.827 743.24 810.594 742.521L820.253 748.173C821.486 748.892 822.308 750.331 822.411 752.181C822.411 752.9 822.308 753.619 822.308 754.338Z" fill="#202033"/>
<path d="M821.69 753.516C821.69 753.207 821.69 752.899 821.69 752.591C821.587 750.947 820.868 749.611 819.738 748.994L810.078 743.342C811.208 743.959 812.031 745.295 812.031 746.939C812.031 747.247 812.031 747.556 812.031 747.864C812.031 747.967 812.031 748.069 812.031 748.172C812.031 748.378 812.031 748.583 811.928 748.789C811.928 748.891 811.928 748.994 811.825 749.2C811.825 749.405 811.722 749.611 811.722 749.816C811.722 749.919 811.619 750.125 811.619 750.227C811.619 750.33 811.517 750.433 811.517 750.536C811.414 750.741 811.414 750.947 811.311 751.152C811.311 751.255 811.311 751.255 811.208 751.358C811.106 751.666 811.003 751.871 810.9 752.18C810.9 752.283 810.9 752.282 810.797 752.385C810.695 752.591 810.592 752.899 810.489 753.105V753.207C810.386 753.516 810.181 753.721 810.078 754.029C809.975 754.338 809.77 754.543 809.667 754.749C809.667 754.749 809.667 754.749 809.667 754.852C809.564 755.057 809.359 755.263 809.256 755.571C809.256 755.674 809.153 755.674 809.153 755.776C809.05 755.879 808.948 756.085 808.845 756.187C808.742 756.29 808.742 756.393 808.639 756.496C808.537 756.598 808.434 756.701 808.331 756.804C808.228 756.907 808.023 757.112 807.92 757.215C807.817 757.318 807.715 757.42 807.612 757.523C807.509 757.626 807.406 757.626 807.406 757.729C807.304 757.832 807.201 757.934 806.995 758.037C806.892 758.14 806.79 758.14 806.79 758.243C806.687 758.345 806.481 758.448 806.379 758.551C806.276 758.551 806.276 758.654 806.173 758.654C805.968 758.756 805.762 758.962 805.557 759.065C805.351 759.167 805.146 759.27 804.94 759.373C804.94 759.373 804.837 759.373 804.837 759.476C804.735 759.476 804.632 759.578 804.529 759.578C804.323 759.681 804.221 759.681 804.118 759.784C804.015 759.784 803.912 759.887 803.81 759.887C803.707 759.887 803.604 759.887 803.501 759.99C803.399 759.99 803.296 759.989 803.193 760.092C803.09 760.092 803.09 760.092 802.988 760.092C802.885 760.092 802.679 760.092 802.577 760.092C802.577 760.092 802.577 760.092 802.474 760.092C802.268 760.092 802.166 760.092 801.96 759.99H801.857C801.754 759.99 801.652 759.887 801.549 759.887H801.446C801.343 759.784 801.138 759.784 801.035 759.681L810.695 765.333C810.797 765.436 810.9 765.436 811.003 765.539C811.003 765.539 811.003 765.539 811.106 765.539H811.208C811.311 765.539 811.311 765.539 811.414 765.641C811.517 765.641 811.517 765.641 811.619 765.641H811.722C811.722 765.641 811.722 765.641 811.825 765.641C811.928 765.641 812.133 765.641 812.236 765.641C812.236 765.641 812.236 765.641 812.339 765.641C812.442 765.641 812.544 765.641 812.647 765.641H812.75C812.853 765.641 812.853 765.641 812.955 765.641C813.058 765.641 813.058 765.641 813.161 765.641C813.161 765.641 813.264 765.641 813.366 765.641C813.469 765.641 813.572 765.641 813.675 765.539H813.777H813.88C813.983 765.539 814.188 765.436 814.291 765.333C814.394 765.333 814.394 765.333 814.497 765.23C814.497 765.23 814.6 765.23 814.702 765.128C814.702 765.128 814.805 765.128 814.805 765.025C815.011 764.922 815.216 764.819 815.422 764.716C815.627 764.614 815.833 764.408 816.038 764.305C816.141 764.305 816.141 764.203 816.244 764.203C816.346 764.1 816.552 763.997 816.655 763.894C816.757 763.792 816.86 763.792 816.86 763.689C816.963 763.586 817.066 763.483 817.271 763.381C817.374 763.278 817.477 763.278 817.477 763.175C817.58 763.072 817.58 763.072 817.682 762.97L817.785 762.867C817.888 762.764 818.093 762.559 818.196 762.456C818.196 762.353 818.299 762.353 818.402 762.25L818.504 762.147C818.607 762.045 818.607 761.942 818.71 761.839C818.813 761.736 818.813 761.736 818.915 761.634C819.018 761.531 819.018 761.428 819.121 761.428C819.121 761.325 819.224 761.325 819.224 761.223L819.326 761.12C819.429 760.914 819.532 760.812 819.738 760.606C819.738 760.606 819.738 760.606 819.738 760.503C819.84 760.401 819.943 760.195 820.046 760.092C820.149 759.989 820.149 759.887 820.251 759.784C820.251 759.681 820.354 759.578 820.354 759.578C820.457 759.373 820.56 759.167 820.662 759.065C820.662 759.065 820.662 759.065 820.662 758.962C820.662 758.962 820.662 758.859 820.765 758.859C820.868 758.756 820.868 758.551 820.971 758.448C820.971 758.345 821.073 758.243 821.073 758.14C821.073 758.037 821.073 758.037 821.176 757.934V757.832C821.279 757.626 821.279 757.421 821.382 757.215C821.382 757.215 821.382 757.215 821.382 757.112C821.382 757.009 821.382 757.009 821.484 756.907C821.484 756.804 821.587 756.598 821.587 756.496C821.587 756.393 821.587 756.393 821.587 756.29C821.587 756.187 821.69 756.085 821.69 755.982C821.69 755.879 821.69 755.776 821.793 755.674C821.793 755.571 821.793 755.571 821.793 755.468C821.793 755.263 821.895 755.057 821.895 754.852C821.895 754.749 821.895 754.646 821.895 754.646V754.543C821.895 754.338 821.895 754.132 821.998 753.927C821.69 753.721 821.69 753.618 821.69 753.516Z" fill="#E9DF67"/>
<path d="M808.023 770.881L798.363 765.229L798.466 763.277L808.023 768.929V770.881Z" fill="#212135"/>
<path d="M806.38 771.807L796.721 766.155L798.365 765.23L808.024 770.882L806.38 771.807Z" fill="#353555"/>
<path d="M808.023 768.929L798.363 763.277V763.174L808.023 768.826C808.125 768.826 808.023 768.826 808.023 768.929Z" fill="#202033"/>
<path d="M808.124 768.726L798.465 763.074V762.971L808.124 768.726Z" fill="#212135"/>
<path d="M808.124 768.621L798.465 762.97C798.465 762.97 798.465 762.97 798.465 762.867L808.124 768.621Z" fill="#232337"/>
<path d="M808.124 768.621L798.465 762.97C798.465 762.97 798.465 762.97 798.465 762.867L808.124 768.621C808.124 768.519 808.124 768.519 808.124 768.621Z" fill="#242439"/>
<path d="M808.124 768.519L798.465 762.867C798.465 762.867 798.465 762.867 798.465 762.764L808.124 768.519Z" fill="#25253B"/>
<path d="M808.124 768.416L798.465 762.765C798.465 762.765 798.465 762.764 798.465 762.662L808.124 768.416Z" fill="#26263D"/>
<path d="M808.228 768.416L798.568 762.765C798.568 762.765 798.568 762.764 798.568 762.662L808.228 768.416Z" fill="#28283F"/>
<path d="M808.228 768.314L798.568 762.662C798.568 762.662 798.568 762.662 798.568 762.559L808.228 768.314Z" fill="#292941"/>
<path d="M808.228 768.314L798.568 762.662C798.568 762.662 798.568 762.662 798.568 762.559L808.228 768.314Z" fill="#2A2A43"/>
<path d="M808.228 768.211L798.568 762.559C798.568 762.559 798.568 762.559 798.568 762.457L808.228 768.211Z" fill="#2B2B45"/>
<path d="M808.331 768.211L798.672 762.559C798.672 762.559 798.672 762.559 798.672 762.457L808.331 768.211Z" fill="#2D2D47"/>
<path d="M808.331 768.109L798.672 762.457C798.672 762.457 798.672 762.457 798.672 762.354L808.331 768.109Z" fill="#2E2E49"/>
<path d="M808.331 768.109L798.672 762.457C798.672 762.457 798.672 762.457 798.775 762.354L808.331 768.109C808.434 768.006 808.434 768.006 808.331 768.109Z" fill="#2F2F4B"/>
<path d="M808.435 768.006L798.775 762.354C798.775 762.354 798.775 762.354 798.878 762.252L808.435 768.006C808.538 767.903 808.538 767.903 808.435 768.006Z" fill="#30304D"/>
<path d="M808.536 767.902L798.877 762.25C798.98 762.147 798.98 762.147 799.082 762.045H799.185L808.845 767.696H808.742C808.639 767.799 808.536 767.799 808.536 767.902Z" fill="#32324F"/>
<path d="M808.845 767.696L799.186 762.045H799.288L808.845 767.696Z" fill="#30304D"/>
<path d="M808.845 767.696L799.186 762.045C799.186 762.045 799.186 762.045 799.288 762.045L808.845 767.696C808.948 767.696 808.948 767.696 808.845 767.696Z" fill="#2F2F4B"/>
<path d="M810.077 765.951L800.418 760.299C799.082 759.477 798.26 757.833 798.26 755.469C798.26 754.956 798.26 754.545 798.363 754.031L808.022 759.683C807.919 760.196 807.919 760.607 807.919 761.121C807.919 763.485 808.741 765.129 810.077 765.951Z" fill="#202033"/>
<path d="M808.021 759.684L798.361 754.032C798.361 753.724 798.464 753.313 798.567 753.004L808.226 758.656C808.124 759.067 808.021 759.376 808.021 759.684Z" fill="#212135"/>
<path d="M808.124 758.656L798.465 753.004C798.568 752.696 798.568 752.49 798.67 752.182L808.33 757.834C808.33 758.142 808.227 758.451 808.124 758.656Z" fill="#232337"/>
<path d="M808.331 757.833L798.672 752.181C798.775 751.975 798.775 751.667 798.877 751.461L808.537 757.113C808.537 757.319 808.434 757.627 808.331 757.833Z" fill="#242439"/>
<path d="M808.638 757.113L798.979 751.461C799.081 751.256 799.184 751.05 799.184 750.742L808.844 756.394C808.741 756.702 808.638 756.907 808.638 757.113Z" fill="#25253B"/>
<path d="M808.845 756.395L799.186 750.743C799.288 750.538 799.391 750.332 799.494 750.127L809.153 755.778C809.051 755.984 808.948 756.189 808.845 756.395Z" fill="#26263D"/>
<path d="M809.05 755.777L799.391 750.125C799.493 749.919 799.596 749.714 799.699 749.508L809.358 755.16C809.256 755.366 809.153 755.571 809.05 755.777Z" fill="#28283F"/>
<path d="M809.359 755.162L799.699 749.51C799.802 749.304 799.905 749.099 800.007 748.893L809.667 754.545C809.564 754.75 809.461 754.956 809.359 755.162Z" fill="#292941"/>
<path d="M809.667 754.543L800.008 748.892C800.111 748.686 800.213 748.48 800.316 748.275L809.976 753.927C809.873 754.235 809.77 754.441 809.667 754.543Z" fill="#2A2A43"/>
<path d="M809.974 754.031L800.314 748.379C800.417 748.173 800.52 748.071 800.623 747.865L800.726 747.762L810.385 753.414L810.282 753.517C810.179 753.722 810.077 753.825 809.974 754.031Z" fill="#2B2B45"/>
<path d="M810.386 753.413L800.727 747.762C800.829 747.556 801.035 747.351 801.138 747.145L810.797 752.797C810.694 753.002 810.489 753.208 810.386 753.413Z" fill="#2D2D47"/>
<path d="M810.796 752.797L801.137 747.145C801.342 746.94 801.445 746.734 801.651 746.529L811.31 752.181C811.104 752.283 810.899 752.592 810.796 752.797Z" fill="#2E2E49"/>
<path d="M811.31 752.078L801.65 746.426C801.856 746.22 802.061 745.912 802.267 745.707L811.926 751.358C811.618 751.667 811.413 751.872 811.31 752.078Z" fill="#2F2F4B"/>
<path d="M811.824 751.462L802.164 745.81C802.37 745.502 802.678 745.193 802.986 744.988L812.646 750.64C812.337 750.845 812.132 751.153 811.824 751.462Z" fill="#30304D"/>
<path d="M812.646 750.538L802.986 744.886C803.808 744.064 804.63 743.447 805.453 742.933C805.761 742.728 806.172 742.522 806.48 742.42H806.583L816.242 748.071H816.14C815.831 748.174 815.42 748.38 815.112 748.585C814.29 749.202 813.468 749.818 812.646 750.538Z" fill="#32324F"/>
<path d="M816.243 748.071L806.584 742.419C806.79 742.316 807.098 742.213 807.303 742.213L816.963 747.865C816.654 747.968 816.449 747.968 816.243 748.071Z" fill="#30304D"/>
<path d="M816.962 747.866L807.303 742.214C807.508 742.111 807.714 742.111 807.919 742.111L817.579 747.763C817.27 747.763 817.168 747.763 816.962 747.866Z" fill="#2F2F4B"/>
<path d="M817.476 747.763L807.816 742.111C808.022 742.111 808.125 742.111 808.33 742.111L817.99 747.763C817.784 747.66 817.681 747.763 817.476 747.763Z" fill="#2E2E49"/>
<path d="M817.99 747.66L808.33 742.008C808.536 742.008 808.638 742.008 808.844 742.008L818.503 747.66C818.298 747.66 818.195 747.66 817.99 747.66Z" fill="#2D2D47"/>
<path d="M818.503 747.66L808.844 742.008C808.947 742.008 809.152 742.008 809.255 742.111L818.914 747.763C818.709 747.763 818.606 747.66 818.503 747.66Z" fill="#2B2B45"/>
<path d="M818.915 747.763L809.256 742.111C809.359 742.111 809.564 742.214 809.667 742.214L819.326 747.866C819.224 747.763 819.018 747.763 818.915 747.763Z" fill="#2A2A43"/>
<path d="M819.325 747.865L809.666 742.213C809.769 742.213 809.974 742.316 810.077 742.316L819.737 747.968C819.634 747.968 819.428 747.865 819.325 747.865Z" fill="#292941"/>
<path d="M819.738 747.966L810.078 742.314C810.181 742.417 810.386 742.417 810.489 742.52L820.149 748.171C820.046 748.069 819.84 748.069 819.738 747.966Z" fill="#28283F"/>
<path d="M815.216 746.836L805.557 741.185C805.968 740.876 806.481 740.671 806.893 740.568L816.552 746.22C816.141 746.323 815.627 746.528 815.216 746.836Z" fill="#32324F"/>
<path d="M816.552 746.219L806.893 740.567C807.304 740.464 807.612 740.259 807.92 740.156L817.58 745.808C817.271 745.91 816.86 746.013 816.552 746.219Z" fill="#30304D"/>
<path d="M817.579 745.808L807.92 740.156C808.228 740.054 808.434 740.054 808.742 739.951L818.401 745.603C818.093 745.705 817.888 745.705 817.579 745.808Z" fill="#2F2F4B"/>
<path d="M818.402 745.603L808.742 739.951C808.948 739.951 809.153 739.848 809.359 739.848L819.018 745.5C818.813 745.603 818.607 745.603 818.402 745.603Z" fill="#2E2E49"/>
<path d="M819.019 745.603L809.359 739.951C809.565 739.951 809.77 739.951 809.976 739.951L819.635 745.603C819.43 745.603 819.224 745.603 819.019 745.603Z" fill="#2D2D47"/>
<path d="M819.634 745.603L809.975 739.951C810.18 739.951 810.283 739.951 810.488 740.054L820.148 745.705C819.942 745.603 819.84 745.603 819.634 745.603Z" fill="#2B2B45"/>
<path d="M820.148 745.603L810.488 739.951C810.694 739.951 810.797 740.054 811.002 740.054L820.662 745.705C820.456 745.705 820.353 745.705 820.148 745.603Z" fill="#2A2A43"/>
<path d="M820.661 745.707L811.002 740.055C811.207 740.055 811.31 740.158 811.413 740.261L821.072 745.913C820.97 745.81 820.764 745.81 820.661 745.707Z" fill="#292941"/>
<path d="M821.074 745.912L811.414 740.26C811.517 740.363 811.722 740.363 811.825 740.466L821.485 746.118C821.382 746.015 821.279 746.015 821.074 745.912Z" fill="#28283F"/>
<path d="M815.216 746.836L805.557 741.185C805.968 740.876 806.481 740.671 806.893 740.568L816.552 746.22C816.141 746.323 815.627 746.528 815.216 746.836Z" fill="#32324F"/>
<path d="M815.216 746.836L805.557 741.185C805.968 740.876 806.481 740.671 806.893 740.568L816.552 746.22C816.141 746.323 815.627 746.528 815.216 746.836Z" fill="#32324F"/>
<path d="M809.154 753.205L799.494 747.554C799.494 747.554 799.494 747.554 799.494 747.451L809.154 753.205Z" fill="#292941"/>
<path d="M809.255 753.206L799.596 747.555C799.698 747.349 799.801 747.144 799.904 746.938L809.563 752.59C809.461 752.795 809.358 753.001 809.255 753.206Z" fill="#2A2A43"/>
<path d="M809.566 752.59L799.906 746.938C800.009 746.733 800.112 746.527 800.317 746.322L809.977 751.974C809.771 752.179 809.668 752.385 809.566 752.59Z" fill="#2B2B45"/>
<path d="M809.872 751.973L800.213 746.321C800.316 746.116 800.521 745.91 800.624 745.705L810.283 751.356C810.181 751.562 810.078 751.768 809.872 751.973Z" fill="#2D2D47"/>
<path d="M810.284 751.357L800.625 745.705C800.831 745.499 800.933 745.294 801.139 745.088L810.798 750.74C810.593 750.946 810.49 751.151 810.284 751.357Z" fill="#2E2E49"/>
<path d="M810.798 750.74L801.139 745.088C801.344 744.883 801.55 744.574 801.755 744.369L811.415 750.021C811.209 750.226 811.004 750.432 810.798 750.74Z" fill="#2F2F4B"/>
<path d="M811.415 750.022L801.756 744.37C802.064 744.061 802.27 743.753 802.578 743.445L812.237 749.097C811.929 749.405 811.621 749.713 811.415 750.022Z" fill="#30304D"/>
<path d="M812.236 749.097L802.576 743.445C803.501 742.52 804.529 741.801 805.556 741.184L815.216 746.836C814.085 747.453 813.16 748.275 812.236 749.097Z" fill="#32324F"/>
<path d="M808.64 753.825L798.98 748.173H799.083C799.186 748.173 799.186 748.07 799.289 747.967L808.948 753.619C808.845 753.722 808.743 753.722 808.64 753.825Z" fill="#32324F"/>
<path d="M808.949 753.619L799.289 747.968C799.289 747.968 799.289 747.968 799.392 747.865L808.949 753.619Z" fill="#30304D"/>
<path d="M808.949 753.515L799.289 747.863C799.289 747.863 799.289 747.863 799.392 747.76L808.949 753.515Z" fill="#2F2F4B"/>
<path d="M809.052 753.414L799.393 747.762C799.393 747.762 799.393 747.763 799.393 747.66L809.052 753.414Z" fill="#2E2E49"/>
<path d="M809.052 753.414L799.393 747.762C799.393 747.762 799.393 747.763 799.393 747.66L809.052 753.414Z" fill="#2D2D47"/>
<path d="M809.154 753.31L799.494 747.658C799.494 747.658 799.494 747.658 799.494 747.555L809.154 753.31Z" fill="#2B2B45"/>
<path d="M809.154 753.31L799.494 747.658C799.494 747.658 799.494 747.658 799.494 747.555L809.154 753.31Z" fill="#2A2A43"/>
<path d="M809.154 753.207L799.494 747.556C799.494 747.556 799.494 747.555 799.494 747.453L809.154 753.207Z" fill="#292941"/>
<path d="M808.433 753.826L798.773 748.174C798.773 748.174 798.773 748.174 798.876 748.174L808.433 753.826Z" fill="#2F2F4B"/>
<path d="M808.536 753.826L798.877 748.174C798.877 748.174 798.877 748.174 798.98 748.174L808.536 753.826Z" fill="#30304D"/>
<path d="M808.638 753.825L798.979 748.173H799.081C799.184 748.173 799.183 748.07 799.286 747.967L808.946 753.619C808.844 753.722 808.741 753.722 808.638 753.825Z" fill="#32324F"/>
<path d="M808.64 753.002L798.98 747.453L799.289 747.556L808.948 753.105L808.64 753.002Z" fill="#2A2A43"/>
<path d="M809.976 750.947C809.976 750.844 810.079 750.844 810.079 750.742C810.285 750.536 810.387 750.228 810.593 750.022C810.696 749.92 810.798 749.817 810.901 749.714C811.004 749.509 811.209 749.406 811.312 749.2C811.518 748.995 811.62 748.892 811.826 748.686C811.929 748.584 812.134 748.378 812.237 748.275C812.34 748.173 812.443 748.07 812.545 747.967C812.751 747.762 812.854 747.659 813.059 747.556C813.162 747.453 813.265 747.351 813.367 747.248C813.573 747.145 813.778 746.94 813.984 746.837C814.087 746.734 814.189 746.734 814.292 746.631C814.6 746.426 814.909 746.22 815.217 746.015C815.525 745.809 815.834 745.706 816.142 745.501C816.245 745.501 816.347 745.398 816.347 745.398C816.656 745.295 816.861 745.193 817.169 745.09C817.478 744.987 817.683 744.884 817.889 744.884C817.992 744.884 818.197 744.782 818.3 744.782C818.505 744.782 818.608 744.679 818.814 744.679C818.916 744.679 819.019 744.679 819.122 744.679C819.327 744.679 819.533 744.679 819.738 744.679C819.841 744.679 819.841 744.679 819.944 744.679C820.15 744.679 820.458 744.679 820.663 744.782H820.766C820.972 744.782 821.177 744.884 821.28 744.884C821.383 744.884 821.383 744.884 821.485 744.987C821.691 745.09 821.896 745.193 822.102 745.295L812.443 739.644C812.34 739.541 812.134 739.438 811.929 739.438H811.826C811.723 739.438 811.723 739.438 811.62 739.335C811.518 739.335 811.518 739.232 811.415 739.232C811.312 739.232 811.209 739.233 811.107 739.13H811.004C811.004 739.13 811.004 739.13 810.901 739.13C810.696 739.13 810.49 739.027 810.285 739.027C810.285 739.027 810.285 739.027 810.182 739.027C810.079 739.027 810.079 739.027 809.976 739.027C809.874 739.027 809.771 739.027 809.565 739.027C809.462 739.027 809.462 739.027 809.36 739.027C809.257 739.027 809.154 739.027 809.051 739.027C808.949 739.027 808.949 739.027 808.846 739.027C808.743 739.027 808.64 739.027 808.538 739.13C808.435 739.13 808.229 739.232 808.127 739.232C808.024 739.232 808.024 739.232 807.921 739.232C807.716 739.335 807.51 739.335 807.304 739.438C807.099 739.541 806.996 739.541 806.791 739.644C806.688 739.644 806.585 739.746 806.482 739.746C806.38 739.746 806.277 739.849 806.277 739.849C805.969 739.952 805.66 740.157 805.352 740.363C805.044 740.568 804.735 740.774 804.427 740.979C804.324 741.082 804.222 741.082 804.119 741.185C803.913 741.288 803.708 741.493 803.502 741.596C803.4 741.699 803.297 741.802 803.194 741.904C802.989 742.007 802.886 742.213 802.68 742.315C802.578 742.418 802.475 742.521 802.372 742.624C802.269 742.726 802.166 742.726 802.166 742.829C802.064 742.932 802.064 742.932 801.961 743.035C801.755 743.24 801.653 743.343 801.447 743.548C801.344 743.651 801.344 743.651 801.242 743.754C801.139 743.857 801.139 743.959 801.036 743.959C800.933 744.062 800.831 744.165 800.728 744.268C800.625 744.371 800.625 744.371 800.522 744.473C800.42 744.679 800.317 744.782 800.111 744.987C800.111 745.09 800.009 745.09 800.009 745.193C800.009 745.193 800.009 745.193 800.009 745.295C799.906 745.501 799.7 745.706 799.597 746.015C799.597 746.117 799.495 746.117 799.495 746.22C799.495 746.323 799.392 746.323 799.392 746.426C799.289 746.528 799.289 746.631 799.186 746.734C799.084 746.939 798.981 747.145 798.775 747.453L808.435 753.105C808.64 752.797 808.846 752.489 808.949 752.18C808.949 752.078 809.051 752.078 809.051 751.975C809.565 751.564 809.771 751.255 809.976 750.947Z" fill="#6DC2C4"/>
<path d="M808.228 753.825L798.569 748.173C798.466 748.071 798.363 747.968 798.363 747.762L808.023 753.414C808.023 753.62 808.125 753.722 808.228 753.825Z" fill="#202033"/>
<path d="M808.023 753.414L798.363 747.762V738.822L808.023 744.474V753.414Z" fill="#212135"/>
<path d="M806.277 745.398L796.617 739.747L798.364 738.822L808.024 744.474L806.277 745.398Z" fill="#353555"/>
<path d="M806.379 771.807L796.72 766.155L796.617 739.746L806.277 745.397L806.379 771.807Z" fill="#212135"/>
<path d="M805.762 772.116L805.659 745.707L796 740.055L796.103 766.465C796.103 766.67 796.206 766.773 796.308 766.876L805.968 772.528C805.762 772.528 805.762 772.322 805.762 772.116Z" fill="#E43C5A"/>
<path d="M815.216 746.117C812.544 747.658 810.283 750.022 808.742 753.002L808.947 753.104L808.639 753.002V744.062C808.639 743.651 808.331 743.445 808.022 743.651L806.378 744.575C805.967 744.781 805.762 745.295 805.762 745.706L805.864 772.115C805.864 772.526 806.173 772.732 806.481 772.526L808.125 771.601C808.536 771.396 808.742 770.882 808.742 770.471V768.519C810.283 769.649 812.647 769.443 815.216 767.902C820.662 764.716 824.772 757.729 824.772 751.46C824.772 745.397 820.559 743.034 815.216 746.117ZM808.536 760.811C808.536 758.654 809.358 756.085 810.694 753.824C811.927 751.871 813.469 750.33 815.113 749.405C815.421 749.2 815.729 749.097 816.038 748.891C818.812 747.658 821.484 749.405 821.69 752.591C821.792 754.851 821.176 757.318 819.943 759.578C818.71 761.736 817.065 763.586 815.113 764.614C811.516 766.772 808.536 765.025 808.536 760.811Z" fill="#3E3E63"/>
<path d="M808.228 743.651C808.331 743.651 808.331 743.651 808.434 743.651L798.774 738C798.774 738 798.774 738 798.672 738C798.672 738 798.672 738 798.569 738H798.466L796.822 738.924C796.719 738.924 796.719 739.027 796.616 739.13C796.616 739.13 796.616 739.13 796.514 739.233C796.514 739.233 796.514 739.233 796.514 739.336C796.514 739.336 796.514 739.336 796.514 739.438C796.514 739.438 796.514 739.438 796.514 739.541C796.514 739.541 796.514 739.541 796.514 739.644C796.514 739.644 796.514 739.644 796.514 739.747C796.514 739.747 796.514 739.747 796.514 739.849C796.514 739.849 796.514 739.849 796.514 739.952C796.514 739.952 796.514 739.952 796.514 740.055V740.158V740.26L806.173 745.912C806.173 745.809 806.173 745.707 806.173 745.604C806.173 745.501 806.276 745.398 806.276 745.296C806.379 745.193 806.379 745.09 806.481 744.987C806.584 744.885 806.687 744.885 806.687 744.782L808.331 743.857C808.023 743.651 808.126 743.651 808.228 743.651Z" fill="#6DC2C4"/>
<path d="M762.084 220.591L758.664 212.887L719.001 230.492L722.421 238.197L762.084 220.591Z" fill="#3E3E63"/>
<path d="M745.491 247.084L753.195 243.664L735.59 204.001L727.886 207.421L745.491 247.084Z" fill="#3E3E63"/>
</svg>
