<svg width="1024" height="1024" viewBox="0 0 1024 1024" fill="none" xmlns="http://www.w3.org/2000/svg">
<path d="M205.067 715.366V731.687L196.906 727.002L197.057 710.682L205.067 715.366Z" fill="#212135"/>
<path d="M197.059 710.682L196.908 727.002L163.359 746.497V730.176L197.059 710.682Z" fill="#30304C"/>
<path d="M198.268 714.005V730.477C198.268 730.477 198.117 730.476 198.117 730.325V713.854C198.117 713.854 198.268 713.853 198.268 714.005Z" fill="#202033"/>
<path d="M198.116 713.854V730.325H197.965V713.854C197.965 713.854 197.965 713.854 198.116 713.854Z" fill="#212135"/>
<path d="M197.966 713.854V730.325H197.814L197.966 713.854C197.814 713.854 197.814 713.854 197.966 713.854Z" fill="#232337"/>
<path d="M197.815 713.703V730.175H197.664L197.815 713.703C197.664 713.703 197.664 713.703 197.815 713.703Z" fill="#242439"/>
<path d="M197.663 713.703V730.175H197.512L197.663 713.703C197.512 713.703 197.512 713.703 197.663 713.703Z" fill="#25253B"/>
<path d="M197.512 713.703V730.175H197.361L197.512 713.703Z" fill="#26263D"/>
<path d="M197.36 713.703V730.175H197.209L197.36 713.703Z" fill="#28283F"/>
<path d="M197.21 713.703V730.175H197.059V713.703H197.21Z" fill="#292941"/>
<path d="M197.059 713.703V730.175H196.908V713.703H197.059Z" fill="#2A2A43"/>
<path d="M196.908 713.703V730.175C196.757 730.175 196.757 730.175 196.605 730.175V713.703C196.757 713.854 196.757 713.854 196.908 713.703Z" fill="#2B2B45"/>
<path d="M196.605 713.854V730.325C196.454 730.325 196.454 730.477 196.303 730.477V714.005C196.454 713.853 196.454 713.854 196.605 713.854Z" fill="#2D2D47"/>
<path d="M202.65 716.424V732.896L198.268 730.327V714.006L202.65 716.424Z" fill="#212135"/>
<path d="M210.208 723.977V740.449C210.208 738.333 207.79 735.915 202.652 733.044V716.572C207.639 719.443 210.208 721.71 210.208 723.977Z" fill="#202033"/>
<path d="M201.744 717.026L197.361 714.457V730.929L201.744 733.498C204.766 735.16 206.731 736.671 207.788 738.031C208.393 738.787 208.846 739.543 208.846 740.298V723.826C208.846 722.013 206.428 719.746 201.744 717.026Z" fill="#6DC2C4"/>
<path d="M196.305 714.006V730.327L165.779 748.007V731.687L196.305 714.006Z" fill="#30304C"/>
<path d="M197.362 714.457V730.929L166.836 748.61V732.138L197.362 714.457Z" fill="#E9DF67"/>
<path d="M165.777 731.685V748.006L163.359 746.495V730.174L165.777 731.685Z" fill="#212135"/>
<path d="M166.382 732.289C166.231 732.289 166.08 732.289 165.778 732.289C165.627 732.289 165.476 732.289 165.325 732.289C165.174 732.289 165.022 732.138 164.871 732.138L162.453 730.778C162.151 730.627 162 730.476 162 730.174V746.646C162 746.797 162.151 747.099 162.453 747.25L164.871 748.61C164.871 748.61 165.022 748.61 165.022 748.761H165.174C165.174 748.761 165.174 748.761 165.325 748.761H165.476H165.627H165.778C165.778 748.761 165.778 748.761 165.929 748.761H166.08H166.231H166.382C166.534 748.761 166.534 748.61 166.685 748.61V732.138C166.685 732.289 166.534 732.289 166.382 732.289Z" fill="#6DC2C4"/>
<path d="M185.573 725.943V742.415L181.795 757.225V740.753L185.573 725.943Z" fill="#27273E"/>
<path d="M187.84 730.93L187.689 747.402L184.969 759.038V742.566L187.84 730.93Z" fill="#27273E"/>
<path d="M184.968 742.565V759.037L181.795 757.224V740.752L184.968 742.565Z" fill="#212135"/>
<path d="M214.89 724.279V740.751V740.902C214.89 741.205 214.89 741.356 214.739 741.658C214.739 741.809 214.588 742.111 214.588 742.262C214.588 742.413 214.437 742.414 214.437 742.565C214.437 742.716 214.286 742.867 214.286 742.867C214.286 742.867 214.286 742.867 214.286 743.018C214.135 743.169 214.135 743.32 213.983 743.471C213.983 743.622 213.832 743.622 213.832 743.774C213.832 743.774 213.832 743.774 213.832 743.925L213.681 744.076C213.53 744.227 213.379 744.529 213.077 744.68L212.926 744.831C212.775 744.983 212.472 745.285 212.17 745.436L212.019 745.587C211.717 745.738 211.566 746.04 211.263 746.191C211.263 746.191 211.112 746.191 211.112 746.343C210.81 746.494 210.508 746.645 210.206 746.947C210.054 746.947 210.054 747.098 209.903 747.098C209.299 747.4 208.694 747.703 208.09 748.005C207.939 748.005 207.939 748.156 207.788 748.156C207.183 748.458 206.579 748.609 205.974 748.912H205.823C205.672 748.912 205.672 748.912 205.521 749.063C205.219 749.063 205.067 749.214 204.765 749.214C204.614 749.214 204.312 749.365 204.161 749.365C203.859 749.365 203.707 749.516 203.405 749.516C203.254 749.516 203.254 749.516 203.103 749.516H202.952C202.498 749.516 202.196 749.667 201.743 749.667C201.592 749.667 201.592 749.667 201.441 749.667C201.441 749.667 201.441 749.667 201.29 749.667C200.987 749.667 200.534 749.667 200.232 749.667C200.081 749.667 200.081 749.667 199.929 749.667C199.627 749.667 199.476 749.667 199.174 749.667C199.023 749.667 198.721 749.667 198.569 749.667C198.418 749.667 198.116 749.667 197.965 749.667C197.663 749.667 197.512 749.667 197.209 749.667C196.756 749.667 196.303 749.516 195.849 749.516C195.396 749.516 194.943 749.365 194.489 749.214C194.489 749.214 194.489 749.214 194.338 749.214C194.187 749.214 194.187 749.214 194.036 749.214C193.583 749.063 193.129 749.063 192.676 748.912C192.525 748.912 192.525 748.912 192.374 748.912C192.222 748.912 192.222 748.912 192.071 748.76C191.92 748.76 191.618 748.609 191.467 748.609C191.165 748.609 191.014 748.458 190.711 748.307C190.56 748.307 190.258 748.156 190.107 748.005C189.956 748.005 189.956 748.005 189.805 747.854C189.502 747.703 189.351 747.703 189.049 747.551H188.898L186.178 759.188V742.716L188.293 733.8V730.929H189.049C189.351 731.08 189.805 731.231 190.107 731.382C190.258 731.533 190.56 731.533 190.711 731.684C191.014 731.835 191.165 731.835 191.467 731.986C191.618 731.986 191.92 732.137 192.071 732.137C192.222 732.137 192.525 732.289 192.676 732.289C193.129 732.44 193.583 732.591 194.036 732.591C194.187 732.591 194.338 732.591 194.338 732.742C194.791 732.893 195.245 732.893 195.698 733.044C196.152 733.044 196.605 733.195 197.058 733.195C197.36 733.195 197.512 733.195 197.814 733.195C197.965 733.195 198.267 733.195 198.418 733.195C198.569 733.195 198.872 733.195 199.023 733.195C199.325 733.195 199.476 733.195 199.778 733.195C199.929 733.195 199.929 733.195 200.081 733.195C200.383 733.195 200.836 733.195 201.138 733.044C201.29 733.044 201.29 733.044 201.441 733.044C201.894 733.044 202.196 732.893 202.65 732.893C202.801 732.893 202.952 732.893 203.254 732.742C203.556 732.742 203.707 732.591 204.01 732.591C204.161 732.591 204.463 732.44 204.614 732.44C204.916 732.44 205.067 732.289 205.37 732.289C205.521 732.289 205.672 732.137 205.823 732.137C206.428 731.986 207.032 731.684 207.637 731.382C207.788 731.382 207.788 731.231 207.939 731.231C208.543 730.929 209.148 730.626 209.752 730.324C210.206 730.022 210.508 729.871 210.961 729.568C210.961 729.568 211.112 729.568 211.112 729.417C211.414 729.266 211.717 728.964 211.868 728.813L212.019 728.662C212.321 728.511 212.623 728.208 212.775 728.057L212.926 727.906C213.077 727.755 213.228 727.453 213.53 727.302L213.681 727.151C213.832 726.999 213.832 726.848 213.983 726.848C214.135 726.697 214.135 726.546 214.286 726.395C214.437 726.244 214.437 726.093 214.588 725.942C214.588 725.791 214.739 725.79 214.739 725.639C214.89 725.337 214.89 725.186 214.89 724.884C214.89 724.733 214.89 724.582 214.89 724.279Z" fill="#E9DF67"/>
<path d="M209.904 730.477C203.86 733.952 196.455 734.254 189.201 731.081H188.446H189.05L186.179 742.717C186.179 743.019 185.726 743.322 185.272 743.322C184.819 743.473 184.214 743.322 183.912 743.17L180.89 741.357C180.588 741.206 180.436 740.904 180.436 740.753L184.063 725.943C184.214 725.641 184.517 725.338 184.97 725.338C185.423 725.187 186.028 725.338 186.33 725.49C195.246 730.476 199.78 731.081 205.371 727.908C210.66 724.885 209.602 721.863 201.593 717.178L197.211 714.609L166.836 732.139C166.231 732.441 165.476 732.441 164.871 732.139L162.453 730.779C161.849 730.476 161.849 730.023 162.453 729.721L196.002 710.227C196.606 709.924 197.362 709.924 197.966 710.227L206.126 714.911C216.554 720.805 217.763 725.792 209.904 730.477Z" fill="#3E3E63"/>
<path d="M186.18 742.868L186.029 743.019H185.878C185.878 743.019 185.727 743.019 185.727 743.17C185.576 743.17 185.576 743.17 185.425 743.321C185.274 743.321 185.123 743.321 185.123 743.321C184.972 743.321 184.82 743.321 184.82 743.321C184.669 743.321 184.669 743.321 184.518 743.321C184.367 743.321 184.367 743.321 184.216 743.17L181.194 741.356C180.891 741.205 180.74 741.054 180.74 740.752V757.224C180.74 757.375 180.891 757.677 181.194 757.828L184.216 759.642C184.216 759.642 184.367 759.642 184.367 759.793C184.367 759.793 184.367 759.793 184.518 759.793H184.669H184.82H184.972H185.123C185.123 759.793 185.123 759.793 185.274 759.793H185.425H185.576C185.727 759.793 185.727 759.793 185.878 759.793C185.878 759.793 186.029 759.793 186.029 759.642C186.029 759.642 186.029 759.642 186.18 759.642C186.18 759.642 186.18 759.642 186.332 759.491C186.332 759.491 186.332 759.491 186.332 759.339V742.868C186.332 742.716 186.18 742.868 186.18 742.868Z" fill="#6DC2C4"/>
<path d="M329 179.649L382.477 154L355.459 234.112L329 179.649Z" stroke="#E9DF67" stroke-width="3.82647"/>
<path d="M852.509 552L845.484 555.416L863.073 591.581L870.097 588.165L852.509 552Z" fill="#6DC2C4"/>
<path d="M877.582 566.507L874.166 559.482L838.001 577.071L841.417 584.096L877.582 566.507Z" fill="#6DC2C4"/>
</svg>
