<svg width="512" height="512" viewBox="0 0 512 512" fill="none" xmlns="http://www.w3.org/2000/svg">
<path d="M86.3613 214.664L101.046 231.888L93.4716 253.217L78.7872 235.993L86.3613 214.664Z" fill="#E43C5A"/>
<rect width="22.6339" height="22.6339" transform="matrix(0.983415 -0.18137 -0.334636 0.942347 101.047 231.889)" fill="#E9DF67"/>
<path d="M108.619 210.56L123.304 227.783L101.045 231.889L86.3606 214.665L108.619 210.56Z" fill="#6DC2C4"/>
<path d="M324.216 397.575L314.557 391.923C315.687 391.307 316.715 390.485 317.742 389.457L327.402 395.109C326.374 396.136 325.346 396.959 324.216 397.575Z" fill="#32324F"/>
<path d="M327.402 395.109L317.742 389.457C318.05 389.149 318.462 388.738 318.77 388.43L328.429 394.082C328.018 394.493 327.71 394.801 327.402 395.109Z" fill="#30304D"/>
<path d="M328.429 394.081L318.77 388.429C318.975 388.121 319.283 387.916 319.489 387.607L329.148 393.259C328.84 393.568 328.635 393.773 328.429 394.081Z" fill="#2F2F4B"/>
<path d="M329.046 393.259L319.387 387.607C319.592 387.402 319.798 387.093 320.003 386.785L329.663 392.437C329.457 392.745 329.252 392.951 329.046 393.259Z" fill="#2E2E49"/>
<path d="M329.661 392.437L320.002 386.785C320.207 386.579 320.31 386.271 320.516 386.065L330.175 391.717C329.97 392.026 329.764 392.231 329.661 392.437Z" fill="#2D2D47"/>
<path d="M330.175 391.718L320.516 386.066C320.618 385.86 320.824 385.552 320.927 385.347L330.586 390.998C330.483 391.307 330.278 391.512 330.175 391.718Z" fill="#2B2B45"/>
<path d="M330.587 390.998L320.928 385.346C321.03 385.141 321.236 384.832 321.339 384.627L330.998 390.279C330.793 390.587 330.69 390.793 330.587 390.998Z" fill="#2A2A43"/>
<path d="M330.997 390.278L321.338 384.627C321.441 384.421 321.543 384.113 321.749 383.907L331.408 389.559C331.203 389.867 331.1 390.073 330.997 390.278Z" fill="#292941"/>
<path d="M331.308 389.56L321.648 383.908C321.751 383.702 321.854 383.394 321.957 383.188L331.616 388.84C331.513 389.149 331.411 389.354 331.308 389.56Z" fill="#28283F"/>
<path d="M331.718 388.841L322.059 383.189C322.161 382.984 322.264 382.675 322.367 382.47L332.026 388.122C331.924 388.327 331.821 388.635 331.718 388.841Z" fill="#26263D"/>
<path d="M332.025 388.121L322.365 382.47C322.468 382.161 322.571 381.956 322.674 381.647L332.333 387.299C332.23 387.505 332.127 387.813 332.025 388.121Z" fill="#25253B"/>
<path d="M332.232 387.298L322.572 381.647C322.675 381.338 322.778 381.03 322.881 380.722L332.54 386.373C332.437 386.682 332.334 386.99 332.232 387.298Z" fill="#242439"/>
<path d="M332.54 386.374L322.881 380.722C322.984 380.414 323.086 380.003 323.086 379.694L332.746 385.346C332.746 385.757 332.643 386.065 332.54 386.374Z" fill="#232337"/>
<path d="M332.745 385.346L323.086 379.694C323.189 379.283 323.291 378.872 323.291 378.461L332.951 384.113C332.951 384.524 332.848 384.935 332.745 385.346Z" fill="#212135"/>
<path d="M333.053 384.113L323.394 378.462C323.497 377.845 323.497 377.228 323.497 376.612C323.497 373.837 322.572 371.885 320.928 370.96L330.587 376.612C332.129 377.537 333.156 379.489 333.156 382.264C333.156 382.88 333.053 383.497 333.053 384.113Z" fill="#202033"/>
<path d="M323.187 396.342L313.527 390.69C313.836 390.587 314.144 390.382 314.555 390.176C315.48 389.662 316.302 389.046 317.021 388.224L326.681 393.875C325.859 394.698 325.036 395.314 324.214 395.828C323.803 396.033 323.495 396.136 323.187 396.342Z" fill="#32324F"/>
<path d="M326.681 393.875L317.021 388.223C317.33 387.915 317.535 387.71 317.741 387.401L327.4 393.053C327.195 393.361 326.886 393.67 326.681 393.875Z" fill="#30304D"/>
<path d="M327.4 393.054L317.74 387.402C317.946 387.196 318.151 386.991 318.254 386.683L327.914 392.334C327.811 392.643 327.605 392.848 327.4 393.054Z" fill="#2F2F4B"/>
<path d="M328.017 392.436L318.357 386.785C318.563 386.579 318.666 386.373 318.768 386.168L328.428 391.82C328.325 392.025 328.12 392.231 328.017 392.436Z" fill="#2E2E49"/>
<path d="M328.427 391.82L318.768 386.168C318.87 385.963 319.076 385.757 319.179 385.552L328.838 391.204C328.735 391.409 328.633 391.615 328.427 391.82Z" fill="#2D2D47"/>
<path d="M328.839 391.203L319.18 385.551C319.282 385.346 319.385 385.14 319.488 384.935L329.147 390.586C329.147 390.792 328.942 390.997 328.839 391.203Z" fill="#2B2B45"/>
<path d="M329.249 390.587L319.59 384.935C319.693 384.832 319.693 384.73 319.795 384.627L329.455 390.279C329.352 390.382 329.249 390.484 329.249 390.587Z" fill="#2A2A43"/>
<path d="M329.355 390.28L319.695 384.629C319.695 384.526 319.798 384.423 319.798 384.32L329.458 389.972C329.458 390.075 329.458 390.178 329.355 390.28Z" fill="#2A2A43"/>
<path d="M329.562 389.972L319.902 384.321C320.005 384.115 320.108 383.91 320.211 383.704L329.87 389.356C329.767 389.561 329.665 389.767 329.562 389.972Z" fill="#292941"/>
<path d="M329.868 389.356L320.209 383.704C320.312 383.499 320.415 383.293 320.517 383.088L330.177 388.74C330.074 388.945 329.971 389.151 329.868 389.356Z" fill="#28283F"/>
<path d="M330.179 388.739L320.52 383.087C320.622 382.882 320.725 382.676 320.828 382.471L330.487 388.123C330.282 388.328 330.179 388.534 330.179 388.739Z" fill="#26263D"/>
<path d="M330.384 388.122L320.725 382.47C320.827 382.265 320.93 382.059 320.93 381.751L330.59 387.403C330.59 387.711 330.487 387.917 330.384 388.122Z" fill="#25253B"/>
<path d="M330.589 387.506L320.93 381.854C321.032 381.649 321.135 381.34 321.135 381.135L330.795 386.787C330.795 386.992 330.692 387.198 330.589 387.506Z" fill="#242439"/>
<path d="M330.896 386.683L321.236 381.031C321.339 380.723 321.339 380.415 321.442 380.209L331.101 385.861C330.999 386.169 330.896 386.477 330.896 386.683Z" fill="#232337"/>
<path d="M331.103 385.862L321.443 380.21C321.546 379.799 321.546 379.491 321.649 379.08L331.308 384.732C331.206 385.143 331.103 385.451 331.103 385.862Z" fill="#212135"/>
<path d="M331.308 384.731L321.649 379.08C321.752 378.36 321.752 377.641 321.752 376.922C321.649 375.072 320.827 373.633 319.594 372.914L329.253 378.566C330.486 379.285 331.308 380.724 331.411 382.574C331.411 383.293 331.308 384.012 331.308 384.731Z" fill="#202033"/>
<path d="M318.462 398.296L308.803 392.645L318.462 398.296C318.462 398.296 318.565 398.296 318.462 398.296Z" fill="#26263D"/>
<path d="M318.564 398.296L308.904 392.645C309.007 392.747 309.11 392.747 309.315 392.85L318.975 398.502C318.769 398.399 318.667 398.399 318.564 398.296Z" fill="#28283F"/>
<path d="M318.874 398.501L309.215 392.85C309.318 392.952 309.42 392.952 309.626 392.952L319.285 398.604C319.183 398.604 318.977 398.501 318.874 398.501Z" fill="#292941"/>
<path d="M319.284 398.604L309.625 392.952C309.728 392.952 309.933 393.055 310.036 393.055L319.696 398.707C319.49 398.707 319.387 398.707 319.284 398.604Z" fill="#2A2A43"/>
<path d="M319.695 398.707L310.035 393.055C310.138 393.055 310.343 393.055 310.446 393.157L320.106 398.809C320.003 398.809 319.797 398.707 319.695 398.707Z" fill="#2B2B45"/>
<path d="M320.107 398.81L310.447 393.158C310.653 393.158 310.756 393.158 310.961 393.158L320.621 398.81C320.415 398.81 320.312 398.81 320.107 398.81Z" fill="#2D2D47"/>
<path d="M320.62 398.809L310.961 393.157C311.166 393.157 311.372 393.157 311.577 393.055L321.237 398.707C321.031 398.707 320.826 398.809 320.62 398.809Z" fill="#2E2E49"/>
<path d="M321.238 398.707L311.578 393.055C311.784 393.055 312.092 392.952 312.297 392.952L321.957 398.604C321.649 398.604 321.443 398.707 321.238 398.707Z" fill="#2F2F4B"/>
<path d="M321.956 398.605L312.297 392.953C312.605 392.85 312.913 392.747 313.324 392.645L322.984 398.296C322.573 398.399 322.265 398.502 321.956 398.605Z" fill="#30304D"/>
<path d="M322.984 398.193L313.324 392.541C313.735 392.336 314.146 392.13 314.66 391.925L324.32 397.577C323.806 397.782 323.395 398.09 322.984 398.193Z" fill="#32324F"/>
<path d="M318.462 398.296L308.802 392.644C308.7 392.541 308.597 392.541 308.494 392.438L318.154 398.09C318.359 398.193 318.359 398.193 318.462 398.296Z" fill="#202033"/>
<path d="M318.052 399.015L308.392 393.363C308.29 393.26 308.187 393.26 308.084 393.157L317.743 398.809C317.846 398.912 317.949 399.015 318.052 399.015Z" fill="#202033"/>
<path d="M318.462 398.296L308.802 392.644C308.7 392.541 308.597 392.541 308.494 392.438L318.154 398.09C318.359 398.193 318.359 398.193 318.462 398.296Z" fill="#202033"/>
<path d="M331.308 384.731L321.649 379.08C321.752 378.36 321.752 377.641 321.752 376.922C321.649 375.072 320.827 373.633 319.594 372.914L329.253 378.566C330.486 379.285 331.308 380.724 331.411 382.574C331.411 383.293 331.308 384.012 331.308 384.731Z" fill="#202033"/>
<path d="M330.69 383.909C330.69 383.6 330.69 383.292 330.69 382.984C330.587 381.34 329.868 380.004 328.738 379.387L319.078 373.735C320.208 374.352 321.031 375.688 321.031 377.332C321.031 377.64 321.031 377.949 321.031 378.257C321.031 378.36 321.031 378.462 321.031 378.565C321.031 378.771 321.031 378.976 320.928 379.182C320.928 379.284 320.928 379.387 320.825 379.593C320.825 379.798 320.722 380.004 320.722 380.209C320.722 380.312 320.619 380.518 320.619 380.62C320.619 380.723 320.517 380.826 320.517 380.929C320.414 381.134 320.414 381.34 320.311 381.545C320.311 381.648 320.311 381.648 320.208 381.751C320.106 382.059 320.003 382.264 319.9 382.573C319.9 382.676 319.9 382.675 319.797 382.778C319.695 382.984 319.592 383.292 319.489 383.498V383.6C319.386 383.909 319.181 384.114 319.078 384.422C318.975 384.731 318.77 384.936 318.667 385.142C318.667 385.142 318.667 385.142 318.667 385.245C318.564 385.45 318.359 385.656 318.256 385.964C318.256 386.067 318.153 386.067 318.153 386.169C318.05 386.272 317.948 386.478 317.845 386.58C317.742 386.683 317.742 386.786 317.639 386.889C317.537 386.991 317.434 387.094 317.331 387.197C317.228 387.3 317.023 387.505 316.92 387.608C316.817 387.711 316.715 387.813 316.612 387.916C316.509 388.019 316.406 388.019 316.406 388.122C316.304 388.225 316.201 388.327 315.995 388.43C315.892 388.533 315.79 388.533 315.79 388.636C315.687 388.738 315.481 388.841 315.379 388.944C315.276 388.944 315.276 389.047 315.173 389.047C314.968 389.149 314.762 389.355 314.557 389.458C314.351 389.56 314.146 389.663 313.94 389.766C313.94 389.766 313.837 389.766 313.837 389.869C313.735 389.869 313.632 389.971 313.529 389.971C313.323 390.074 313.221 390.074 313.118 390.177C313.015 390.177 312.912 390.28 312.81 390.28C312.707 390.28 312.604 390.28 312.501 390.383C312.399 390.383 312.296 390.382 312.193 390.485C312.09 390.485 312.09 390.485 311.988 390.485C311.885 390.485 311.679 390.485 311.577 390.485C311.577 390.485 311.577 390.485 311.474 390.485C311.268 390.485 311.166 390.485 310.96 390.383H310.857C310.754 390.383 310.652 390.28 310.549 390.28H310.446C310.343 390.177 310.138 390.177 310.035 390.074L319.695 395.726C319.797 395.829 319.9 395.829 320.003 395.932C320.003 395.932 320.003 395.932 320.106 395.932H320.208C320.311 395.932 320.311 395.932 320.414 396.034C320.517 396.034 320.517 396.034 320.619 396.034H320.722C320.722 396.034 320.722 396.034 320.825 396.034C320.928 396.034 321.133 396.034 321.236 396.034C321.236 396.034 321.236 396.034 321.339 396.034C321.442 396.034 321.544 396.034 321.647 396.034H321.75C321.853 396.034 321.853 396.034 321.955 396.034C322.058 396.034 322.058 396.034 322.161 396.034C322.161 396.034 322.264 396.034 322.366 396.034C322.469 396.034 322.572 396.034 322.675 395.932H322.777H322.88C322.983 395.932 323.188 395.829 323.291 395.726C323.394 395.726 323.394 395.726 323.497 395.623C323.497 395.623 323.6 395.623 323.702 395.521C323.702 395.521 323.805 395.521 323.805 395.418C324.011 395.315 324.216 395.212 324.422 395.109C324.627 395.007 324.833 394.801 325.038 394.698C325.141 394.698 325.141 394.596 325.244 394.596C325.346 394.493 325.552 394.39 325.655 394.287C325.757 394.185 325.86 394.185 325.86 394.082C325.963 393.979 326.066 393.876 326.271 393.774C326.374 393.671 326.477 393.671 326.477 393.568C326.58 393.465 326.58 393.465 326.682 393.363L326.785 393.26C326.888 393.157 327.093 392.952 327.196 392.849C327.196 392.746 327.299 392.746 327.402 392.643L327.504 392.54C327.607 392.438 327.607 392.335 327.71 392.232C327.813 392.129 327.813 392.129 327.915 392.027C328.018 391.924 328.018 391.821 328.121 391.821C328.121 391.718 328.224 391.718 328.224 391.616L328.326 391.513C328.429 391.307 328.532 391.205 328.738 390.999C328.738 390.999 328.738 390.999 328.738 390.896C328.84 390.794 328.943 390.588 329.046 390.485C329.149 390.382 329.149 390.28 329.251 390.177C329.251 390.074 329.354 389.971 329.354 389.971C329.457 389.766 329.56 389.56 329.662 389.458C329.662 389.458 329.662 389.458 329.662 389.355C329.662 389.355 329.662 389.252 329.765 389.252C329.868 389.149 329.868 388.944 329.971 388.841C329.971 388.738 330.073 388.636 330.073 388.533C330.073 388.43 330.073 388.43 330.176 388.327V388.225C330.279 388.019 330.279 387.814 330.382 387.608C330.382 387.608 330.382 387.608 330.382 387.505C330.382 387.402 330.382 387.402 330.484 387.3C330.484 387.197 330.587 386.991 330.587 386.889C330.587 386.786 330.587 386.786 330.587 386.683C330.587 386.58 330.69 386.478 330.69 386.375C330.69 386.272 330.69 386.169 330.793 386.067C330.793 385.964 330.793 385.964 330.793 385.861C330.793 385.656 330.895 385.45 330.895 385.245C330.895 385.142 330.895 385.039 330.895 385.039V384.936C330.895 384.731 330.895 384.525 330.998 384.32C330.69 384.114 330.69 384.011 330.69 383.909Z" fill="#E9DF67"/>
<path d="M317.023 401.274L307.363 395.622L307.466 393.67L317.023 399.322V401.274Z" fill="#212135"/>
<path d="M315.38 402.2L305.721 396.548L307.365 395.623L317.024 401.275L315.38 402.2Z" fill="#353555"/>
<path d="M317.023 399.322L307.363 393.67V393.567L317.023 399.219C317.125 399.219 317.023 399.219 317.023 399.322Z" fill="#202033"/>
<path d="M317.124 399.118L307.465 393.466V393.363L317.124 399.118Z" fill="#212135"/>
<path d="M317.124 399.014L307.465 393.363C307.465 393.363 307.465 393.363 307.465 393.26L317.124 399.014Z" fill="#232337"/>
<path d="M317.124 399.014L307.465 393.363C307.465 393.363 307.465 393.363 307.465 393.26L317.124 399.014C317.124 398.912 317.124 398.912 317.124 399.014Z" fill="#242439"/>
<path d="M317.124 398.912L307.465 393.26C307.465 393.26 307.465 393.26 307.465 393.157L317.124 398.912Z" fill="#25253B"/>
<path d="M317.124 398.808L307.465 393.157C307.465 393.157 307.465 393.156 307.465 393.054L317.124 398.808Z" fill="#26263D"/>
<path d="M317.228 398.808L307.568 393.157C307.568 393.157 307.568 393.156 307.568 393.054L317.228 398.808C317.228 398.808 317.228 398.706 317.228 398.808Z" fill="#28283F"/>
<path d="M317.228 398.706L307.568 393.054C307.568 393.054 307.568 393.054 307.568 392.951L317.228 398.706Z" fill="#292941"/>
<path d="M317.228 398.706L307.568 393.054C307.568 393.054 307.568 393.054 307.568 392.951L317.228 398.706C317.228 398.706 317.228 398.603 317.228 398.706Z" fill="#2A2A43"/>
<path d="M317.228 398.604L307.568 392.952C307.568 392.952 307.568 392.952 307.568 392.85L317.228 398.604C317.228 398.604 317.331 398.604 317.228 398.604Z" fill="#2B2B45"/>
<path d="M317.331 398.604L307.672 392.952C307.672 392.952 307.672 392.952 307.672 392.85L317.331 398.604C317.331 398.604 317.331 398.501 317.331 398.604Z" fill="#2D2D47"/>
<path d="M317.331 398.501L307.672 392.849C307.672 392.849 307.672 392.849 307.672 392.746L317.331 398.501Z" fill="#2E2E49"/>
<path d="M317.331 398.501L307.672 392.849C307.672 392.849 307.672 392.849 307.775 392.746L317.331 398.501C317.434 398.398 317.434 398.398 317.331 398.501Z" fill="#2F2F4B"/>
<path d="M317.435 398.398L307.775 392.746C307.775 392.746 307.775 392.746 307.878 392.644L317.435 398.398C317.538 398.295 317.538 398.295 317.435 398.398Z" fill="#30304D"/>
<path d="M317.536 398.295L307.877 392.643C307.98 392.54 307.98 392.54 308.082 392.438H308.185L317.845 398.089H317.742C317.639 398.192 317.536 398.192 317.536 398.295Z" fill="#32324F"/>
<path d="M317.845 398.089L308.186 392.438H308.288L317.845 398.089Z" fill="#30304D"/>
<path d="M317.845 398.089L308.186 392.438C308.186 392.438 308.186 392.438 308.288 392.438L317.845 398.089C317.948 398.089 317.948 398.089 317.845 398.089Z" fill="#2F2F4B"/>
<path d="M317.949 398.089L308.289 392.438L317.949 398.089Z" fill="#2E2E49"/>
<path d="M318.05 398.089L308.391 392.438L318.05 398.089Z" fill="#2D2D47"/>
<path d="M318.05 398.089L308.391 392.438L318.05 398.089Z" fill="#2B2B45"/>
<path d="M318.05 398.089L308.391 392.438L318.05 398.089C318.05 398.089 318.153 398.089 318.05 398.089Z" fill="#2A2A43"/>
<path d="M318.154 398.089L308.494 392.438L318.154 398.089Z" fill="#292941"/>
<path d="M318.154 398.089L308.494 392.438L318.154 398.089Z" fill="#28283F"/>
<path d="M318.152 398.089L308.596 392.54L318.152 398.089Z" fill="#26263D"/>
<path d="M319.077 396.344L309.418 390.692C308.082 389.87 307.26 388.226 307.26 385.862C307.26 385.349 307.26 384.938 307.363 384.424L317.022 390.076C316.919 390.589 316.919 391 316.919 391.514C316.919 393.878 317.741 395.522 319.077 396.344Z" fill="#202033"/>
<path d="M317.021 390.076L307.361 384.424C307.361 384.116 307.464 383.705 307.567 383.396L317.226 389.048C317.124 389.459 317.021 389.768 317.021 390.076Z" fill="#212135"/>
<path d="M317.124 389.048L307.465 383.396C307.568 383.088 307.568 382.882 307.67 382.574L317.33 388.226C317.33 388.534 317.227 388.843 317.124 389.048Z" fill="#232337"/>
<path d="M317.331 388.226L307.672 382.574C307.775 382.368 307.775 382.06 307.877 381.854L317.537 387.506C317.537 387.712 317.434 388.02 317.331 388.226Z" fill="#242439"/>
<path d="M317.638 387.506L307.979 381.854C308.081 381.649 308.184 381.443 308.184 381.135L317.844 386.787C317.741 387.095 317.638 387.3 317.638 387.506Z" fill="#25253B"/>
<path d="M317.845 386.787L308.186 381.135C308.288 380.93 308.391 380.724 308.494 380.519L318.153 386.17C318.051 386.376 317.948 386.581 317.845 386.787Z" fill="#26263D"/>
<path d="M318.05 386.17L308.391 380.518C308.493 380.312 308.596 380.107 308.699 379.901L318.358 385.553C318.256 385.759 318.153 385.964 318.05 386.17Z" fill="#28283F"/>
<path d="M318.359 385.554L308.699 379.902C308.802 379.696 308.905 379.491 309.007 379.285L318.667 384.937C318.564 385.142 318.461 385.348 318.359 385.554Z" fill="#292941"/>
<path d="M318.667 384.936L309.008 379.285C309.111 379.079 309.213 378.873 309.316 378.668L318.976 384.32C318.873 384.628 318.77 384.834 318.667 384.936Z" fill="#2A2A43"/>
<path d="M318.974 384.423L309.314 378.771C309.417 378.565 309.52 378.463 309.623 378.257L309.726 378.154L319.385 383.806L319.282 383.909C319.179 384.114 319.077 384.217 318.974 384.423Z" fill="#2B2B45"/>
<path d="M319.386 383.806L309.727 378.155C309.829 377.949 310.035 377.744 310.138 377.538L319.797 383.19C319.694 383.395 319.489 383.601 319.386 383.806Z" fill="#2D2D47"/>
<path d="M319.796 383.19L310.137 377.538C310.342 377.333 310.445 377.127 310.651 376.922L320.31 382.574C320.104 382.676 319.899 382.985 319.796 383.19Z" fill="#2E2E49"/>
<path d="M320.31 382.471L310.65 376.819C310.856 376.613 311.061 376.305 311.267 376.1L320.926 381.751C320.618 382.06 320.413 382.265 320.31 382.471Z" fill="#2F2F4B"/>
<path d="M320.824 381.855L311.164 376.203C311.37 375.895 311.678 375.586 311.986 375.381L321.646 381.033C321.337 381.238 321.132 381.546 320.824 381.855Z" fill="#30304D"/>
<path d="M321.646 380.93L311.986 375.278C312.808 374.456 313.63 373.839 314.453 373.325C314.761 373.12 315.172 372.914 315.48 372.812H315.583L325.242 378.463H325.14C324.831 378.566 324.42 378.772 324.112 378.977C323.29 379.594 322.468 380.21 321.646 380.93Z" fill="#32324F"/>
<path d="M325.243 378.464L315.584 372.812C315.79 372.709 316.098 372.606 316.303 372.606L325.963 378.258C325.654 378.361 325.449 378.361 325.243 378.464Z" fill="#30304D"/>
<path d="M325.962 378.258L316.303 372.606C316.508 372.503 316.714 372.503 316.919 372.503L326.579 378.155C326.27 378.155 326.168 378.155 325.962 378.258Z" fill="#2F2F4B"/>
<path d="M326.476 378.155L316.816 372.503C317.022 372.503 317.125 372.503 317.33 372.503L326.99 378.155C326.784 378.052 326.681 378.155 326.476 378.155Z" fill="#2E2E49"/>
<path d="M326.99 378.052L317.33 372.4C317.536 372.4 317.638 372.4 317.844 372.4L327.503 378.052C327.298 378.052 327.195 378.052 326.99 378.052Z" fill="#2D2D47"/>
<path d="M327.503 378.052L317.844 372.4C317.947 372.4 318.152 372.4 318.255 372.503L327.914 378.155C327.709 378.155 327.606 378.052 327.503 378.052Z" fill="#2B2B45"/>
<path d="M327.915 378.155L318.256 372.503C318.359 372.503 318.564 372.606 318.667 372.606L328.326 378.258C328.224 378.155 328.018 378.155 327.915 378.155Z" fill="#2A2A43"/>
<path d="M328.325 378.258L318.666 372.606C318.769 372.606 318.974 372.709 319.077 372.709L328.737 378.361C328.634 378.361 328.428 378.258 328.325 378.258Z" fill="#292941"/>
<path d="M328.738 378.36L319.078 372.708C319.181 372.811 319.386 372.811 319.489 372.914L329.149 378.565C329.046 378.463 328.84 378.463 328.738 378.36Z" fill="#28283F"/>
<path d="M329.148 378.566L319.488 372.914L329.148 378.566Z" fill="#26263D"/>
<path d="M324.216 377.229L314.557 371.578C314.968 371.269 315.481 371.064 315.893 370.961L325.552 376.613C325.141 376.716 324.627 376.921 324.216 377.229Z" fill="#32324F"/>
<path d="M325.552 376.612L315.893 370.96C316.304 370.857 316.612 370.652 316.92 370.549L326.58 376.201C326.271 376.303 325.86 376.406 325.552 376.612Z" fill="#30304D"/>
<path d="M326.579 376.2L316.92 370.548C317.228 370.446 317.434 370.446 317.742 370.343L327.401 375.995C327.093 376.097 326.888 376.097 326.579 376.2Z" fill="#2F2F4B"/>
<path d="M327.402 375.996L317.742 370.344C317.948 370.344 318.153 370.241 318.359 370.241L328.018 375.893C327.813 375.996 327.607 375.996 327.402 375.996Z" fill="#2E2E49"/>
<path d="M328.019 375.995L318.359 370.343C318.565 370.343 318.77 370.343 318.976 370.343L328.635 375.995C328.43 375.995 328.224 375.995 328.019 375.995Z" fill="#2D2D47"/>
<path d="M328.634 375.995L318.975 370.343C319.18 370.343 319.283 370.343 319.488 370.446L329.148 376.097C328.942 375.995 328.84 375.995 328.634 375.995Z" fill="#2B2B45"/>
<path d="M329.148 375.995L319.488 370.343C319.694 370.343 319.797 370.446 320.002 370.446L329.662 376.097C329.456 376.097 329.353 376.097 329.148 375.995Z" fill="#2A2A43"/>
<path d="M329.661 376.099L320.002 370.447C320.207 370.447 320.31 370.55 320.413 370.653L330.072 376.305C329.97 376.202 329.764 376.202 329.661 376.099Z" fill="#292941"/>
<path d="M330.074 376.304L320.414 370.652C320.517 370.755 320.722 370.755 320.825 370.858L330.485 376.51C330.382 376.407 330.279 376.407 330.074 376.304Z" fill="#28283F"/>
<path d="M330.587 376.509L320.928 370.857L330.587 376.509Z" fill="#26263D"/>
<path d="M324.216 377.228L314.557 371.577C314.968 371.268 315.481 371.063 315.893 370.96L325.552 376.612C325.141 376.715 324.627 376.92 324.216 377.228Z" fill="#32324F"/>
<path d="M324.216 377.228L314.557 371.577C314.968 371.268 315.481 371.063 315.893 370.96L325.552 376.612C325.141 376.715 324.627 376.92 324.216 377.228Z" fill="#32324F"/>
<path d="M318.154 383.598L308.494 377.947C308.494 377.947 308.494 377.947 308.494 377.844L318.154 383.598Z" fill="#292941"/>
<path d="M318.255 383.598L308.596 377.947C308.698 377.741 308.801 377.536 308.904 377.33L318.563 382.982C318.461 383.187 318.358 383.393 318.255 383.598Z" fill="#2A2A43"/>
<path d="M318.566 382.982L308.906 377.33C309.009 377.125 309.112 376.919 309.317 376.714L318.977 382.366C318.771 382.571 318.668 382.777 318.566 382.982Z" fill="#2B2B45"/>
<path d="M318.872 382.366L309.213 376.714C309.316 376.509 309.521 376.303 309.624 376.098L319.283 381.749C319.181 381.955 319.078 382.161 318.872 382.366Z" fill="#2D2D47"/>
<path d="M319.284 381.749L309.625 376.097C309.831 375.891 309.933 375.686 310.139 375.48L319.798 381.132C319.593 381.338 319.49 381.543 319.284 381.749Z" fill="#2E2E49"/>
<path d="M319.798 381.133L310.139 375.481C310.344 375.276 310.55 374.967 310.755 374.762L320.415 380.414C320.209 380.619 320.004 380.825 319.798 381.133Z" fill="#2F2F4B"/>
<path d="M320.415 380.414L310.756 374.762C311.064 374.453 311.27 374.145 311.578 373.837L321.237 379.489C320.929 379.797 320.621 380.105 320.415 380.414Z" fill="#30304D"/>
<path d="M321.236 379.489L311.576 373.837C312.501 372.912 313.529 372.193 314.556 371.576L324.216 377.228C323.085 377.845 322.16 378.667 321.236 379.489Z" fill="#32324F"/>
<path d="M317.64 384.217L307.98 378.565H308.083C308.186 378.565 308.186 378.462 308.289 378.359L317.948 384.011C317.845 384.114 317.743 384.114 317.64 384.217Z" fill="#32324F"/>
<path d="M317.949 384.011L308.289 378.36C308.289 378.36 308.289 378.36 308.392 378.257L317.949 384.011C317.949 384.011 317.949 383.909 317.949 384.011Z" fill="#30304D"/>
<path d="M317.949 383.908L308.289 378.256C308.289 378.256 308.289 378.256 308.392 378.153L317.949 383.908C317.949 383.908 318.051 383.908 317.949 383.908Z" fill="#2F2F4B"/>
<path d="M318.052 383.806L308.393 378.154C308.393 378.154 308.393 378.155 308.393 378.052L318.052 383.806Z" fill="#2E2E49"/>
<path d="M318.052 383.806L308.393 378.154C308.393 378.154 308.393 378.155 308.393 378.052L318.052 383.806Z" fill="#2D2D47"/>
<path d="M318.154 383.703L308.494 378.051C308.494 378.051 308.494 378.051 308.494 377.948L318.154 383.703Z" fill="#2B2B45"/>
<path d="M318.154 383.703L308.494 378.051C308.494 378.051 308.494 378.051 308.494 377.948L318.154 383.703C318.154 383.703 318.154 383.6 318.154 383.703Z" fill="#2A2A43"/>
<path d="M318.154 383.6L308.494 377.949C308.494 377.949 308.494 377.948 308.494 377.846L318.154 383.6Z" fill="#292941"/>
<path d="M317.433 384.218L307.773 378.566L317.433 384.218Z" fill="#2E2E49"/>
<path d="M317.433 384.218L307.773 378.566C307.773 378.566 307.773 378.566 307.876 378.566L317.433 384.218C317.433 384.218 317.536 384.218 317.433 384.218Z" fill="#2F2F4B"/>
<path d="M317.536 384.218L307.877 378.566C307.877 378.566 307.877 378.566 307.98 378.566L317.536 384.218Z" fill="#30304D"/>
<path d="M317.638 384.218L307.979 378.566H308.081C308.184 378.566 308.184 378.463 308.287 378.36L317.946 384.012C317.844 384.115 317.741 384.115 317.638 384.218Z" fill="#32324F"/>
<path d="M317.23 384.216L307.57 378.564L317.23 384.216Z" fill="#26263D"/>
<path d="M317.23 384.216L307.57 378.564L317.23 384.216Z" fill="#28283F"/>
<path d="M317.23 384.216L307.57 378.564L317.23 384.216Z" fill="#292941"/>
<path d="M317.333 384.216L307.674 378.564L317.333 384.216Z" fill="#2A2A43"/>
<path d="M317.333 384.216L307.674 378.564L317.333 384.216Z" fill="#2B2B45"/>
<path d="M317.333 384.216L307.674 378.564L317.333 384.216C317.333 384.216 317.436 384.216 317.333 384.216Z" fill="#2D2D47"/>
<path d="M317.435 384.216L307.775 378.564L317.435 384.216Z" fill="#2E2E49"/>
<path d="M317.64 383.395L307.98 377.846L308.289 377.949L317.948 383.498L317.64 383.395Z" fill="#2A2A43"/>
<path d="M318.976 381.339C318.976 381.236 319.079 381.236 319.079 381.134C319.285 380.928 319.387 380.62 319.593 380.414C319.696 380.312 319.798 380.209 319.901 380.106C320.004 379.901 320.209 379.798 320.312 379.592C320.518 379.387 320.62 379.284 320.826 379.078C320.929 378.976 321.134 378.77 321.237 378.667C321.34 378.565 321.443 378.462 321.545 378.359C321.751 378.154 321.854 378.051 322.059 377.948C322.162 377.845 322.265 377.743 322.367 377.64C322.573 377.537 322.778 377.332 322.984 377.229C323.087 377.126 323.189 377.126 323.292 377.023C323.6 376.818 323.909 376.612 324.217 376.407C324.525 376.201 324.834 376.098 325.142 375.893C325.245 375.893 325.347 375.79 325.347 375.79C325.656 375.687 325.861 375.585 326.169 375.482C326.478 375.379 326.683 375.276 326.889 375.276C326.992 375.276 327.197 375.174 327.3 375.174C327.505 375.174 327.608 375.071 327.814 375.071C327.916 375.071 328.019 375.071 328.122 375.071C328.327 375.071 328.533 375.071 328.738 375.071C328.841 375.071 328.841 375.071 328.944 375.071C329.15 375.071 329.458 375.071 329.663 375.174H329.766C329.972 375.174 330.177 375.276 330.28 375.276C330.383 375.276 330.383 375.276 330.485 375.379C330.691 375.482 330.896 375.585 331.102 375.687L321.443 370.036C321.34 369.933 321.134 369.83 320.929 369.83H320.826C320.723 369.83 320.723 369.83 320.62 369.727C320.518 369.727 320.518 369.624 320.415 369.624C320.312 369.624 320.209 369.625 320.107 369.522H320.004C320.004 369.522 320.004 369.522 319.901 369.522C319.696 369.522 319.49 369.419 319.285 369.419C319.285 369.419 319.285 369.419 319.182 369.419C319.079 369.419 319.079 369.419 318.976 369.419C318.874 369.419 318.771 369.419 318.565 369.419C318.462 369.419 318.462 369.419 318.36 369.419C318.257 369.419 318.154 369.419 318.051 369.419C317.949 369.419 317.949 369.419 317.846 369.419C317.743 369.419 317.64 369.419 317.538 369.522C317.435 369.522 317.229 369.624 317.127 369.624C317.024 369.624 317.024 369.624 316.921 369.624C316.716 369.727 316.51 369.727 316.304 369.83C316.099 369.933 315.996 369.933 315.791 370.036C315.688 370.036 315.585 370.138 315.482 370.138C315.38 370.138 315.277 370.241 315.277 370.241C314.969 370.344 314.66 370.549 314.352 370.755C314.044 370.96 313.735 371.166 313.427 371.371C313.324 371.474 313.222 371.474 313.119 371.577C312.913 371.68 312.708 371.885 312.502 371.988C312.4 372.091 312.297 372.194 312.194 372.296C311.989 372.399 311.886 372.605 311.68 372.707C311.578 372.81 311.475 372.913 311.372 373.016C311.269 373.118 311.166 373.118 311.166 373.221C311.064 373.324 311.064 373.324 310.961 373.427C310.755 373.632 310.653 373.735 310.447 373.94C310.344 374.043 310.344 374.043 310.242 374.146C310.139 374.249 310.139 374.351 310.036 374.351C309.933 374.454 309.831 374.557 309.728 374.66C309.625 374.763 309.625 374.763 309.522 374.865C309.42 375.071 309.317 375.174 309.111 375.379C309.111 375.482 309.009 375.482 309.009 375.585C309.009 375.585 309.009 375.585 309.009 375.687C308.906 375.893 308.7 376.098 308.597 376.407C308.597 376.509 308.495 376.509 308.495 376.612C308.495 376.715 308.392 376.715 308.392 376.818C308.289 376.92 308.289 377.023 308.186 377.126C308.084 377.331 307.981 377.537 307.775 377.845L317.435 383.497C317.64 383.189 317.846 382.881 317.949 382.572C317.949 382.47 318.051 382.47 318.051 382.367C318.565 381.956 318.771 381.647 318.976 381.339Z" fill="#6DC2C4"/>
<path d="M317.228 384.217L307.569 378.565C307.466 378.463 307.363 378.36 307.363 378.154L317.023 383.806C317.023 384.012 317.125 384.114 317.228 384.217Z" fill="#202033"/>
<path d="M317.023 383.806L307.363 378.154V369.214L317.023 374.866V383.806Z" fill="#212135"/>
<path d="M315.277 375.79L305.617 370.139L307.364 369.214L317.024 374.866L315.277 375.79Z" fill="#353555"/>
<path d="M315.379 402.2L305.72 396.548L305.617 370.139L315.277 375.79L315.379 402.2Z" fill="#212135"/>
<path d="M314.762 402.508L314.659 376.099L305 370.447L305.103 396.857C305.103 397.062 305.206 397.165 305.308 397.268L314.968 402.92C314.762 402.92 314.762 402.714 314.762 402.508Z" fill="#E43C5A"/>
<path d="M324.216 376.51C321.544 378.051 319.283 380.415 317.742 383.395L317.947 383.497L317.639 383.395V374.455C317.639 374.044 317.331 373.838 317.022 374.044L315.378 374.968C314.967 375.174 314.762 375.688 314.762 376.099L314.864 402.508C314.864 402.919 315.173 403.125 315.481 402.919L317.125 401.994C317.536 401.789 317.742 401.275 317.742 400.864V398.912C319.283 400.042 321.647 399.836 324.216 398.295C329.662 395.109 333.772 388.122 333.772 381.853C333.772 375.79 329.559 373.427 324.216 376.51ZM317.536 391.204C317.536 389.047 318.358 386.478 319.694 384.217C320.927 382.264 322.469 380.723 324.113 379.798C324.421 379.593 324.729 379.49 325.038 379.284C327.812 378.051 330.484 379.798 330.69 382.984C330.792 385.244 330.176 387.711 328.943 389.971C327.71 392.129 326.065 393.979 324.113 395.007C320.516 397.165 317.536 395.418 317.536 391.204Z" fill="#3E3E63"/>
<path d="M317.228 374.043C317.331 374.043 317.331 374.043 317.434 374.043L307.774 368.392C307.774 368.392 307.774 368.392 307.672 368.392C307.672 368.392 307.672 368.392 307.569 368.392H307.466L305.822 369.316C305.719 369.316 305.719 369.419 305.616 369.522C305.616 369.522 305.616 369.522 305.514 369.625C305.514 369.625 305.514 369.625 305.514 369.728C305.514 369.728 305.514 369.728 305.514 369.83C305.514 369.83 305.514 369.83 305.514 369.933C305.514 369.933 305.514 369.933 305.514 370.036C305.514 370.036 305.514 370.036 305.514 370.139C305.514 370.139 305.514 370.139 305.514 370.241C305.514 370.241 305.514 370.241 305.514 370.344C305.514 370.344 305.514 370.344 305.514 370.447V370.55V370.652L315.173 376.304C315.173 376.201 315.173 376.099 315.173 375.996C315.173 375.893 315.276 375.79 315.276 375.688C315.379 375.585 315.379 375.482 315.481 375.379C315.584 375.277 315.687 375.277 315.687 375.174L317.331 374.249C317.023 374.043 317.126 374.043 317.228 374.043Z" fill="#6DC2C4"/>
<rect x="391.756" y="112.979" width="8.42922" height="43.3949" transform="rotate(66.0647 391.756 112.979)" fill="#3E3E63"/>
<rect x="386.287" y="143.756" width="8.42922" height="43.3949" transform="rotate(156.065 386.287 143.756)" fill="#3E3E63"/>
</svg>
