<svg width="982" height="982" viewBox="0 0 982 982" fill="none" xmlns="http://www.w3.org/2000/svg">
<path d="M982 491C982 762.172 762.172 982 491 982C219.828 982 0 762.172 0 491C0 219.828 219.828 0 491 0C762.172 0 982 219.828 982 491Z" fill="#E43C5A"/>
<path d="M0 0H483V982H0V0Z" fill="#E43C5A"/>
<mask id="mask0_1602_25272" style="mask-type:alpha" maskUnits="userSpaceOnUse" x="0" y="0" width="982" height="982">
<path d="M982 491C982 762.172 762.172 982 491 982C219.828 982 0 762.172 0 491C0 219.828 219.828 0 491 0C762.172 0 982 219.828 982 491Z" fill="#E43C5A"/>
<path d="M0 0H483V982H0V0Z" fill="#E43C5A"/>
</mask>
<g mask="url(#mask0_1602_25272)">
<g style="mix-blend-mode:luminosity" opacity="0.5">
<path d="M247.514 351.539C247.514 360.192 239.35 360.192 239.35 368.845C239.35 377.498 247.514 377.498 247.514 386.151C247.514 394.804 239.35 394.804 239.35 403.457C239.35 412.11 247.514 412.11 247.514 420.763C247.514 429.416 239.35 429.416 239.35 438.069C239.35 446.722 247.514 446.722 247.514 455.375C247.514 464.028 239.35 464.028 239.35 472.694C239.35 481.361 247.514 481.347 247.514 490" stroke="#E43C5A" stroke-width="3" stroke-miterlimit="10" stroke-linecap="round"/>
<path d="M231.09 351.539C231.09 360.192 222.927 360.192 222.927 368.845C222.927 377.498 231.09 377.498 231.09 386.151C231.09 394.804 222.927 394.804 222.927 403.457C222.927 412.11 231.09 412.11 231.09 420.763C231.09 429.416 222.927 429.416 222.927 438.069C222.927 446.722 231.09 446.722 231.09 455.375C231.09 464.028 222.927 464.028 222.927 472.694C222.927 481.361 231.09 481.347 231.09 490" stroke="#E43C5A" stroke-width="3" stroke-miterlimit="10" stroke-linecap="round"/>
<path d="M509 198.562C500.346 198.562 500.346 190.399 491.693 190.399C483.039 190.399 483.039 198.562 474.385 198.562C465.732 198.562 465.732 190.399 457.078 190.399C448.425 190.399 448.425 198.562 439.771 198.562C431.117 198.562 431.117 190.399 422.464 190.399C413.81 190.399 413.81 198.562 405.156 198.562C396.503 198.562 396.503 190.399 387.836 190.399C379.168 190.399 379.182 198.562 370.515 198.562" stroke="#E9DF67" stroke-width="2" stroke-miterlimit="10" stroke-linecap="round"/>
<path d="M509 182.14C500.346 182.14 500.346 173.977 491.693 173.977C483.039 173.977 483.039 182.14 474.385 182.14C465.732 182.14 465.732 173.977 457.078 173.977C448.425 173.977 448.425 182.14 439.771 182.14C431.117 182.14 431.117 173.977 422.464 173.977C413.81 173.977 413.81 182.14 405.156 182.14C396.503 182.14 396.503 173.977 387.836 173.977C379.168 173.977 379.182 182.14 370.515 182.14" stroke="#E9DF67" stroke-width="2" stroke-miterlimit="10" stroke-linecap="round"/>
<path d="M509 165.733C500.346 165.733 500.346 157.57 491.693 157.57C483.039 157.57 483.039 165.733 474.385 165.733C465.732 165.733 465.732 157.57 457.078 157.57C448.425 157.57 448.425 165.733 439.771 165.733C431.117 165.733 431.117 157.57 422.464 157.57C413.81 157.57 413.81 165.733 405.156 165.733C396.503 165.733 396.503 157.57 387.836 157.57C379.168 157.57 379.182 165.733 370.515 165.733" stroke="#E9DF67" stroke-width="2" stroke-miterlimit="10" stroke-linecap="round"/>
<path opacity="0.99" d="M156.27 82.5632L156.27 92.8488L146.255 92.8488L146.255 100.522L156.27 100.522L156.27 110.808L164.216 110.808L164.216 100.522L174.257 100.522L174.257 92.8488L164.216 92.8488L164.216 82.5632L156.27 82.5632Z" fill="#E9DF67"/>
<g opacity="0.99">
<path opacity="0.99" d="M186.72 366.219L183.522 363.035L179.25 367.307L175.25 363.294L172.066 366.491L176.066 370.491L171.794 374.763L174.977 377.96L179.25 373.675L183.277 377.702L186.461 374.518L182.447 370.491L186.72 366.219Z" fill="#6DC2C4"/>
</g>
<g opacity="0.99">
<path opacity="0.99" d="M130.716 456.436L132.512 452.313L126.974 449.892L129.233 444.694L125.097 442.898L122.838 448.096L117.3 445.688L115.504 449.823L121.042 452.232L118.77 457.442L122.906 459.238L125.165 454.028L130.716 456.436Z" fill="#E43C5A"/>
</g>
<g opacity="0.99">
<path opacity="0.99" d="M411.81 114.1L408.626 110.903L404.354 115.189L400.34 111.175L397.156 114.359L401.17 118.372L396.898 122.644L400.082 125.828L404.354 121.556L408.382 125.57L411.565 122.386L407.538 118.372L411.81 114.1Z" fill="#6DC2C4"/>
</g>
<g opacity="0.99">
<path opacity="0.99" d="M337.41 353.553L335.764 351.907L333.559 354.111L331.478 352.043L329.831 353.689L331.913 355.757L329.695 357.975L331.341 359.621L333.559 357.403L335.641 359.485L337.287 357.839L335.206 355.757L337.41 353.553Z" fill="#6DC2C4"/>
</g>
<path d="M52.3719 179.923C48.0591 173.747 46.3732 166.112 47.6844 158.694C48.9956 151.277 53.1967 144.682 59.3656 140.359C62.4254 138.217 65.8771 136.699 69.5237 135.891C73.1702 135.084 76.9402 135.002 80.6183 135.652C84.2963 136.301 87.8104 137.669 90.9599 139.676C94.1093 141.684 96.8324 144.292 98.9736 147.352" fill="#E43C5A"/>
<path d="M302.266 110.903C302.266 103.362 305.262 96.1292 310.595 90.7967C315.928 85.4641 323.161 82.4683 330.703 82.4683C338.245 82.4683 345.478 85.4641 350.811 90.7967C356.144 96.1293 359.14 103.362 359.14 110.903" stroke="#6DC2C4" stroke-width="2" stroke-miterlimit="10"/>
<path d="M153.97 353.839C153.97 354.906 154.835 355.771 155.902 355.771C156.969 355.771 157.834 354.906 157.834 353.839C157.834 352.772 156.969 351.907 155.902 351.907C154.835 351.907 153.97 352.772 153.97 353.839Z" fill="#E43C5A"/>
<path d="M419.252 55.8698C419.252 62.9029 424.954 68.6043 431.988 68.6043C439.021 68.6043 444.723 62.9029 444.723 55.8698C444.723 48.8367 439.022 43.1353 431.988 43.1353C424.954 43.1353 419.252 48.8367 419.252 55.8698Z" fill="#E43C5A"/>
<path d="M451.745 42.3599C451.745 44.0956 453.152 45.5027 454.888 45.5027C456.624 45.5027 458.031 44.0956 458.031 42.3599C458.031 40.6241 456.624 39.217 454.888 39.217C453.152 39.217 451.745 40.6241 451.745 42.3599Z" fill="#E9DF67"/>
<path d="M297.449 43.1353C297.449 44.2023 298.314 45.0673 299.381 45.0673C300.448 45.0673 301.313 44.2023 301.313 43.1353C301.313 42.0683 300.448 41.2034 299.381 41.2034C298.314 41.2034 297.449 42.0683 297.449 43.1353Z" fill="#E43C5A"/>
<path d="M29.5815 52.0194L29.5815 23.4348L58.1548 23.4348L29.5815 52.0194Z" fill="#E9DF67"/>
<path d="M189.862 282.483L198.04 274.306L189.862 266.129L181.684 274.306L189.862 282.483Z" stroke="#E9DF67" stroke-width="2" stroke-miterlimit="10"/>
<path d="M402.3 376.192C407.866 371.104 415.224 368.433 422.759 368.767C430.293 369.101 437.386 372.413 442.479 377.974C445 380.73 446.953 383.955 448.227 387.466C449.501 390.977 450.071 394.704 449.904 398.434C449.737 402.165 448.837 405.827 447.255 409.21C445.673 412.593 443.44 415.631 440.683 418.151" stroke="#E9DF67" stroke-width="5" stroke-miterlimit="10"/>
<path d="M-0.00021291 279.132C7.54181 279.132 14.7749 282.128 20.1079 287.46C25.441 292.793 28.437 300.025 28.437 307.567C28.437 315.108 25.441 322.341 20.1079 327.673C14.7749 333.006 7.5418 336.002 -0.000215396 336.002" stroke="#E9DF67" stroke-width="5" stroke-miterlimit="10"/>
<path d="M350.486 229.337C350.486 234.664 354.805 238.983 360.133 238.983C365.46 238.983 369.78 234.664 369.78 229.337C369.78 224.009 365.46 219.691 360.133 219.691C354.805 219.691 350.486 224.009 350.486 229.337Z" fill="#E43C5A"/>
<path d="M275.067 155.583L267.624 183.351L239.853 190.793L247.296 163.025L275.067 155.583Z" fill="#E9DF67"/>
<path d="M247.296 163.025L226.968 142.685L219.525 170.453L239.853 190.793L247.296 163.025Z" fill="#6DC2C4"/>
<path d="M275.067 155.583L254.739 135.256L226.968 142.685L247.296 163.025L275.067 155.583Z" fill="#E43C5A"/>
<path d="M441.675 260.697L462.071 266.166L467.527 286.561L447.131 281.091L441.675 260.697Z" fill="#E9DF67"/>
<path d="M447.131 281.091L432.205 296.016L452.601 301.485L467.527 286.56L447.131 281.091Z" fill="#6DC2C4"/>
<path d="M441.676 260.697L426.75 275.636L432.206 296.016L447.132 281.091L441.676 260.697Z" fill="#E43C5A"/>
<path d="M339.846 395.647L353.316 418.98L339.846 442.327L326.362 418.98L339.846 395.647Z" fill="#E43C5A"/>
<path d="M326.362 418.98L299.408 418.98L312.892 442.327L339.846 442.327L326.362 418.98Z" fill="#E9DF67"/>
<path d="M339.846 395.647L312.892 395.647L299.408 418.98L326.362 418.98L339.846 395.647Z" fill="#6DC2C4"/>
<path d="M90.9994 262.438L117.028 269.404L124.008 295.445L97.9658 288.465L90.9994 262.438Z" fill="#E43C5A"/>
<path d="M97.9658 288.466L78.9033 307.527L104.946 314.506L124.008 295.445L97.9658 288.466Z" fill="#6DC2C4"/>
<path d="M90.9999 262.438L71.9374 281.499L78.9038 307.526L97.9663 288.465L90.9999 262.438Z" fill="#E9DF67"/>
<path d="M164.705 23.435C164.698 17.7 162.416 12.2019 158.361 8.14662C154.305 4.09133 148.807 1.80983 143.071 1.80263C137.333 1.80622 131.831 4.08612 127.773 8.14181C123.714 12.1975 121.431 17.6976 121.423 23.435C121.42 26.2805 121.977 29.0988 123.063 31.7289C124.149 34.3591 125.743 36.7494 127.753 38.7634C129.764 40.7774 132.151 42.3756 134.78 43.4666C137.408 44.5575 140.225 45.12 143.071 45.1218C148.807 45.1146 154.305 42.8332 158.361 38.7779C162.416 34.7226 164.698 29.2244 164.705 23.4894L164.705 23.435ZM171.508 23.4894C171.508 31.0308 168.512 38.2634 163.179 43.596C157.846 48.9286 150.613 51.9244 143.071 51.9244C135.528 51.9244 128.293 48.929 122.958 43.5968C117.623 38.2646 114.624 31.0321 114.62 23.4894C114.615 19.75 115.347 16.0463 116.774 12.5901C118.202 9.13383 120.296 5.99285 122.939 3.34683C125.581 0.700814 128.719 -1.39836 132.174 -2.83059C135.628 -4.26281 139.331 -5.00001 143.071 -5C150.613 -5 157.846 -2.00411 163.179 3.32848C168.512 8.66108 171.508 15.8936 171.508 23.435L171.508 23.4894Z" fill="#6DC2C4"/>
<path d="M316.226 264.874C316.208 262.011 315.063 259.27 313.038 257.245C311.013 255.221 308.272 254.075 305.409 254.058C302.534 254.058 299.775 255.195 297.736 257.221C295.696 259.248 294.542 261.999 294.524 264.874C294.524 267.76 295.67 270.529 297.712 272.57C299.753 274.611 302.522 275.758 305.409 275.758C308.284 275.74 311.035 274.585 313.062 272.546C315.088 270.507 316.226 267.749 316.226 264.874ZM319.627 264.874C319.633 266.744 319.269 268.597 318.557 270.327C317.845 272.057 316.798 273.629 315.477 274.953C314.156 276.278 312.587 277.329 310.859 278.046C309.132 278.763 307.279 279.132 305.409 279.132C303.54 279.134 301.69 278.767 299.963 278.054C298.237 277.34 296.668 276.293 295.346 274.973C294.024 273.652 292.976 272.084 292.26 270.358C291.545 268.633 291.177 266.783 291.177 264.915C291.177 263.046 291.545 261.196 292.26 259.471C292.976 257.745 294.024 256.177 295.346 254.856C296.668 253.536 298.237 252.489 299.963 251.775C301.69 251.062 303.54 250.695 305.409 250.697C309.18 250.697 312.796 252.195 315.463 254.861C318.129 257.528 319.627 261.144 319.627 264.915L319.627 264.874Z" fill="#6DC2C4"/>
<path d="M82.7817 394.369L82.7817 443.606L33.5404 443.606L82.7817 394.369Z" stroke="#6DC2C4" stroke-width="2" stroke-miterlimit="10"/>
<path d="M247.514 847.539C247.514 856.192 239.35 856.192 239.35 864.845C239.35 873.498 247.514 873.498 247.514 882.151C247.514 890.804 239.35 890.804 239.35 899.457C239.35 908.11 247.514 908.11 247.514 916.763C247.514 925.416 239.35 925.416 239.35 934.069C239.35 942.722 247.514 942.722 247.514 951.375C247.514 960.028 239.35 960.028 239.35 968.694C239.35 977.361 247.514 977.347 247.514 986" stroke="#E43C5A" stroke-width="3" stroke-miterlimit="10" stroke-linecap="round"/>
<path d="M231.09 847.539C231.09 856.192 222.927 856.192 222.927 864.845C222.927 873.498 231.09 873.498 231.09 882.151C231.09 890.804 222.927 890.804 222.927 899.457C222.927 908.11 231.09 908.11 231.09 916.763C231.09 925.416 222.927 925.416 222.927 934.069C222.927 942.722 231.09 942.722 231.09 951.375C231.09 960.028 222.927 960.028 222.927 968.694C222.927 977.361 231.09 977.347 231.09 986" stroke="#E43C5A" stroke-width="3" stroke-miterlimit="10" stroke-linecap="round"/>
<path d="M509 694.562C500.346 694.562 500.346 686.399 491.693 686.399C483.039 686.399 483.039 694.562 474.385 694.562C465.732 694.562 465.732 686.399 457.078 686.399C448.425 686.399 448.425 694.562 439.771 694.562C431.117 694.562 431.117 686.399 422.464 686.399C413.81 686.399 413.81 694.562 405.156 694.562C396.503 694.562 396.503 686.399 387.836 686.399C379.168 686.399 379.182 694.562 370.515 694.562" stroke="#E9DF67" stroke-width="2" stroke-miterlimit="10" stroke-linecap="round"/>
<path d="M509 678.14C500.346 678.14 500.346 669.977 491.693 669.977C483.039 669.977 483.039 678.14 474.385 678.14C465.732 678.14 465.732 669.977 457.078 669.977C448.425 669.977 448.425 678.14 439.771 678.14C431.117 678.14 431.117 669.977 422.464 669.977C413.81 669.977 413.81 678.14 405.156 678.14C396.503 678.14 396.503 669.977 387.836 669.977C379.168 669.977 379.182 678.14 370.515 678.14" stroke="#E9DF67" stroke-width="2" stroke-miterlimit="10" stroke-linecap="round"/>
<path d="M509 661.733C500.346 661.733 500.346 653.57 491.693 653.57C483.039 653.57 483.039 661.733 474.385 661.733C465.732 661.733 465.732 653.57 457.078 653.57C448.425 653.57 448.425 661.733 439.771 661.733C431.117 661.733 431.117 653.57 422.464 653.57C413.81 653.57 413.81 661.733 405.156 661.733C396.503 661.733 396.503 653.57 387.836 653.57C379.168 653.57 379.182 661.733 370.515 661.733" stroke="#E9DF67" stroke-width="2" stroke-miterlimit="10" stroke-linecap="round"/>
<path opacity="0.99" d="M156.27 578.563L156.27 588.849L146.255 588.849L146.255 596.522L156.27 596.522L156.27 606.808L164.216 606.808L164.216 596.522L174.257 596.522L174.257 588.849L164.216 588.849L164.216 578.563L156.27 578.563Z" fill="#E9DF67"/>
<g opacity="0.99">
<path opacity="0.99" d="M186.72 862.219L183.522 859.035L179.25 863.307L175.25 859.294L172.066 862.491L176.066 866.491L171.794 870.763L174.977 873.96L179.25 869.675L183.277 873.702L186.461 870.518L182.447 866.491L186.72 862.219Z" fill="#6DC2C4"/>
</g>
<g opacity="0.99">
<path opacity="0.99" d="M130.716 952.436L132.512 948.313L126.974 945.892L129.233 940.694L125.097 938.898L122.838 944.096L117.3 941.688L115.504 945.823L121.042 948.232L118.77 953.442L122.906 955.238L125.165 950.028L130.716 952.436Z" fill="#E43C5A"/>
</g>
<g opacity="0.99">
<path opacity="0.99" d="M411.81 610.1L408.626 606.903L404.354 611.189L400.34 607.175L397.156 610.359L401.17 614.372L396.898 618.644L400.082 621.828L404.354 617.556L408.382 621.57L411.565 618.386L407.538 614.372L411.81 610.1Z" fill="#6DC2C4"/>
</g>
<g opacity="0.99">
<path opacity="0.99" d="M337.41 849.553L335.764 847.907L333.559 850.111L331.478 848.043L329.831 849.689L331.913 851.757L329.695 853.975L331.341 855.621L333.559 853.403L335.641 855.485L337.287 853.839L335.206 851.757L337.41 849.553Z" fill="#6DC2C4"/>
</g>
<path d="M52.3719 675.923C48.0591 669.747 46.3732 662.112 47.6844 654.694C48.9956 647.277 53.1967 640.682 59.3656 636.359C62.4254 634.217 65.8771 632.699 69.5237 631.891C73.1702 631.084 76.9402 631.002 80.6183 631.652C84.2963 632.301 87.8104 633.669 90.9599 635.676C94.1093 637.684 96.8324 640.292 98.9736 643.352" fill="#E43C5A"/>
<path d="M302.266 606.903C302.266 599.362 305.262 592.129 310.595 586.797C315.928 581.464 323.161 578.468 330.703 578.468C338.245 578.468 345.478 581.464 350.811 586.797C356.144 592.129 359.14 599.362 359.14 606.903" stroke="#6DC2C4" stroke-width="2" stroke-miterlimit="10"/>
<path d="M153.97 849.839C153.97 850.906 154.835 851.771 155.902 851.771C156.969 851.771 157.834 850.906 157.834 849.839C157.834 848.772 156.969 847.907 155.902 847.907C154.835 847.907 153.97 848.772 153.97 849.839Z" fill="#E43C5A"/>
<path d="M419.252 551.87C419.252 558.903 424.954 564.604 431.988 564.604C439.021 564.604 444.723 558.903 444.723 551.87C444.723 544.837 439.022 539.135 431.988 539.135C424.954 539.135 419.252 544.837 419.252 551.87Z" fill="#E43C5A"/>
<path d="M451.745 538.36C451.745 540.096 453.152 541.503 454.888 541.503C456.624 541.503 458.031 540.096 458.031 538.36C458.031 536.624 456.624 535.217 454.888 535.217C453.152 535.217 451.745 536.624 451.745 538.36Z" fill="#E9DF67"/>
<path d="M297.449 539.135C297.449 540.202 298.314 541.067 299.381 541.067C300.448 541.067 301.313 540.202 301.313 539.135C301.313 538.068 300.448 537.203 299.381 537.203C298.314 537.203 297.449 538.068 297.449 539.135Z" fill="#E43C5A"/>
<path d="M29.5815 548.019L29.5815 519.435L58.1548 519.435L29.5815 548.019Z" fill="#E9DF67"/>
<path d="M189.862 778.483L198.04 770.306L189.862 762.129L181.684 770.306L189.862 778.483Z" stroke="#E9DF67" stroke-width="2" stroke-miterlimit="10"/>
<path d="M402.3 872.192C407.866 867.104 415.224 864.433 422.759 864.767C430.293 865.101 437.386 868.413 442.479 873.974C445 876.73 446.953 879.955 448.227 883.466C449.501 886.977 450.071 890.704 449.904 894.434C449.737 898.165 448.837 901.827 447.255 905.21C445.673 908.593 443.44 911.631 440.683 914.151" stroke="#E9DF67" stroke-width="5" stroke-miterlimit="10"/>
<path d="M-0.00021291 775.132C7.54181 775.132 14.7749 778.128 20.1079 783.46C25.441 788.793 28.437 796.025 28.437 803.567C28.437 811.108 25.441 818.341 20.1079 823.673C14.7749 829.006 7.5418 832.002 -0.000215396 832.002" stroke="#E9DF67" stroke-width="5" stroke-miterlimit="10"/>
<path d="M350.486 725.337C350.486 730.664 354.805 734.983 360.133 734.983C365.46 734.983 369.78 730.664 369.78 725.337C369.78 720.009 365.46 715.691 360.133 715.691C354.805 715.691 350.486 720.009 350.486 725.337Z" fill="#E43C5A"/>
<path d="M275.067 651.583L267.624 679.351L239.853 686.793L247.296 659.025L275.067 651.583Z" fill="#E9DF67"/>
<path d="M247.296 659.025L226.968 638.685L219.525 666.453L239.853 686.793L247.296 659.025Z" fill="#6DC2C4"/>
<path d="M275.067 651.583L254.739 631.256L226.968 638.685L247.296 659.025L275.067 651.583Z" fill="#E43C5A"/>
<path d="M441.675 756.697L462.071 762.166L467.527 782.561L447.131 777.091L441.675 756.697Z" fill="#E9DF67"/>
<path d="M447.131 777.091L432.205 792.016L452.601 797.485L467.527 782.56L447.131 777.091Z" fill="#6DC2C4"/>
<path d="M441.676 756.697L426.75 771.636L432.206 792.016L447.132 777.091L441.676 756.697Z" fill="#E43C5A"/>
<path d="M339.846 891.647L353.316 914.98L339.846 938.327L326.362 914.98L339.846 891.647Z" fill="#E43C5A"/>
<path d="M326.362 914.98L299.408 914.98L312.892 938.327L339.846 938.327L326.362 914.98Z" fill="#E9DF67"/>
<path d="M339.846 891.647L312.892 891.647L299.408 914.98L326.362 914.98L339.846 891.647Z" fill="#6DC2C4"/>
<path d="M90.9994 758.438L117.028 765.404L124.008 791.445L97.9658 784.465L90.9994 758.438Z" fill="#E43C5A"/>
<path d="M97.9658 784.466L78.9033 803.527L104.946 810.506L124.008 791.445L97.9658 784.466Z" fill="#6DC2C4"/>
<path d="M90.9999 758.438L71.9374 777.499L78.9038 803.526L97.9663 784.465L90.9999 758.438Z" fill="#E9DF67"/>
<path d="M164.705 519.435C164.698 513.7 162.416 508.202 158.361 504.147C154.305 500.091 148.807 497.81 143.071 497.803C137.333 497.806 131.831 500.086 127.773 504.142C123.714 508.197 121.431 513.698 121.423 519.435C121.42 522.281 121.977 525.099 123.063 527.729C124.149 530.359 125.743 532.749 127.753 534.763C129.764 536.777 132.151 538.376 134.78 539.467C137.408 540.558 140.225 541.12 143.071 541.122C148.807 541.115 154.305 538.833 158.361 534.778C162.416 530.723 164.698 525.224 164.705 519.489L164.705 519.435ZM171.508 519.489C171.508 527.031 168.512 534.263 163.179 539.596C157.846 544.929 150.613 547.924 143.071 547.924C135.528 547.924 128.293 544.929 122.958 539.597C117.623 534.265 114.624 527.032 114.62 519.489C114.615 515.75 115.347 512.046 116.774 508.59C118.202 505.134 120.296 501.993 122.939 499.347C125.581 496.701 128.719 494.602 132.174 493.169C135.628 491.737 139.331 491 143.071 491C150.613 491 157.846 493.996 163.179 499.328C168.512 504.661 171.508 511.894 171.508 519.435L171.508 519.489Z" fill="#6DC2C4"/>
<path d="M316.226 760.874C316.208 758.011 315.063 755.27 313.038 753.245C311.013 751.221 308.272 750.075 305.409 750.058C302.534 750.058 299.775 751.195 297.736 753.221C295.696 755.248 294.542 757.999 294.524 760.874C294.524 763.76 295.67 766.529 297.712 768.57C299.753 770.611 302.522 771.758 305.409 771.758C308.284 771.74 311.035 770.585 313.062 768.546C315.088 766.507 316.226 763.749 316.226 760.874ZM319.627 760.874C319.633 762.744 319.269 764.597 318.557 766.327C317.845 768.057 316.798 769.629 315.477 770.953C314.156 772.278 312.587 773.329 310.859 774.046C309.132 774.763 307.279 775.132 305.409 775.132C303.54 775.134 301.69 774.767 299.963 774.054C298.237 773.34 296.668 772.293 295.346 770.973C294.024 769.652 292.976 768.084 292.26 766.358C291.545 764.633 291.177 762.783 291.177 760.915C291.177 759.046 291.545 757.196 292.26 755.471C292.976 753.745 294.024 752.177 295.346 750.856C296.668 749.536 298.237 748.489 299.963 747.775C301.69 747.062 303.54 746.695 305.409 746.697C309.18 746.697 312.796 748.195 315.463 750.861C318.129 753.528 319.627 757.144 319.627 760.915L319.627 760.874Z" fill="#6DC2C4"/>
<path d="M82.7817 890.369L82.7817 939.606L33.5404 939.606L82.7817 890.369Z" stroke="#6DC2C4" stroke-width="2" stroke-miterlimit="10"/>
<path d="M756.514 352.539C756.514 361.192 748.35 361.192 748.35 369.845C748.35 378.498 756.514 378.498 756.514 387.151C756.514 395.804 748.35 395.804 748.35 404.457C748.35 413.11 756.514 413.11 756.514 421.763C756.514 430.416 748.35 430.416 748.35 439.069C748.35 447.722 756.514 447.722 756.514 456.375C756.514 465.028 748.35 465.028 748.35 473.694C748.35 482.361 756.514 482.347 756.514 491" stroke="#E43C5A" stroke-width="3" stroke-miterlimit="10" stroke-linecap="round"/>
<path d="M740.091 352.539C740.091 361.192 731.927 361.192 731.927 369.845C731.927 378.498 740.091 378.498 740.091 387.151C740.091 395.804 731.927 395.804 731.927 404.457C731.927 413.11 740.091 413.11 740.091 421.763C740.091 430.416 731.927 430.416 731.927 439.069C731.927 447.722 740.091 447.722 740.091 456.375C740.091 465.028 731.927 465.028 731.927 473.694C731.927 482.361 740.091 482.347 740.091 491" stroke="#E43C5A" stroke-width="3" stroke-miterlimit="10" stroke-linecap="round"/>
<path d="M1018 199.562C1009.35 199.562 1009.35 191.399 1000.69 191.399C992.039 191.399 992.039 199.562 983.385 199.562C974.732 199.562 974.732 191.399 966.078 191.399C957.425 191.399 957.425 199.562 948.771 199.562C940.117 199.562 940.117 191.399 931.464 191.399C922.81 191.399 922.81 199.562 914.156 199.562C905.503 199.562 905.503 191.399 896.836 191.399C888.168 191.399 888.182 199.562 879.515 199.562" stroke="#E9DF67" stroke-width="2" stroke-miterlimit="10" stroke-linecap="round"/>
<path d="M1018 183.14C1009.35 183.14 1009.35 174.977 1000.69 174.977C992.039 174.977 992.039 183.14 983.385 183.14C974.732 183.14 974.732 174.977 966.078 174.977C957.425 174.977 957.425 183.14 948.771 183.14C940.117 183.14 940.117 174.977 931.464 174.977C922.81 174.977 922.81 183.14 914.156 183.14C905.503 183.14 905.503 174.977 896.836 174.977C888.168 174.977 888.182 183.14 879.515 183.14" stroke="#E9DF67" stroke-width="2" stroke-miterlimit="10" stroke-linecap="round"/>
<path d="M1018 166.733C1009.35 166.733 1009.35 158.57 1000.69 158.57C992.039 158.57 992.039 166.733 983.385 166.733C974.732 166.733 974.732 158.57 966.078 158.57C957.425 158.57 957.425 166.733 948.771 166.733C940.117 166.733 940.117 158.57 931.464 158.57C922.81 158.57 922.81 166.733 914.156 166.733C905.503 166.733 905.503 158.57 896.836 158.57C888.168 158.57 888.182 166.733 879.515 166.733" stroke="#E9DF67" stroke-width="2" stroke-miterlimit="10" stroke-linecap="round"/>
<path opacity="0.99" d="M665.27 83.5632L665.27 93.8488L655.256 93.8488L655.256 101.522L665.27 101.522L665.27 111.808L673.216 111.808L673.216 101.522L683.258 101.522L683.258 93.8488L673.216 93.8488L673.216 83.5632L665.27 83.5632Z" fill="#E9DF67"/>
<g opacity="0.99">
<path opacity="0.99" d="M695.72 367.219L692.522 364.035L688.25 368.307L684.25 364.294L681.066 367.491L685.066 371.491L680.794 375.763L683.977 378.96L688.25 374.675L692.277 378.702L695.461 375.518L691.447 371.491L695.72 367.219Z" fill="#6DC2C4"/>
</g>
<g opacity="0.99">
<path opacity="0.99" d="M639.716 457.436L641.512 453.313L635.975 450.892L638.233 445.694L634.097 443.898L631.838 449.096L626.301 446.688L624.505 450.823L630.042 453.232L627.77 458.442L631.906 460.238L634.165 455.028L639.716 457.436Z" fill="#E43C5A"/>
</g>
<g opacity="0.99">
<path opacity="0.99" d="M920.81 115.1L917.626 111.903L913.354 116.189L909.34 112.175L906.156 115.359L910.17 119.372L905.898 123.644L909.082 126.828L913.354 122.556L917.382 126.57L920.565 123.386L916.538 119.372L920.81 115.1Z" fill="#6DC2C4"/>
</g>
<g opacity="0.99">
<path opacity="0.99" d="M846.41 354.553L844.764 352.907L842.559 355.111L840.478 353.043L838.831 354.689L840.913 356.757L838.695 358.975L840.341 360.621L842.559 358.403L844.641 360.485L846.287 358.839L844.206 356.757L846.41 354.553Z" fill="#6DC2C4"/>
</g>
<path d="M561.372 180.923C557.059 174.747 555.373 167.112 556.684 159.694C557.996 152.277 562.197 145.682 568.366 141.359C571.425 139.217 574.877 137.699 578.524 136.891C582.17 136.084 585.94 136.002 589.618 136.652C593.296 137.301 596.81 138.669 599.96 140.676C603.109 142.684 605.832 145.292 607.974 148.352" fill="#E43C5A"/>
<path d="M811.266 111.903C811.266 104.362 814.262 97.1292 819.595 91.7967C824.928 86.4641 832.161 83.4683 839.703 83.4683C847.245 83.4683 854.478 86.4641 859.811 91.7967C865.144 97.1293 868.14 104.362 868.14 111.903" stroke="#6DC2C4" stroke-width="2" stroke-miterlimit="10"/>
<path d="M662.97 354.839C662.97 355.906 663.835 356.771 664.902 356.771C665.969 356.771 666.834 355.906 666.834 354.839C666.834 353.772 665.969 352.907 664.902 352.907C663.835 352.907 662.97 353.772 662.97 354.839Z" fill="#E43C5A"/>
<path d="M928.252 56.8698C928.252 63.9029 933.954 69.6043 940.988 69.6043C948.021 69.6043 953.723 63.9029 953.723 56.8698C953.723 49.8367 948.022 44.1353 940.988 44.1353C933.954 44.1353 928.252 49.8367 928.252 56.8698Z" fill="#E43C5A"/>
<path d="M960.745 43.3599C960.745 45.0956 962.152 46.5027 963.888 46.5027C965.624 46.5027 967.031 45.0956 967.031 43.3599C967.031 41.6241 965.624 40.217 963.888 40.217C962.152 40.217 960.745 41.6241 960.745 43.3599Z" fill="#E9DF67"/>
<path d="M806.449 44.1353C806.449 45.2023 807.314 46.0673 808.381 46.0673C809.448 46.0673 810.313 45.2023 810.313 44.1353C810.313 43.0683 809.448 42.2034 808.381 42.2034C807.314 42.2034 806.449 43.0683 806.449 44.1353Z" fill="#E43C5A"/>
<path d="M538.581 53.0194L538.581 24.4348L567.155 24.4348L538.581 53.0194Z" fill="#E9DF67"/>
<path d="M698.861 283.483L707.039 275.306L698.861 267.129L690.683 275.306L698.861 283.483Z" stroke="#E9DF67" stroke-width="2" stroke-miterlimit="10"/>
<path d="M911.3 377.192C916.866 372.104 924.224 369.433 931.759 369.767C939.293 370.101 946.386 373.413 951.479 378.974C954 381.73 955.953 384.955 957.227 388.466C958.501 391.977 959.071 395.704 958.904 399.434C958.737 403.165 957.837 406.827 956.255 410.21C954.673 413.593 952.44 416.631 949.683 419.151" stroke="#E9DF67" stroke-width="5" stroke-miterlimit="10"/>
<path d="M509 280.132C516.542 280.132 523.775 283.128 529.108 288.46C534.441 293.793 537.437 301.025 537.437 308.567C537.437 316.108 534.441 323.341 529.108 328.673C523.775 334.006 516.542 337.002 509 337.002" stroke="#E9DF67" stroke-width="5" stroke-miterlimit="10"/>
<path d="M859.486 230.337C859.486 235.664 863.805 239.983 869.133 239.983C874.46 239.983 878.78 235.664 878.78 230.337C878.78 225.009 874.46 220.691 869.133 220.691C863.805 220.691 859.486 225.009 859.486 230.337Z" fill="#E43C5A"/>
<path d="M784.067 156.583L776.624 184.351L748.853 191.793L756.296 164.025L784.067 156.583Z" fill="#E9DF67"/>
<path d="M756.296 164.025L735.968 143.685L728.525 171.453L748.853 191.793L756.296 164.025Z" fill="#6DC2C4"/>
<path d="M784.067 156.583L763.739 136.256L735.968 143.685L756.296 164.025L784.067 156.583Z" fill="#E43C5A"/>
<path d="M950.675 261.697L971.071 267.166L976.527 287.561L956.131 282.091L950.675 261.697Z" fill="#E9DF67"/>
<path d="M956.131 282.091L941.205 297.016L961.601 302.485L976.527 287.56L956.131 282.091Z" fill="#6DC2C4"/>
<path d="M950.676 261.697L935.75 276.636L941.206 297.016L956.132 282.091L950.676 261.697Z" fill="#E43C5A"/>
<path d="M848.846 396.647L862.316 419.98L848.846 443.327L835.362 419.98L848.846 396.647Z" fill="#E43C5A"/>
<path d="M835.362 419.98L808.408 419.98L821.892 443.327L848.846 443.327L835.362 419.98Z" fill="#E9DF67"/>
<path d="M848.846 396.647L821.892 396.647L808.408 419.98L835.362 419.98L848.846 396.647Z" fill="#6DC2C4"/>
<path d="M600 263.438L626.029 270.404L633.009 296.445L606.966 289.465L600 263.438Z" fill="#E43C5A"/>
<path d="M606.966 289.466L587.904 308.527L613.946 315.506L633.009 296.445L606.966 289.466Z" fill="#6DC2C4"/>
<path d="M600 263.438L580.937 282.499L587.904 308.526L606.966 289.465L600 263.438Z" fill="#E9DF67"/>
<path d="M673.705 24.435C673.698 18.7 671.416 13.2019 667.361 9.14662C663.305 5.09133 657.807 2.80983 652.071 2.80263C646.333 2.80622 640.831 5.08612 636.773 9.14181C632.714 13.1975 630.431 18.6976 630.423 24.435C630.42 27.2805 630.977 30.0988 632.063 32.7289C633.149 35.3591 634.743 37.7494 636.753 39.7634C638.764 41.7774 641.151 43.3756 643.78 44.4666C646.408 45.5575 649.225 46.12 652.071 46.1218C657.807 46.1146 663.305 43.8332 667.361 39.7779C671.416 35.7226 673.698 30.2244 673.705 24.4894L673.705 24.435ZM680.508 24.4894C680.508 32.0308 677.512 39.2634 672.179 44.596C666.846 49.9286 659.613 52.9244 652.071 52.9244C644.528 52.9244 637.293 49.929 631.958 44.5968C626.623 39.2646 623.624 32.0321 623.62 24.4894C623.615 20.75 624.347 17.0463 625.774 13.5901C627.202 10.1338 629.296 6.99285 631.939 4.34683C634.581 1.70081 637.719 -0.398358 641.174 -1.83059C644.628 -3.26281 648.331 -4.00001 652.071 -4C659.613 -4 666.846 -1.00411 672.179 4.32848C677.512 9.66108 680.508 16.8936 680.508 24.435L680.508 24.4894Z" fill="#6DC2C4"/>
<path d="M825.226 265.874C825.208 263.011 824.063 260.27 822.038 258.245C820.013 256.221 817.272 255.075 814.409 255.058C811.534 255.058 808.775 256.195 806.736 258.221C804.696 260.248 803.542 262.999 803.524 265.874C803.524 268.76 804.67 271.529 806.712 273.57C808.753 275.611 811.522 276.758 814.409 276.758C817.284 276.74 820.035 275.585 822.062 273.546C824.088 271.507 825.226 268.749 825.226 265.874ZM828.627 265.874C828.633 267.744 828.269 269.597 827.557 271.327C826.845 273.057 825.798 274.629 824.477 275.953C823.156 277.278 821.587 278.329 819.859 279.046C818.132 279.763 816.279 280.132 814.409 280.132C812.54 280.134 810.69 279.767 808.963 279.054C807.237 278.34 805.668 277.293 804.346 275.973C803.024 274.652 801.976 273.084 801.26 271.358C800.545 269.633 800.177 267.783 800.177 265.915C800.177 264.046 800.545 262.196 801.26 260.471C801.976 258.745 803.024 257.177 804.346 255.856C805.668 254.536 807.237 253.489 808.963 252.775C810.69 252.062 812.54 251.695 814.409 251.697C818.18 251.697 821.796 253.195 824.463 255.861C827.129 258.528 828.627 262.144 828.627 265.915L828.627 265.874Z" fill="#6DC2C4"/>
<path d="M591.781 395.369L591.781 444.606L542.54 444.606L591.781 395.369Z" stroke="#6DC2C4" stroke-width="2" stroke-miterlimit="10"/>
<path d="M756.514 848.539C756.514 857.192 748.35 857.192 748.35 865.845C748.35 874.498 756.514 874.498 756.514 883.151C756.514 891.804 748.35 891.804 748.35 900.457C748.35 909.11 756.514 909.11 756.514 917.763C756.514 926.416 748.35 926.416 748.35 935.069C748.35 943.722 756.514 943.722 756.514 952.375C756.514 961.028 748.35 961.028 748.35 969.694C748.35 978.361 756.514 978.347 756.514 987" stroke="#E43C5A" stroke-width="3" stroke-miterlimit="10" stroke-linecap="round"/>
<path d="M740.091 848.539C740.091 857.192 731.927 857.192 731.927 865.845C731.927 874.498 740.091 874.498 740.091 883.151C740.091 891.804 731.927 891.804 731.927 900.457C731.927 909.11 740.091 909.11 740.091 917.763C740.091 926.416 731.927 926.416 731.927 935.069C731.927 943.722 740.091 943.722 740.091 952.375C740.091 961.028 731.927 961.028 731.927 969.694C731.927 978.361 740.091 978.347 740.091 987" stroke="#E43C5A" stroke-width="3" stroke-miterlimit="10" stroke-linecap="round"/>
<path d="M1018 695.562C1009.35 695.562 1009.35 687.399 1000.69 687.399C992.039 687.399 992.039 695.562 983.385 695.562C974.732 695.562 974.732 687.399 966.078 687.399C957.425 687.399 957.425 695.562 948.771 695.562C940.117 695.562 940.117 687.399 931.464 687.399C922.81 687.399 922.81 695.562 914.156 695.562C905.503 695.562 905.503 687.399 896.836 687.399C888.168 687.399 888.182 695.562 879.515 695.562" stroke="#E9DF67" stroke-width="2" stroke-miterlimit="10" stroke-linecap="round"/>
<path d="M1018 679.14C1009.35 679.14 1009.35 670.977 1000.69 670.977C992.039 670.977 992.039 679.14 983.385 679.14C974.732 679.14 974.732 670.977 966.078 670.977C957.425 670.977 957.425 679.14 948.771 679.14C940.117 679.14 940.117 670.977 931.464 670.977C922.81 670.977 922.81 679.14 914.156 679.14C905.503 679.14 905.503 670.977 896.836 670.977C888.168 670.977 888.182 679.14 879.515 679.14" stroke="#E9DF67" stroke-width="2" stroke-miterlimit="10" stroke-linecap="round"/>
<path d="M1018 662.733C1009.35 662.733 1009.35 654.57 1000.69 654.57C992.039 654.57 992.039 662.733 983.385 662.733C974.732 662.733 974.732 654.57 966.078 654.57C957.425 654.57 957.425 662.733 948.771 662.733C940.117 662.733 940.117 654.57 931.464 654.57C922.81 654.57 922.81 662.733 914.156 662.733C905.503 662.733 905.503 654.57 896.836 654.57C888.168 654.57 888.182 662.733 879.515 662.733" stroke="#E9DF67" stroke-width="2" stroke-miterlimit="10" stroke-linecap="round"/>
<path opacity="0.99" d="M665.27 579.563L665.27 589.849L655.256 589.849L655.256 597.522L665.27 597.522L665.27 607.808L673.216 607.808L673.216 597.522L683.258 597.522L683.258 589.849L673.216 589.849L673.216 579.563L665.27 579.563Z" fill="#E9DF67"/>
<g opacity="0.99">
<path opacity="0.99" d="M695.72 863.219L692.522 860.035L688.25 864.307L684.25 860.294L681.066 863.491L685.066 867.491L680.794 871.763L683.977 874.96L688.25 870.675L692.277 874.702L695.461 871.518L691.447 867.491L695.72 863.219Z" fill="#6DC2C4"/>
</g>
<g opacity="0.99">
<path opacity="0.99" d="M639.716 953.436L641.512 949.313L635.975 946.892L638.233 941.694L634.097 939.898L631.838 945.096L626.301 942.688L624.505 946.823L630.042 949.232L627.77 954.442L631.906 956.238L634.165 951.028L639.716 953.436Z" fill="#E43C5A"/>
</g>
<g opacity="0.99">
<path opacity="0.99" d="M920.81 611.1L917.626 607.903L913.354 612.189L909.34 608.175L906.156 611.359L910.17 615.372L905.898 619.644L909.082 622.828L913.354 618.556L917.382 622.57L920.565 619.386L916.538 615.372L920.81 611.1Z" fill="#6DC2C4"/>
</g>
<g opacity="0.99">
<path opacity="0.99" d="M846.41 850.553L844.764 848.907L842.559 851.111L840.478 849.043L838.831 850.689L840.913 852.757L838.695 854.975L840.341 856.621L842.559 854.403L844.641 856.485L846.287 854.839L844.206 852.757L846.41 850.553Z" fill="#6DC2C4"/>
</g>
<path d="M561.372 676.923C557.059 670.747 555.373 663.112 556.684 655.694C557.996 648.277 562.197 641.682 568.366 637.359C571.425 635.217 574.877 633.699 578.524 632.891C582.17 632.084 585.94 632.002 589.618 632.652C593.296 633.301 596.81 634.669 599.96 636.676C603.109 638.684 605.832 641.292 607.974 644.352" fill="#E43C5A"/>
<path d="M811.266 607.903C811.266 600.362 814.262 593.129 819.595 587.797C824.928 582.464 832.161 579.468 839.703 579.468C847.245 579.468 854.478 582.464 859.811 587.797C865.144 593.129 868.14 600.362 868.14 607.903" stroke="#6DC2C4" stroke-width="2" stroke-miterlimit="10"/>
<path d="M662.97 850.839C662.97 851.906 663.835 852.771 664.902 852.771C665.969 852.771 666.834 851.906 666.834 850.839C666.834 849.772 665.969 848.907 664.902 848.907C663.835 848.907 662.97 849.772 662.97 850.839Z" fill="#E43C5A"/>
<path d="M928.252 552.87C928.252 559.903 933.954 565.604 940.988 565.604C948.021 565.604 953.723 559.903 953.723 552.87C953.723 545.837 948.022 540.135 940.988 540.135C933.954 540.135 928.252 545.837 928.252 552.87Z" fill="#E43C5A"/>
<path d="M960.745 539.36C960.745 541.096 962.152 542.503 963.888 542.503C965.624 542.503 967.031 541.096 967.031 539.36C967.031 537.624 965.624 536.217 963.888 536.217C962.152 536.217 960.745 537.624 960.745 539.36Z" fill="#E9DF67"/>
<path d="M806.449 540.135C806.449 541.202 807.314 542.067 808.381 542.067C809.448 542.067 810.313 541.202 810.313 540.135C810.313 539.068 809.448 538.203 808.381 538.203C807.314 538.203 806.449 539.068 806.449 540.135Z" fill="#E43C5A"/>
<path d="M538.581 549.019L538.581 520.435L567.155 520.435L538.581 549.019Z" fill="#E9DF67"/>
<path d="M698.861 779.483L707.039 771.306L698.861 763.129L690.683 771.306L698.861 779.483Z" stroke="#E9DF67" stroke-width="2" stroke-miterlimit="10"/>
<path d="M911.3 873.192C916.866 868.104 924.224 865.433 931.759 865.767C939.293 866.101 946.386 869.413 951.479 874.974C954 877.73 955.953 880.955 957.227 884.466C958.501 887.977 959.071 891.704 958.904 895.434C958.737 899.165 957.837 902.827 956.255 906.21C954.673 909.593 952.44 912.631 949.683 915.151" stroke="#E9DF67" stroke-width="5" stroke-miterlimit="10"/>
<path d="M509 776.132C516.542 776.132 523.775 779.128 529.108 784.46C534.441 789.793 537.437 797.025 537.437 804.567C537.437 812.108 534.441 819.341 529.108 824.673C523.775 830.006 516.542 833.002 509 833.002" stroke="#E9DF67" stroke-width="5" stroke-miterlimit="10"/>
<path d="M859.486 726.337C859.486 731.664 863.805 735.983 869.133 735.983C874.46 735.983 878.78 731.664 878.78 726.337C878.78 721.009 874.46 716.691 869.133 716.691C863.805 716.691 859.486 721.009 859.486 726.337Z" fill="#E43C5A"/>
<path d="M784.067 652.583L776.624 680.351L748.853 687.793L756.296 660.025L784.067 652.583Z" fill="#E9DF67"/>
<path d="M756.296 660.025L735.968 639.685L728.525 667.453L748.853 687.793L756.296 660.025Z" fill="#6DC2C4"/>
<path d="M784.067 652.583L763.739 632.256L735.968 639.685L756.296 660.025L784.067 652.583Z" fill="#E43C5A"/>
<path d="M950.675 757.697L971.071 763.166L976.527 783.561L956.131 778.091L950.675 757.697Z" fill="#E9DF67"/>
<path d="M956.131 778.091L941.205 793.016L961.601 798.485L976.527 783.56L956.131 778.091Z" fill="#6DC2C4"/>
<path d="M950.676 757.697L935.75 772.636L941.206 793.016L956.132 778.091L950.676 757.697Z" fill="#E43C5A"/>
<path d="M848.846 892.647L862.316 915.98L848.846 939.327L835.362 915.98L848.846 892.647Z" fill="#E43C5A"/>
<path d="M835.362 915.98L808.408 915.98L821.892 939.327L848.846 939.327L835.362 915.98Z" fill="#E9DF67"/>
<path d="M848.846 892.647L821.892 892.647L808.408 915.98L835.362 915.98L848.846 892.647Z" fill="#6DC2C4"/>
<path d="M600 759.438L626.029 766.404L633.009 792.445L606.966 785.465L600 759.438Z" fill="#E43C5A"/>
<path d="M606.966 785.466L587.904 804.527L613.946 811.506L633.009 792.445L606.966 785.466Z" fill="#6DC2C4"/>
<path d="M600 759.438L580.937 778.499L587.904 804.526L606.966 785.465L600 759.438Z" fill="#E9DF67"/>
<path d="M673.705 520.435C673.698 514.7 671.416 509.202 667.361 505.147C663.305 501.091 657.807 498.81 652.071 498.803C646.333 498.806 640.831 501.086 636.773 505.142C632.714 509.197 630.431 514.698 630.423 520.435C630.42 523.281 630.977 526.099 632.063 528.729C633.149 531.359 634.743 533.749 636.753 535.763C638.764 537.777 641.151 539.376 643.78 540.467C646.408 541.558 649.225 542.12 652.071 542.122C657.807 542.115 663.305 539.833 667.361 535.778C671.416 531.723 673.698 526.224 673.705 520.489L673.705 520.435ZM680.508 520.489C680.508 528.031 677.512 535.263 672.179 540.596C666.846 545.929 659.613 548.924 652.071 548.924C644.528 548.924 637.293 545.929 631.958 540.597C626.623 535.265 623.624 528.032 623.62 520.489C623.615 516.75 624.347 513.046 625.774 509.59C627.202 506.134 629.296 502.993 631.939 500.347C634.581 497.701 637.719 495.602 641.174 494.169C644.628 492.737 648.331 492 652.071 492C659.613 492 666.846 494.996 672.179 500.328C677.512 505.661 680.508 512.894 680.508 520.435L680.508 520.489Z" fill="#6DC2C4"/>
<path d="M825.226 761.874C825.208 759.011 824.063 756.27 822.038 754.245C820.013 752.221 817.272 751.075 814.409 751.058C811.534 751.058 808.775 752.195 806.736 754.221C804.696 756.248 803.542 758.999 803.524 761.874C803.524 764.76 804.67 767.529 806.712 769.57C808.753 771.611 811.522 772.758 814.409 772.758C817.284 772.74 820.035 771.585 822.062 769.546C824.088 767.507 825.226 764.749 825.226 761.874ZM828.627 761.874C828.633 763.744 828.269 765.597 827.557 767.327C826.845 769.057 825.798 770.629 824.477 771.953C823.156 773.278 821.587 774.329 819.859 775.046C818.132 775.763 816.279 776.132 814.409 776.132C812.54 776.134 810.69 775.767 808.963 775.054C807.237 774.34 805.668 773.293 804.346 771.973C803.024 770.652 801.976 769.084 801.26 767.358C800.545 765.633 800.177 763.783 800.177 761.915C800.177 760.046 800.545 758.196 801.26 756.471C801.976 754.745 803.024 753.177 804.346 751.856C805.668 750.536 807.237 749.489 808.963 748.775C810.69 748.062 812.54 747.695 814.409 747.697C818.18 747.697 821.796 749.195 824.463 751.861C827.129 754.528 828.627 758.144 828.627 761.915L828.627 761.874Z" fill="#6DC2C4"/>
<path d="M591.781 891.369L591.781 940.606L542.54 940.606L591.781 891.369Z" stroke="#6DC2C4" stroke-width="2" stroke-miterlimit="10"/>
</g>
</g>
</svg>
