<svg width="1031" height="994" viewBox="0 0 1031 994" fill="none" xmlns="http://www.w3.org/2000/svg">
<rect y="1" width="1031" height="992" fill="#6DC2C4"/>
<g style="mix-blend-mode:luminosity" opacity="0.5">
<path d="M257.514 356.539C257.514 365.192 249.35 365.192 249.35 373.845C249.35 382.498 257.514 382.498 257.514 391.151C257.514 399.804 249.35 399.804 249.35 408.457C249.35 417.11 257.514 417.11 257.514 425.763C257.514 434.416 249.35 434.416 249.35 443.068C249.35 451.721 257.514 451.722 257.514 460.374C257.514 469.027 249.35 469.027 249.35 477.694C249.35 486.36 257.514 486.347 257.514 495" stroke="#E43C5A" stroke-width="3" stroke-miterlimit="10" stroke-linecap="round"/>
<path d="M241.091 356.539C241.091 365.192 232.927 365.192 232.927 373.845C232.927 382.498 241.091 382.498 241.091 391.151C241.091 399.804 232.927 399.804 232.927 408.457C232.927 417.11 241.091 417.11 241.091 425.763C241.091 434.416 232.927 434.416 232.927 443.068C232.927 451.721 241.091 451.722 241.091 460.374C241.091 469.027 232.927 469.027 232.927 477.694C232.927 486.36 241.091 486.347 241.091 495" stroke="#E43C5A" stroke-width="3" stroke-miterlimit="10" stroke-linecap="round"/>
<path d="M519 203.562C510.346 203.562 510.346 195.399 501.693 195.399C493.039 195.399 493.039 203.562 484.385 203.562C475.732 203.562 475.732 195.399 467.078 195.399C458.425 195.399 458.425 203.562 449.771 203.562C441.117 203.562 441.117 195.399 432.464 195.399C423.81 195.399 423.81 203.562 415.156 203.562C406.503 203.562 406.503 195.399 397.836 195.399C389.168 195.399 389.182 203.562 380.515 203.562" stroke="#E9DF67" stroke-width="2" stroke-miterlimit="10" stroke-linecap="round"/>
<path d="M519 187.14C510.346 187.14 510.346 178.977 501.693 178.977C493.039 178.977 493.039 187.14 484.385 187.14C475.732 187.14 475.732 178.977 467.078 178.977C458.425 178.977 458.425 187.14 449.771 187.14C441.117 187.14 441.117 178.977 432.464 178.977C423.81 178.977 423.81 187.14 415.156 187.14C406.503 187.14 406.503 178.977 397.836 178.977C389.168 178.977 389.182 187.14 380.515 187.14" stroke="#E9DF67" stroke-width="2" stroke-miterlimit="10" stroke-linecap="round"/>
<path d="M519 170.732C510.346 170.732 510.346 162.569 501.693 162.569C493.039 162.569 493.039 170.732 484.385 170.732C475.732 170.732 475.732 162.569 467.078 162.569C458.425 162.569 458.425 170.732 449.771 170.732C441.117 170.732 441.117 162.569 432.464 162.569C423.81 162.569 423.81 170.732 415.156 170.732C406.503 170.732 406.503 162.569 397.836 162.569C389.168 162.569 389.182 170.732 380.515 170.732" stroke="#E9DF67" stroke-width="2" stroke-miterlimit="10" stroke-linecap="round"/>
<path opacity="0.99" d="M166.27 87.5632L166.27 97.8488L156.256 97.8488L156.256 105.522L166.27 105.522L166.27 115.808L174.216 115.808L174.216 105.522L184.258 105.522L184.258 97.8488L174.216 97.8488L174.216 87.5632L166.27 87.5632Z" fill="#E9DF67"/>
<g opacity="0.99">
<path opacity="0.99" d="M196.72 371.219L193.522 368.035L189.25 372.307L185.25 368.294L182.066 371.491L186.066 375.491L181.794 379.763L184.977 382.96L189.25 378.674L193.277 382.702L196.461 379.518L192.447 375.491L196.72 371.219Z" fill="#E43C5A"/>
</g>
<g opacity="0.99">
<path opacity="0.99" d="M140.717 461.436L142.513 457.313L136.975 454.892L139.234 449.694L135.097 447.898L132.839 453.096L127.301 450.688L125.505 454.823L131.043 457.232L128.77 462.442L132.907 464.238L135.165 459.028L140.717 461.436Z" fill="#E43C5A"/>
</g>
<g opacity="0.99">
<path opacity="0.99" d="M421.811 119.1L418.627 115.903L414.354 120.188L410.34 116.175L407.157 119.359L411.17 123.372L406.898 127.644L410.082 130.828L414.354 126.556L418.382 130.569L421.566 127.386L417.538 123.372L421.811 119.1Z" fill="#E43C5A"/>
</g>
<g opacity="0.99">
<path opacity="0.99" d="M347.41 358.553L345.764 356.907L343.56 359.111L341.478 357.043L339.831 358.689L341.913 360.757L339.695 362.975L341.342 364.621L343.56 362.403L345.641 364.485L347.288 362.839L345.206 360.757L347.41 358.553Z" fill="#E43C5A"/>
</g>
<path d="M62.3719 184.923C58.0591 178.747 56.3732 171.112 57.6844 163.694C58.9956 156.276 63.1967 149.682 69.3656 145.359C72.4254 143.217 75.8771 141.699 79.5237 140.891C83.1702 140.083 86.9402 140.002 90.6183 140.651C94.2963 141.301 97.8104 142.668 100.96 144.676C104.109 146.684 106.832 149.292 108.974 152.352" fill="#E43C5A"/>
<path d="M312.266 115.903C312.266 108.362 315.262 101.129 320.595 95.7967C325.928 90.4641 333.161 87.4683 340.703 87.4683C348.245 87.4683 355.479 90.4641 360.812 95.7967C366.145 101.129 369.141 108.362 369.141 115.903" stroke="#E43C5A" stroke-width="2" stroke-miterlimit="10"/>
<path d="M163.97 358.839C163.97 359.906 164.835 360.771 165.902 360.771C166.969 360.771 167.834 359.906 167.834 358.839C167.834 357.772 166.969 356.907 165.902 356.907C164.835 356.907 163.97 357.772 163.97 358.839Z" fill="#E43C5A"/>
<path d="M429.252 60.8698C429.252 67.9029 434.953 73.6043 441.987 73.6043C449.021 73.6043 454.723 67.9029 454.723 60.8698C454.723 53.8367 449.021 48.1353 441.987 48.1353C434.953 48.1353 429.252 53.8367 429.252 60.8698Z" fill="#E43C5A"/>
<path d="M461.745 47.3599C461.745 49.0956 463.152 50.5027 464.888 50.5027C466.624 50.5027 468.031 49.0956 468.031 47.3599C468.031 45.6241 466.624 44.217 464.888 44.217C463.152 44.217 461.745 45.6241 461.745 47.3599Z" fill="#E9DF67"/>
<path d="M307.449 48.1353C307.449 49.2023 308.314 50.0673 309.381 50.0673C310.448 50.0673 311.313 49.2023 311.313 48.1353C311.313 47.0683 310.448 46.2034 309.381 46.2034C308.314 46.2034 307.449 47.0683 307.449 48.1353Z" fill="#E43C5A"/>
<path d="M39.581 57.0194L39.581 28.4348L68.1543 28.4348L39.581 57.0194Z" fill="#E9DF67"/>
<path d="M199.861 287.483L208.039 279.306L199.861 271.129L191.683 279.306L199.861 287.483Z" stroke="#E9DF67" stroke-width="2" stroke-miterlimit="10"/>
<path d="M412.299 381.192C417.865 376.104 425.224 373.433 432.758 373.767C440.292 374.101 447.385 377.413 452.479 382.974C454.999 385.73 456.952 388.955 458.226 392.466C459.5 395.977 460.07 399.704 459.903 403.434C459.736 407.165 458.836 410.827 457.254 414.21C455.672 417.593 453.439 420.631 450.683 423.151" stroke="#E9DF67" stroke-width="5" stroke-miterlimit="10"/>
<path d="M10.0003 284.132C17.5423 284.132 24.7754 287.128 30.1084 292.46C35.4414 297.793 38.4375 305.025 38.4375 312.567C38.4375 320.108 35.4414 327.341 30.1084 332.673C24.7754 338.006 17.5423 341.002 10.0003 341.002" stroke="#E9DF67" stroke-width="5" stroke-miterlimit="10"/>
<path d="M360.486 234.337C360.486 239.664 364.805 243.983 370.132 243.983C375.46 243.983 379.779 239.664 379.779 234.337C379.779 229.009 375.46 224.69 370.132 224.69C364.805 224.69 360.486 229.009 360.486 234.337Z" fill="#E43C5A"/>
<path d="M285.066 160.583L277.624 188.351L249.853 195.793L257.296 168.025L285.066 160.583Z" fill="#E9DF67"/>
<path d="M257.296 168.024L236.968 147.685L229.525 175.453L249.853 195.793L257.296 168.024Z" fill="#744593"/>
<path d="M285.066 160.583L264.739 140.256L236.968 147.685L257.296 168.025L285.066 160.583Z" fill="#E43C5A"/>
<path d="M451.675 265.697L472.071 271.166L477.527 291.56L457.131 286.091L451.675 265.697Z" fill="#E9DF67"/>
<path d="M457.131 286.091L442.205 301.016L462.601 306.485L477.527 291.56L457.131 286.091Z" fill="#744593"/>
<path d="M451.677 265.697L436.751 280.635L442.207 301.016L457.133 286.091L451.677 265.697Z" fill="#E43C5A"/>
<path d="M349.846 400.647L363.316 423.98L349.846 447.327L336.362 423.98L349.846 400.647Z" fill="#E43C5A"/>
<path d="M336.362 423.98L309.408 423.98L322.892 447.327L349.846 447.327L336.362 423.98Z" fill="#E9DF67"/>
<path d="M349.846 400.647L322.892 400.647L309.408 423.98L336.362 423.98L349.846 400.647Z" fill="#744593"/>
<path d="M101 267.438L127.029 274.404L134.009 300.444L107.966 293.465L101 267.438Z" fill="#E43C5A"/>
<path d="M107.966 293.465L88.9038 312.526L114.946 319.506L134.009 300.445L107.966 293.465Z" fill="#744593"/>
<path d="M101 267.438L81.9379 286.499L88.9043 312.526L107.967 293.465L101 267.438Z" fill="#E9DF67"/>
<path d="M174.706 28.435C174.698 22.7 172.417 17.2019 168.361 13.1466C164.306 9.09133 158.807 6.80983 153.072 6.80263C147.334 6.80622 141.832 9.08612 137.773 13.1418C133.715 17.1975 131.431 22.6976 131.424 28.435C131.42 31.2805 131.977 34.0988 133.064 36.7289C134.15 39.3591 135.744 41.7494 137.754 43.7634C139.764 45.7774 142.152 47.3756 144.78 48.4666C147.408 49.5575 150.226 50.12 153.072 50.1218C158.807 50.1146 164.306 47.8332 168.361 43.7779C172.417 39.7226 174.698 34.2244 174.706 28.4894L174.706 28.435ZM181.509 28.4894C181.509 36.0308 178.513 43.2634 173.18 48.596C167.847 53.9286 160.614 56.9244 153.072 56.9244C145.528 56.9244 138.294 53.929 132.959 48.5968C127.623 43.2646 124.624 36.0321 124.621 28.4894C124.615 24.75 125.347 21.0463 126.775 17.5901C128.202 14.1338 130.297 10.9929 132.939 8.34683C135.582 5.70081 138.72 3.60164 142.174 2.16941C145.629 0.737188 149.332 -5.25507e-06 153.072 -1.24302e-06C160.614 -9.13343e-07 167.847 2.99589 173.18 8.32848C178.513 13.6611 181.509 20.8936 181.509 28.435L181.509 28.4894Z" fill="#E43C5A"/>
<path d="M326.225 269.874C326.207 267.011 325.062 264.27 323.037 262.245C321.013 260.221 318.272 259.076 315.408 259.058C312.533 259.058 309.775 260.195 307.735 262.222C305.696 264.248 304.541 266.999 304.523 269.874C304.523 272.761 305.67 275.529 307.711 277.57C309.753 279.611 312.521 280.758 315.408 280.758C318.283 280.74 321.035 279.586 323.061 277.546C325.088 275.507 326.225 272.749 326.225 269.874ZM329.627 269.874C329.632 271.744 329.268 273.598 328.556 275.327C327.844 277.057 326.798 278.629 325.477 279.954C324.156 281.278 322.587 282.329 320.859 283.046C319.131 283.763 317.279 284.132 315.408 284.132C313.54 284.134 311.69 283.768 309.963 283.054C308.236 282.34 306.667 281.293 305.345 279.973C304.024 278.652 302.975 277.085 302.26 275.359C301.544 273.633 301.176 271.783 301.176 269.915C301.176 268.047 301.544 266.197 302.26 264.471C302.975 262.745 304.024 261.177 305.345 259.857C306.667 258.536 308.236 257.489 309.963 256.776C311.69 256.062 313.54 255.695 315.408 255.697C319.179 255.697 322.796 257.195 325.462 259.861C328.129 262.528 329.627 266.144 329.627 269.915L329.627 269.874Z" fill="#E43C5A"/>
<path d="M92.7812 399.369L92.7812 448.606L43.5399 448.606L92.7812 399.369Z" stroke="#E43C5A" stroke-width="2" stroke-miterlimit="10"/>
<path d="M257.514 852.539C257.514 861.192 249.35 861.192 249.35 869.845C249.35 878.498 257.514 878.498 257.514 887.151C257.514 895.804 249.35 895.804 249.35 904.457C249.35 913.11 257.514 913.11 257.514 921.763C257.514 930.416 249.35 930.416 249.35 939.068C249.35 947.721 257.514 947.722 257.514 956.374C257.514 965.027 249.35 965.027 249.35 973.694C249.35 982.36 257.514 982.347 257.514 991" stroke="#E43C5A" stroke-width="3" stroke-miterlimit="10" stroke-linecap="round"/>
<path d="M241.091 852.539C241.091 861.192 232.927 861.192 232.927 869.845C232.927 878.498 241.091 878.498 241.091 887.151C241.091 895.804 232.927 895.804 232.927 904.457C232.927 913.11 241.091 913.11 241.091 921.763C241.091 930.416 232.927 930.416 232.927 939.068C232.927 947.721 241.091 947.722 241.091 956.374C241.091 965.027 232.927 965.027 232.927 973.694C232.927 982.36 241.091 982.347 241.091 991" stroke="#E43C5A" stroke-width="3" stroke-miterlimit="10" stroke-linecap="round"/>
<path d="M519 699.562C510.346 699.562 510.346 691.399 501.693 691.399C493.039 691.399 493.039 699.562 484.385 699.562C475.732 699.562 475.732 691.399 467.078 691.399C458.425 691.399 458.425 699.562 449.771 699.562C441.117 699.562 441.117 691.399 432.464 691.399C423.81 691.399 423.81 699.562 415.156 699.562C406.503 699.562 406.503 691.399 397.836 691.399C389.168 691.399 389.182 699.562 380.515 699.562" stroke="#E9DF67" stroke-width="2" stroke-miterlimit="10" stroke-linecap="round"/>
<path d="M519 683.14C510.346 683.14 510.346 674.977 501.693 674.977C493.039 674.977 493.039 683.14 484.385 683.14C475.732 683.14 475.732 674.977 467.078 674.977C458.425 674.977 458.425 683.14 449.771 683.14C441.117 683.14 441.117 674.977 432.464 674.977C423.81 674.977 423.81 683.14 415.156 683.14C406.503 683.14 406.503 674.977 397.836 674.977C389.168 674.977 389.182 683.14 380.515 683.14" stroke="#E9DF67" stroke-width="2" stroke-miterlimit="10" stroke-linecap="round"/>
<path d="M519 666.732C510.346 666.732 510.346 658.569 501.693 658.569C493.039 658.569 493.039 666.732 484.385 666.732C475.732 666.732 475.732 658.569 467.078 658.569C458.425 658.569 458.425 666.732 449.771 666.732C441.117 666.732 441.117 658.569 432.464 658.569C423.81 658.569 423.81 666.732 415.156 666.732C406.503 666.732 406.503 658.569 397.836 658.569C389.168 658.569 389.182 666.732 380.515 666.732" stroke="#E9DF67" stroke-width="2" stroke-miterlimit="10" stroke-linecap="round"/>
<path opacity="0.99" d="M166.27 583.563L166.27 593.849L156.256 593.849L156.256 601.522L166.27 601.522L166.27 611.808L174.216 611.808L174.216 601.522L184.258 601.522L184.258 593.849L174.216 593.849L174.216 583.563L166.27 583.563Z" fill="#E9DF67"/>
<g opacity="0.99">
<path opacity="0.99" d="M196.72 867.219L193.522 864.035L189.25 868.307L185.25 864.294L182.066 867.491L186.066 871.491L181.794 875.763L184.977 878.96L189.25 874.674L193.277 878.702L196.461 875.518L192.447 871.491L196.72 867.219Z" fill="#E43C5A"/>
</g>
<g opacity="0.99">
<path opacity="0.99" d="M140.717 957.436L142.513 953.313L136.975 950.892L139.234 945.694L135.097 943.898L132.839 949.096L127.301 946.688L125.505 950.823L131.043 953.232L128.77 958.442L132.907 960.238L135.165 955.028L140.717 957.436Z" fill="#E43C5A"/>
</g>
<g opacity="0.99">
<path opacity="0.99" d="M421.811 615.1L418.627 611.903L414.354 616.188L410.34 612.175L407.157 615.359L411.17 619.372L406.898 623.644L410.082 626.828L414.354 622.556L418.382 626.569L421.566 623.386L417.538 619.372L421.811 615.1Z" fill="#E43C5A"/>
</g>
<g opacity="0.99">
<path opacity="0.99" d="M347.41 854.553L345.764 852.907L343.56 855.111L341.478 853.043L339.831 854.689L341.913 856.757L339.695 858.975L341.342 860.621L343.56 858.403L345.641 860.485L347.288 858.839L345.206 856.757L347.41 854.553Z" fill="#E43C5A"/>
</g>
<path d="M62.3719 680.923C58.0591 674.747 56.3732 667.112 57.6844 659.694C58.9956 652.276 63.1967 645.682 69.3656 641.359C72.4254 639.217 75.8771 637.699 79.5237 636.891C83.1702 636.083 86.9402 636.002 90.6183 636.651C94.2963 637.301 97.8104 638.668 100.96 640.676C104.109 642.684 106.832 645.292 108.974 648.352" fill="#E43C5A"/>
<path d="M312.266 611.903C312.266 604.362 315.262 597.129 320.595 591.797C325.928 586.464 333.161 583.468 340.703 583.468C348.245 583.468 355.479 586.464 360.812 591.797C366.145 597.129 369.141 604.362 369.141 611.903" stroke="#E43C5A" stroke-width="2" stroke-miterlimit="10"/>
<path d="M163.97 854.839C163.97 855.906 164.835 856.771 165.902 856.771C166.969 856.771 167.834 855.906 167.834 854.839C167.834 853.772 166.969 852.907 165.902 852.907C164.835 852.907 163.97 853.772 163.97 854.839Z" fill="#E43C5A"/>
<path d="M429.252 556.87C429.252 563.903 434.953 569.604 441.987 569.604C449.021 569.604 454.723 563.903 454.723 556.87C454.723 549.837 449.021 544.135 441.987 544.135C434.953 544.135 429.252 549.837 429.252 556.87Z" fill="#E43C5A"/>
<path d="M461.745 543.36C461.745 545.096 463.152 546.503 464.888 546.503C466.624 546.503 468.031 545.096 468.031 543.36C468.031 541.624 466.624 540.217 464.888 540.217C463.152 540.217 461.745 541.624 461.745 543.36Z" fill="#E9DF67"/>
<path d="M307.449 544.136C307.449 545.203 308.314 546.068 309.381 546.068C310.448 546.068 311.313 545.203 311.313 544.136C311.313 543.069 310.448 542.204 309.381 542.204C308.314 542.204 307.449 543.069 307.449 544.136Z" fill="#E43C5A"/>
<path d="M39.581 553.02L39.581 524.435L68.1543 524.435L39.581 553.02Z" fill="#E9DF67"/>
<path d="M199.861 783.483L208.039 775.306L199.861 767.129L191.683 775.306L199.861 783.483Z" stroke="#E9DF67" stroke-width="2" stroke-miterlimit="10"/>
<path d="M412.299 877.192C417.865 872.104 425.224 869.433 432.758 869.767C440.292 870.101 447.385 873.413 452.479 878.974C454.999 881.73 456.952 884.955 458.226 888.466C459.5 891.977 460.07 895.704 459.903 899.434C459.736 903.165 458.836 906.827 457.254 910.21C455.672 913.593 453.439 916.631 450.683 919.151" stroke="#E9DF67" stroke-width="5" stroke-miterlimit="10"/>
<path d="M10.0003 780.132C17.5423 780.132 24.7754 783.128 30.1084 788.46C35.4414 793.793 38.4375 801.025 38.4375 808.567C38.4375 816.108 35.4414 823.341 30.1084 828.673C24.7754 834.006 17.5423 837.002 10.0003 837.002" stroke="#E9DF67" stroke-width="5" stroke-miterlimit="10"/>
<path d="M360.486 730.337C360.486 735.664 364.805 739.983 370.132 739.983C375.46 739.983 379.779 735.664 379.779 730.337C379.779 725.009 375.46 720.69 370.132 720.69C364.805 720.69 360.486 725.009 360.486 730.337Z" fill="#E43C5A"/>
<path d="M285.066 656.583L277.624 684.351L249.853 691.793L257.296 664.025L285.066 656.583Z" fill="#E9DF67"/>
<path d="M257.296 664.024L236.968 643.685L229.525 671.453L249.853 691.793L257.296 664.024Z" fill="#744593"/>
<path d="M285.066 656.583L264.739 636.256L236.968 643.685L257.296 664.025L285.066 656.583Z" fill="#E43C5A"/>
<path d="M451.675 761.697L472.071 767.166L477.527 787.56L457.131 782.091L451.675 761.697Z" fill="#E9DF67"/>
<path d="M457.131 782.091L442.205 797.016L462.601 802.485L477.527 787.56L457.131 782.091Z" fill="#744593"/>
<path d="M451.677 761.697L436.751 776.635L442.207 797.016L457.133 782.091L451.677 761.697Z" fill="#E43C5A"/>
<path d="M349.846 896.647L363.316 919.98L349.846 943.327L336.362 919.98L349.846 896.647Z" fill="#E43C5A"/>
<path d="M336.362 919.98L309.408 919.98L322.892 943.327L349.846 943.327L336.362 919.98Z" fill="#E9DF67"/>
<path d="M349.846 896.647L322.892 896.647L309.408 919.98L336.362 919.98L349.846 896.647Z" fill="#744593"/>
<path d="M101 763.438L127.029 770.404L134.009 796.444L107.966 789.465L101 763.438Z" fill="#E43C5A"/>
<path d="M107.966 789.465L88.9038 808.526L114.946 815.506L134.009 796.445L107.966 789.465Z" fill="#744593"/>
<path d="M101 763.438L81.9379 782.499L88.9043 808.526L107.967 789.465L101 763.438Z" fill="#E9DF67"/>
<path d="M174.706 524.435C174.698 518.7 172.417 513.202 168.361 509.147C164.306 505.091 158.807 502.81 153.072 502.803C147.334 502.806 141.832 505.086 137.773 509.142C133.715 513.197 131.431 518.698 131.424 524.435C131.42 527.281 131.977 530.099 133.064 532.729C134.15 535.359 135.744 537.749 137.754 539.763C139.764 541.777 142.152 543.376 144.78 544.467C147.408 545.558 150.226 546.12 153.072 546.122C158.807 546.115 164.306 543.833 168.361 539.778C172.417 535.723 174.698 530.224 174.706 524.489L174.706 524.435ZM181.509 524.489C181.509 532.031 178.513 539.263 173.18 544.596C167.847 549.929 160.614 552.924 153.072 552.924C145.528 552.924 138.294 549.929 132.959 544.597C127.623 539.265 124.624 532.032 124.621 524.489C124.615 520.75 125.347 517.046 126.775 513.59C128.202 510.134 130.297 506.993 132.939 504.347C135.582 501.701 138.72 499.602 142.174 498.169C145.629 496.737 149.332 496 153.072 496C160.614 496 167.847 498.996 173.18 504.328C178.513 509.661 181.509 516.894 181.509 524.435L181.509 524.489Z" fill="#E43C5A"/>
<path d="M326.225 765.874C326.207 763.011 325.062 760.27 323.037 758.245C321.013 756.221 318.272 755.076 315.408 755.058C312.533 755.058 309.775 756.195 307.735 758.222C305.696 760.248 304.541 762.999 304.523 765.874C304.523 768.761 305.67 771.529 307.711 773.57C309.753 775.611 312.521 776.758 315.408 776.758C318.283 776.74 321.035 775.586 323.061 773.546C325.088 771.507 326.225 768.749 326.225 765.874ZM329.627 765.874C329.632 767.744 329.268 769.598 328.556 771.327C327.844 773.057 326.798 774.629 325.477 775.954C324.156 777.278 322.587 778.329 320.859 779.046C319.131 779.763 317.279 780.132 315.408 780.132C313.54 780.134 311.69 779.768 309.963 779.054C308.236 778.34 306.667 777.293 305.345 775.973C304.024 774.652 302.975 773.085 302.26 771.359C301.544 769.633 301.176 767.783 301.176 765.915C301.176 764.047 301.544 762.197 302.26 760.471C302.975 758.745 304.024 757.177 305.345 755.857C306.667 754.536 308.236 753.489 309.963 752.776C311.69 752.062 313.54 751.695 315.408 751.697C319.179 751.697 322.796 753.195 325.462 755.861C328.129 758.528 329.627 762.144 329.627 765.915L329.627 765.874Z" fill="#E43C5A"/>
<path d="M92.7812 895.369L92.7812 944.606L43.5399 944.606L92.7812 895.369Z" stroke="#E43C5A" stroke-width="2" stroke-miterlimit="10"/>
<path d="M766.514 357.539C766.514 366.192 758.35 366.192 758.35 374.845C758.35 383.498 766.514 383.498 766.514 392.151C766.514 400.804 758.35 400.804 758.35 409.457C758.35 418.11 766.514 418.11 766.514 426.763C766.514 435.416 758.35 435.416 758.35 444.068C758.35 452.721 766.514 452.722 766.514 461.374C766.514 470.027 758.35 470.027 758.35 478.694C758.35 487.36 766.514 487.347 766.514 496" stroke="#E43C5A" stroke-width="3" stroke-miterlimit="10" stroke-linecap="round"/>
<path d="M750.09 357.539C750.09 366.192 741.926 366.192 741.926 374.845C741.926 383.498 750.09 383.498 750.09 392.151C750.09 400.804 741.926 400.804 741.926 409.457C741.926 418.11 750.09 418.11 750.09 426.763C750.09 435.416 741.926 435.416 741.926 444.068C741.926 452.721 750.09 452.722 750.09 461.374C750.09 470.027 741.926 470.027 741.926 478.694C741.926 487.36 750.09 487.347 750.09 496" stroke="#E43C5A" stroke-width="3" stroke-miterlimit="10" stroke-linecap="round"/>
<path d="M1028 204.562C1019.35 204.562 1019.35 196.399 1010.69 196.399C1002.04 196.399 1002.04 204.562 993.385 204.562C984.732 204.562 984.732 196.399 976.078 196.399C967.425 196.399 967.425 204.562 958.771 204.562C950.117 204.562 950.117 196.399 941.464 196.399C932.81 196.399 932.81 204.562 924.156 204.562C915.503 204.562 915.503 196.399 906.836 196.399C898.168 196.399 898.182 204.562 889.515 204.562" stroke="#E9DF67" stroke-width="2" stroke-miterlimit="10" stroke-linecap="round"/>
<path d="M1028 188.14C1019.35 188.14 1019.35 179.977 1010.69 179.977C1002.04 179.977 1002.04 188.14 993.385 188.14C984.732 188.14 984.732 179.977 976.078 179.977C967.425 179.977 967.425 188.14 958.771 188.14C950.117 188.14 950.117 179.977 941.464 179.977C932.81 179.977 932.81 188.14 924.156 188.14C915.503 188.14 915.503 179.977 906.836 179.977C898.168 179.977 898.182 188.14 889.515 188.14" stroke="#E9DF67" stroke-width="2" stroke-miterlimit="10" stroke-linecap="round"/>
<path d="M1028 171.732C1019.35 171.732 1019.35 163.569 1010.69 163.569C1002.04 163.569 1002.04 171.732 993.385 171.732C984.732 171.732 984.732 163.569 976.078 163.569C967.425 163.569 967.425 171.732 958.771 171.732C950.117 171.732 950.117 163.569 941.464 163.569C932.81 163.569 932.81 171.732 924.156 171.732C915.503 171.732 915.503 163.569 906.836 163.569C898.168 163.569 898.182 171.732 889.515 171.732" stroke="#E9DF67" stroke-width="2" stroke-miterlimit="10" stroke-linecap="round"/>
<path opacity="0.99" d="M675.27 88.5632L675.27 98.8488L665.256 98.8488L665.256 106.522L675.27 106.522L675.27 116.808L683.216 116.808L683.216 106.522L693.258 106.522L693.258 98.8488L683.216 98.8488L683.216 88.5632L675.27 88.5632Z" fill="#E9DF67"/>
<g opacity="0.99">
<path opacity="0.99" d="M705.721 372.219L702.523 369.035L698.251 373.307L694.251 369.294L691.067 372.491L695.067 376.491L690.795 380.763L693.978 383.96L698.251 379.674L702.278 383.702L705.462 380.518L701.448 376.491L705.721 372.219Z" fill="#E43C5A"/>
</g>
<g opacity="0.99">
<path opacity="0.99" d="M649.716 462.436L651.512 458.313L645.974 455.892L648.233 450.694L644.096 448.898L641.838 454.096L636.3 451.688L634.504 455.823L640.042 458.232L637.769 463.442L641.906 465.238L644.164 460.028L649.716 462.436Z" fill="#E43C5A"/>
</g>
<g opacity="0.99">
<path opacity="0.99" d="M930.811 120.1L927.627 116.903L923.354 121.188L919.34 117.175L916.157 120.359L920.17 124.372L915.898 128.644L919.082 131.828L923.354 127.556L927.382 131.569L930.566 128.386L926.538 124.372L930.811 120.1Z" fill="#E43C5A"/>
</g>
<g opacity="0.99">
<path opacity="0.99" d="M856.41 359.553L854.764 357.907L852.56 360.111L850.478 358.043L848.831 359.689L850.913 361.757L848.695 363.975L850.342 365.621L852.56 363.403L854.641 365.485L856.288 363.839L854.206 361.757L856.41 359.553Z" fill="#E43C5A"/>
</g>
<path d="M571.371 185.923C567.058 179.747 565.372 172.112 566.683 164.694C567.995 157.276 572.196 150.682 578.365 146.359C581.424 144.217 584.876 142.699 588.523 141.891C592.169 141.083 595.939 141.002 599.617 141.651C603.295 142.301 606.809 143.668 609.959 145.676C613.108 147.684 615.831 150.292 617.973 153.352" fill="#E43C5A"/>
<path d="M821.266 116.903C821.266 109.362 824.262 102.129 829.595 96.7967C834.928 91.4641 842.161 88.4683 849.703 88.4683C857.245 88.4683 864.479 91.4641 869.812 96.7967C875.145 102.129 878.141 109.362 878.141 116.903" stroke="#E43C5A" stroke-width="2" stroke-miterlimit="10"/>
<path d="M672.97 359.839C672.97 360.906 673.835 361.771 674.902 361.771C675.969 361.771 676.834 360.906 676.834 359.839C676.834 358.772 675.969 357.907 674.902 357.907C673.835 357.907 672.97 358.772 672.97 359.839Z" fill="#E43C5A"/>
<path d="M938.252 61.8698C938.252 68.9029 943.953 74.6043 950.987 74.6043C958.021 74.6043 963.723 68.9029 963.723 61.8698C963.723 54.8367 958.021 49.1353 950.987 49.1353C943.953 49.1353 938.252 54.8367 938.252 61.8698Z" fill="#E43C5A"/>
<path d="M970.745 48.3599C970.745 50.0956 972.152 51.5027 973.888 51.5027C975.624 51.5027 977.031 50.0956 977.031 48.3599C977.031 46.6241 975.624 45.217 973.888 45.217C972.152 45.217 970.745 46.6241 970.745 48.3599Z" fill="#E9DF67"/>
<path d="M816.448 49.1353C816.448 50.2023 817.313 51.0673 818.38 51.0673C819.447 51.0673 820.312 50.2023 820.312 49.1353C820.312 48.0683 819.447 47.2034 818.38 47.2034C817.313 47.2034 816.448 48.0683 816.448 49.1353Z" fill="#E43C5A"/>
<path d="M548.581 58.0194L548.581 29.4348L577.154 29.4348L548.581 58.0194Z" fill="#E9DF67"/>
<path d="M708.861 288.483L717.039 280.306L708.861 272.129L700.683 280.306L708.861 288.483Z" stroke="#E9DF67" stroke-width="2" stroke-miterlimit="10"/>
<path d="M921.299 382.192C926.865 377.104 934.224 374.433 941.758 374.767C949.292 375.101 956.385 378.413 961.479 383.974C963.999 386.73 965.952 389.955 967.226 393.466C968.5 396.977 969.07 400.704 968.903 404.434C968.736 408.165 967.836 411.827 966.254 415.21C964.672 418.593 962.439 421.631 959.683 424.151" stroke="#E9DF67" stroke-width="5" stroke-miterlimit="10"/>
<path d="M519 285.132C526.542 285.132 533.775 288.128 539.108 293.46C544.441 298.793 547.437 306.025 547.437 313.567C547.437 321.108 544.441 328.341 539.108 333.673C533.775 339.006 526.542 342.002 519 342.002" stroke="#E9DF67" stroke-width="5" stroke-miterlimit="10"/>
<path d="M869.486 235.337C869.486 240.664 873.805 244.983 879.132 244.983C884.46 244.983 888.779 240.664 888.779 235.337C888.779 230.009 884.46 225.69 879.132 225.69C873.805 225.69 869.486 230.009 869.486 235.337Z" fill="#E43C5A"/>
<path d="M794.066 161.583L786.624 189.351L758.853 196.793L766.296 169.025L794.066 161.583Z" fill="#E9DF67"/>
<path d="M766.297 169.024L745.969 148.685L738.526 176.453L758.854 196.793L766.297 169.024Z" fill="#744593"/>
<path d="M794.066 161.583L773.739 141.256L745.968 148.685L766.296 169.025L794.066 161.583Z" fill="#E43C5A"/>
<path d="M960.675 266.697L981.071 272.166L986.527 292.56L966.131 287.091L960.675 266.697Z" fill="#E9DF67"/>
<path d="M966.131 287.091L951.205 302.016L971.601 307.485L986.527 292.56L966.131 287.091Z" fill="#744593"/>
<path d="M960.677 266.697L945.751 281.635L951.207 302.016L966.133 287.091L960.677 266.697Z" fill="#E43C5A"/>
<path d="M858.846 401.647L872.316 424.98L858.846 448.327L845.362 424.98L858.846 401.647Z" fill="#E43C5A"/>
<path d="M845.362 424.98L818.408 424.98L831.892 448.327L858.846 448.327L845.362 424.98Z" fill="#E9DF67"/>
<path d="M858.846 401.647L831.892 401.647L818.408 424.98L845.362 424.98L858.846 401.647Z" fill="#744593"/>
<path d="M609.999 268.438L636.028 275.404L643.008 301.444L616.965 294.465L609.999 268.438Z" fill="#E43C5A"/>
<path d="M616.965 294.465L597.903 313.526L623.945 320.506L643.008 301.445L616.965 294.465Z" fill="#744593"/>
<path d="M610 268.438L590.938 287.499L597.904 313.526L616.967 294.465L610 268.438Z" fill="#E9DF67"/>
<path d="M683.705 29.435C683.697 23.7 681.416 18.2019 677.36 14.1466C673.305 10.0913 667.806 7.80983 662.071 7.80263C656.333 7.80622 650.831 10.0861 646.772 14.1418C642.714 18.1975 640.43 23.6976 640.423 29.435C640.419 32.2805 640.977 35.0988 642.063 37.7289C643.149 40.3591 644.743 42.7494 646.753 44.7634C648.763 46.7774 651.151 48.3756 653.779 49.4666C656.407 50.5575 659.225 51.12 662.071 51.1218C667.806 51.1146 673.305 48.8332 677.36 44.7779C681.416 40.7226 683.697 35.2244 683.705 29.4894L683.705 29.435ZM690.508 29.4894C690.508 37.0308 687.512 44.2634 682.179 49.596C676.846 54.9286 669.613 57.9244 662.071 57.9244C654.527 57.9244 647.293 54.929 641.958 49.5968C636.622 44.2646 633.623 37.0321 633.62 29.4894C633.614 25.75 634.346 22.0463 635.774 18.5901C637.201 15.1338 639.296 11.9929 641.938 9.34683C644.581 6.70081 647.719 4.60164 651.173 3.16941C654.628 1.73719 658.331 0.999995 662.071 0.999999C669.613 0.999999 676.846 3.99589 682.179 9.32848C687.512 14.6611 690.508 21.8936 690.508 29.435L690.508 29.4894Z" fill="#E43C5A"/>
<path d="M835.225 270.874C835.207 268.011 834.062 265.27 832.037 263.245C830.013 261.221 827.272 260.076 824.408 260.058C821.533 260.058 818.775 261.195 816.735 263.222C814.696 265.248 813.541 267.999 813.523 270.874C813.523 273.761 814.67 276.529 816.711 278.57C818.753 280.611 821.521 281.758 824.408 281.758C827.283 281.74 830.035 280.586 832.061 278.546C834.088 276.507 835.225 273.749 835.225 270.874ZM838.627 270.874C838.632 272.744 838.268 274.598 837.556 276.327C836.844 278.057 835.798 279.629 834.477 280.954C833.156 282.278 831.587 283.329 829.859 284.046C828.131 284.763 826.279 285.132 824.408 285.132C822.54 285.134 820.69 284.768 818.963 284.054C817.236 283.34 815.667 282.293 814.345 280.973C813.024 279.652 811.975 278.085 811.26 276.359C810.544 274.633 810.176 272.783 810.176 270.915C810.176 269.047 810.544 267.197 811.26 265.471C811.975 263.745 813.024 262.177 814.345 260.857C815.667 259.536 817.236 258.489 818.963 257.776C820.69 257.062 822.54 256.695 824.408 256.697C828.179 256.697 831.796 258.195 834.462 260.861C837.129 263.528 838.627 267.144 838.627 270.915L838.627 270.874Z" fill="#E43C5A"/>
<path d="M601.781 400.369L601.781 449.606L552.54 449.606L601.781 400.369Z" stroke="#E43C5A" stroke-width="2" stroke-miterlimit="10"/>
<path d="M766.514 853.539C766.514 862.192 758.35 862.192 758.35 870.845C758.35 879.498 766.514 879.498 766.514 888.151C766.514 896.804 758.35 896.804 758.35 905.457C758.35 914.11 766.514 914.11 766.514 922.763C766.514 931.416 758.35 931.416 758.35 940.068C758.35 948.721 766.514 948.722 766.514 957.374C766.514 966.027 758.35 966.027 758.35 974.694C758.35 983.36 766.514 983.347 766.514 992" stroke="#E43C5A" stroke-width="3" stroke-miterlimit="10" stroke-linecap="round"/>
<path d="M750.09 853.539C750.09 862.192 741.926 862.192 741.926 870.845C741.926 879.498 750.09 879.498 750.09 888.151C750.09 896.804 741.926 896.804 741.926 905.457C741.926 914.11 750.09 914.11 750.09 922.763C750.09 931.416 741.926 931.416 741.926 940.068C741.926 948.721 750.09 948.722 750.09 957.374C750.09 966.027 741.926 966.027 741.926 974.694C741.926 983.36 750.09 983.347 750.09 992" stroke="#E43C5A" stroke-width="3" stroke-miterlimit="10" stroke-linecap="round"/>
<path d="M1028 700.562C1019.35 700.562 1019.35 692.399 1010.69 692.399C1002.04 692.399 1002.04 700.562 993.385 700.562C984.732 700.562 984.732 692.399 976.078 692.399C967.425 692.399 967.425 700.562 958.771 700.562C950.117 700.562 950.117 692.399 941.464 692.399C932.81 692.399 932.81 700.562 924.156 700.562C915.503 700.562 915.503 692.399 906.836 692.399C898.168 692.399 898.182 700.562 889.515 700.562" stroke="#E9DF67" stroke-width="2" stroke-miterlimit="10" stroke-linecap="round"/>
<path d="M1028 684.14C1019.35 684.14 1019.35 675.977 1010.69 675.977C1002.04 675.977 1002.04 684.14 993.385 684.14C984.732 684.14 984.732 675.977 976.078 675.977C967.425 675.977 967.425 684.14 958.771 684.14C950.117 684.14 950.117 675.977 941.464 675.977C932.81 675.977 932.81 684.14 924.156 684.14C915.503 684.14 915.503 675.977 906.836 675.977C898.168 675.977 898.182 684.14 889.515 684.14" stroke="#E9DF67" stroke-width="2" stroke-miterlimit="10" stroke-linecap="round"/>
<path d="M1028 667.732C1019.35 667.732 1019.35 659.569 1010.69 659.569C1002.04 659.569 1002.04 667.732 993.385 667.732C984.732 667.732 984.732 659.569 976.078 659.569C967.425 659.569 967.425 667.732 958.771 667.732C950.117 667.732 950.117 659.569 941.464 659.569C932.81 659.569 932.81 667.732 924.156 667.732C915.503 667.732 915.503 659.569 906.836 659.569C898.168 659.569 898.182 667.732 889.515 667.732" stroke="#E9DF67" stroke-width="2" stroke-miterlimit="10" stroke-linecap="round"/>
<path opacity="0.99" d="M675.27 584.563L675.27 594.849L665.256 594.849L665.256 602.522L675.27 602.522L675.27 612.808L683.216 612.808L683.216 602.522L693.258 602.522L693.258 594.849L683.216 594.849L683.216 584.563L675.27 584.563Z" fill="#E9DF67"/>
<g opacity="0.99">
<path opacity="0.99" d="M705.721 868.219L702.523 865.035L698.251 869.307L694.251 865.294L691.067 868.491L695.067 872.491L690.795 876.763L693.978 879.96L698.251 875.674L702.278 879.702L705.462 876.518L701.448 872.491L705.721 868.219Z" fill="#E43C5A"/>
</g>
<g opacity="0.99">
<path opacity="0.99" d="M649.716 958.436L651.512 954.313L645.974 951.892L648.233 946.694L644.096 944.898L641.838 950.096L636.3 947.688L634.504 951.823L640.042 954.232L637.769 959.442L641.906 961.238L644.164 956.028L649.716 958.436Z" fill="#E43C5A"/>
</g>
<g opacity="0.99">
<path opacity="0.99" d="M930.811 616.1L927.627 612.903L923.354 617.188L919.34 613.175L916.157 616.359L920.17 620.372L915.898 624.644L919.082 627.828L923.354 623.556L927.382 627.569L930.566 624.386L926.538 620.372L930.811 616.1Z" fill="#E43C5A"/>
</g>
<g opacity="0.99">
<path opacity="0.99" d="M856.41 855.553L854.764 853.907L852.56 856.111L850.478 854.043L848.831 855.689L850.913 857.757L848.695 859.975L850.342 861.621L852.56 859.403L854.641 861.485L856.288 859.839L854.206 857.757L856.41 855.553Z" fill="#E43C5A"/>
</g>
<path d="M571.371 681.923C567.058 675.747 565.372 668.112 566.683 660.694C567.995 653.276 572.196 646.682 578.365 642.359C581.424 640.217 584.876 638.699 588.523 637.891C592.169 637.083 595.939 637.002 599.617 637.651C603.295 638.301 606.809 639.668 609.959 641.676C613.108 643.684 615.831 646.292 617.973 649.352" fill="#E43C5A"/>
<path d="M821.266 612.903C821.266 605.362 824.262 598.129 829.595 592.797C834.928 587.464 842.161 584.468 849.703 584.468C857.245 584.468 864.479 587.464 869.812 592.797C875.145 598.129 878.141 605.362 878.141 612.903" stroke="#E43C5A" stroke-width="2" stroke-miterlimit="10"/>
<path d="M672.97 855.839C672.97 856.906 673.835 857.771 674.902 857.771C675.969 857.771 676.834 856.906 676.834 855.839C676.834 854.772 675.969 853.907 674.902 853.907C673.835 853.907 672.97 854.772 672.97 855.839Z" fill="#E43C5A"/>
<path d="M938.252 557.87C938.252 564.903 943.953 570.604 950.987 570.604C958.021 570.604 963.723 564.903 963.723 557.87C963.723 550.837 958.021 545.135 950.987 545.135C943.953 545.135 938.252 550.837 938.252 557.87Z" fill="#E43C5A"/>
<path d="M970.745 544.36C970.745 546.096 972.152 547.503 973.888 547.503C975.624 547.503 977.031 546.096 977.031 544.36C977.031 542.624 975.624 541.217 973.888 541.217C972.152 541.217 970.745 542.624 970.745 544.36Z" fill="#E9DF67"/>
<path d="M816.448 545.136C816.448 546.203 817.313 547.068 818.38 547.068C819.447 547.068 820.312 546.203 820.312 545.136C820.312 544.069 819.447 543.204 818.38 543.204C817.313 543.204 816.448 544.069 816.448 545.136Z" fill="#E43C5A"/>
<path d="M548.581 554.02L548.581 525.435L577.154 525.435L548.581 554.02Z" fill="#E9DF67"/>
<path d="M708.861 784.483L717.039 776.306L708.861 768.129L700.683 776.306L708.861 784.483Z" stroke="#E9DF67" stroke-width="2" stroke-miterlimit="10"/>
<path d="M921.299 878.192C926.865 873.104 934.224 870.433 941.758 870.767C949.292 871.101 956.385 874.413 961.479 879.974C963.999 882.73 965.952 885.955 967.226 889.466C968.5 892.977 969.07 896.704 968.903 900.434C968.736 904.165 967.836 907.827 966.254 911.21C964.672 914.593 962.439 917.631 959.683 920.151" stroke="#E9DF67" stroke-width="5" stroke-miterlimit="10"/>
<path d="M519 781.132C526.542 781.132 533.775 784.128 539.108 789.46C544.441 794.793 547.437 802.025 547.437 809.567C547.437 817.108 544.441 824.341 539.108 829.673C533.775 835.006 526.542 838.002 519 838.002" stroke="#E9DF67" stroke-width="5" stroke-miterlimit="10"/>
<path d="M869.486 731.337C869.486 736.664 873.805 740.983 879.132 740.983C884.46 740.983 888.779 736.664 888.779 731.337C888.779 726.009 884.46 721.69 879.132 721.69C873.805 721.69 869.486 726.009 869.486 731.337Z" fill="#E43C5A"/>
<path d="M794.066 657.583L786.624 685.351L758.853 692.793L766.296 665.025L794.066 657.583Z" fill="#E9DF67"/>
<path d="M766.297 665.024L745.969 644.685L738.526 672.453L758.854 692.793L766.297 665.024Z" fill="#744593"/>
<path d="M794.066 657.583L773.739 637.256L745.968 644.685L766.296 665.025L794.066 657.583Z" fill="#E43C5A"/>
<path d="M960.675 762.697L981.071 768.166L986.527 788.56L966.131 783.091L960.675 762.697Z" fill="#E9DF67"/>
<path d="M966.131 783.091L951.205 798.016L971.601 803.485L986.527 788.56L966.131 783.091Z" fill="#744593"/>
<path d="M960.677 762.697L945.751 777.635L951.207 798.016L966.133 783.091L960.677 762.697Z" fill="#E43C5A"/>
<path d="M858.846 897.647L872.316 920.98L858.846 944.327L845.362 920.98L858.846 897.647Z" fill="#E43C5A"/>
<path d="M845.362 920.98L818.408 920.98L831.892 944.327L858.846 944.327L845.362 920.98Z" fill="#E9DF67"/>
<path d="M858.846 897.647L831.892 897.647L818.408 920.98L845.362 920.98L858.846 897.647Z" fill="#744593"/>
<path d="M609.999 764.438L636.028 771.404L643.008 797.444L616.965 790.465L609.999 764.438Z" fill="#E43C5A"/>
<path d="M616.965 790.465L597.903 809.526L623.945 816.506L643.008 797.445L616.965 790.465Z" fill="#744593"/>
<path d="M610 764.438L590.938 783.499L597.904 809.526L616.967 790.465L610 764.438Z" fill="#E9DF67"/>
<path d="M683.705 525.435C683.697 519.7 681.416 514.202 677.36 510.147C673.305 506.091 667.806 503.81 662.071 503.803C656.333 503.806 650.831 506.086 646.772 510.142C642.714 514.197 640.43 519.698 640.423 525.435C640.419 528.281 640.977 531.099 642.063 533.729C643.149 536.359 644.743 538.749 646.753 540.763C648.763 542.777 651.151 544.376 653.779 545.467C656.407 546.558 659.225 547.12 662.071 547.122C667.806 547.115 673.305 544.833 677.36 540.778C681.416 536.723 683.697 531.224 683.705 525.489L683.705 525.435ZM690.508 525.489C690.508 533.031 687.512 540.263 682.179 545.596C676.846 550.929 669.613 553.924 662.071 553.924C654.527 553.924 647.293 550.929 641.958 545.597C636.622 540.265 633.623 533.032 633.62 525.489C633.614 521.75 634.346 518.046 635.774 514.59C637.201 511.134 639.296 507.993 641.938 505.347C644.581 502.701 647.719 500.602 651.173 499.169C654.628 497.737 658.331 497 662.071 497C669.613 497 676.846 499.996 682.179 505.328C687.512 510.661 690.508 517.894 690.508 525.435L690.508 525.489Z" fill="#E43C5A"/>
<path d="M835.225 766.874C835.207 764.011 834.062 761.27 832.037 759.245C830.013 757.221 827.272 756.076 824.408 756.058C821.533 756.058 818.775 757.195 816.735 759.222C814.696 761.248 813.541 763.999 813.523 766.874C813.523 769.761 814.67 772.529 816.711 774.57C818.753 776.611 821.521 777.758 824.408 777.758C827.283 777.74 830.035 776.586 832.061 774.546C834.088 772.507 835.225 769.749 835.225 766.874ZM838.627 766.874C838.632 768.744 838.268 770.598 837.556 772.327C836.844 774.057 835.798 775.629 834.477 776.954C833.156 778.278 831.587 779.329 829.859 780.046C828.131 780.763 826.279 781.132 824.408 781.132C822.54 781.134 820.69 780.768 818.963 780.054C817.236 779.34 815.667 778.293 814.345 776.973C813.024 775.652 811.975 774.085 811.26 772.359C810.544 770.633 810.176 768.783 810.176 766.915C810.176 765.047 810.544 763.197 811.26 761.471C811.975 759.745 813.024 758.177 814.345 756.857C815.667 755.536 817.236 754.489 818.963 753.776C820.69 753.062 822.54 752.695 824.408 752.697C828.179 752.697 831.796 754.195 834.462 756.861C837.129 759.528 838.627 763.144 838.627 766.915L838.627 766.874Z" fill="#E43C5A"/>
<path d="M601.781 896.369L601.781 945.606L552.54 945.606L601.781 896.369Z" stroke="#E43C5A" stroke-width="2" stroke-miterlimit="10"/>
</g>
</svg>
