<svg width="960" height="56" viewBox="0 0 960 56" fill="none" xmlns="http://www.w3.org/2000/svg">
<path d="M4 28C26.6667 -4 49.3333 -4 72 28C94.6667 60 117.333 60 140 28C162.667 -4 185.333 -4 208 28C230.667 60 253.333 60 276 28C298.667 -4 321.333 -4 344 28C366.667 60 389.333 60 412 28C434.667 -4 457.333 -4 480 28C502.667 60 525.333 60 548 28C570.667 -4 593.333 -4 616 28C638.667 60 661.333 60 684 28C706.667 -4 729.333 -4 752 28C774.667 60 797.333 60 820 28C842.667 -4 865.333 -4 888 28C910.667 60 933.333 60 956 28" stroke="#744593" stroke-width="8" stroke-linecap="round"/>
</svg>
